<svg width="477" height="198" viewBox="0 0 477 198" fill="none" xmlns="http://www.w3.org/2000/svg">
<rect x="188" y="2" width="237" height="196" rx="20" fill="#EACD97"/>
<path d="M297 164C306.389 164 314 171.611 314 181C314 190.389 306.389 198 297 198L17 198C7.61114 198 -1.15349e-06 190.389 -7.43094e-07 181C-3.32695e-07 171.611 7.61115 164 17 164L297 164Z" fill="#6CACAA"/>
<path d="M460 -7.43094e-07C469.389 -3.32694e-07 477 7.61116 477 17C477 26.3888 469.389 34 460 34L442 34C432.611 34 425 26.3888 425 17C425 7.61116 432.611 -1.9403e-06 442 -1.5299e-06L460 -7.43094e-07Z" fill="#6CACAA"/>
<path d="M421.5 40C430.613 40 438 47.3873 438 56.5C438 65.6127 430.613 73 421.5 73L366.5 73C357.387 73 350 65.6127 350 56.5C350 47.3873 357.387 40 366.5 40L421.5 40Z" fill="#6CACAA"/>
</svg>
