<svg width="345" height="13" viewBox="0 0 345 13" fill="none" xmlns="http://www.w3.org/2000/svg">
<path d="M287.5 -2.84124e-07C291.09 -1.27207e-07 294 2.91015 294 6.50001C294 10.0899 291.09 13 287.5 13L6.5 13C2.91016 13 -4.41042e-07 10.0898 -2.84124e-07 6.49999C-1.27207e-07 2.91014 2.91016 -1.27239e-05 6.5 -1.2567e-05L287.5 -2.84124e-07Z" fill="#EACD97"/>
<path d="M338.5 -2.84124e-07C342.09 -1.27207e-07 345 2.91015 345 6.5C345 10.0899 342.09 13 338.5 13L318.5 13C314.91 13 312 10.0898 312 6.5C312 2.91015 314.91 -1.31527e-06 318.5 -1.15835e-06L338.5 -2.84124e-07Z" fill="#EACD97"/>
</svg>
