<svg width="450" height="596" viewBox="0 0 450 596" fill="none" xmlns="http://www.w3.org/2000/svg">
<circle cx="263" cy="241" r="157.5" stroke="#78D6CC" stroke-width="3"/>
<circle cx="263" cy="241" r="145.5" stroke="#78D6CC" stroke-width="3"/>
<rect y="178" width="300" height="418" rx="20" fill="#EACD97"/>
<rect x="337" y="262" width="37" height="24" rx="12" fill="#6CACAA"/>
<rect x="380" y="262" width="70" height="24" rx="12" fill="#6CACAA"/>
<path d="M428.54 -9.3804e-07C440.392 -4.19975e-07 450 9.6079 450 21.4599L450 231.54C450 243.392 440.392 253 428.54 253L236.46 253C224.608 253 215 243.392 215 231.54L215 21.4599C215 9.6079 224.608 -9.8522e-06 236.46 -9.33414e-06L428.54 -9.3804e-07Z" fill="#6CACAA"/>
</svg>
