<svg width="50" height="50" viewBox="0 0 50 50" fill="none" xmlns="http://www.w3.org/2000/svg">
<circle cx="24.9041" cy="24.9041" r="24.9041" fill="url(#paint0_linear_2_1255)"/>
<path d="M24.6041 42.031C24.139 42.031 23.6739 41.9224 23.2864 41.7054C20.3874 40.1241 15.2871 38.4499 12.0935 38.0313L11.644 37.9693C9.61312 37.7212 7.93884 35.8144 7.93884 33.7526V15.0255C7.93884 13.8008 8.41942 12.6846 9.30307 11.8785C10.1867 11.0723 11.3339 10.6848 12.5431 10.7933C15.9537 11.0568 21.1005 12.7621 24.015 14.5914L24.3871 14.8085C24.4956 14.8705 24.7281 14.8705 24.8211 14.824L25.0692 14.6689C27.9836 12.8396 33.1305 11.1033 36.5566 10.8088C36.5876 10.8088 36.7116 10.8088 36.7426 10.8088C37.8743 10.7003 39.037 11.1033 39.9051 11.9095C40.7888 12.7156 41.2693 13.8318 41.2693 15.0565V33.7681C41.2693 35.8454 39.5951 37.7367 37.5487 37.9848L37.0371 38.0468C33.8436 38.4654 28.7278 40.1551 25.8908 41.7209C25.5187 41.9379 25.0692 42.031 24.6041 42.031ZM12.171 13.1032C11.675 13.1032 11.2254 13.2737 10.8688 13.5993C10.4813 13.9558 10.2642 14.4674 10.2642 15.0255V33.7526C10.2642 34.6672 11.0549 35.5509 11.9385 35.6749L12.4036 35.7369C15.8917 36.202 21.24 37.9538 24.3405 39.6436C24.4801 39.7056 24.6816 39.7211 24.7591 39.6901C27.8596 37.9693 33.239 36.202 36.7426 35.7369L37.2697 35.6749C38.1533 35.5664 38.944 34.6672 38.944 33.7526V15.041C38.944 14.4674 38.7269 13.9713 38.3394 13.5993C37.9363 13.2427 37.4247 13.0722 36.8511 13.1032C36.8201 13.1032 36.6961 13.1032 36.6651 13.1032C33.7041 13.3667 28.9293 14.9635 26.3249 16.5913L26.0768 16.7618C25.2242 17.2889 24.015 17.2889 23.1934 16.7773L22.8213 16.5602C20.1704 14.9325 15.3956 13.3512 12.3571 13.1032C12.2951 13.1032 12.2331 13.1032 12.171 13.1032Z" fill="white"/>
<path d="M24.6041 40.7291C23.9685 40.7291 23.4414 40.202 23.4414 39.5664V16.3126C23.4414 15.677 23.9685 15.1499 24.6041 15.1499C25.2397 15.1499 25.7668 15.677 25.7668 16.3126V39.5664C25.7668 40.2175 25.2397 40.7291 24.6041 40.7291Z" fill="white"/>
<path d="M18.0155 22.1257H14.5274C13.8918 22.1257 13.3647 21.5986 13.3647 20.963C13.3647 20.3274 13.8918 19.8003 14.5274 19.8003H18.0155C18.6511 19.8003 19.1782 20.3274 19.1782 20.963C19.1782 21.5986 18.6511 22.1257 18.0155 22.1257Z" fill="white"/>
<path d="M19.1782 26.7766H14.5274C13.8918 26.7766 13.3647 26.2495 13.3647 25.6139C13.3647 24.9783 13.8918 24.4512 14.5274 24.4512H19.1782C19.8138 24.4512 20.3409 24.9783 20.3409 25.6139C20.3409 26.2495 19.8138 26.7766 19.1782 26.7766Z" fill="white"/>
<defs>
<linearGradient id="paint0_linear_2_1255" x1="37.8062" y1="24.6041" x2="6.90114" y2="41.4068" gradientUnits="userSpaceOnUse">
<stop stop-color="#6EB2AF"/>
<stop offset="0.932292" stop-color="#6DADAB"/>
</linearGradient>
</defs>
</svg>
