<svg width="16" height="16" viewBox="0 0 16 16" fill="none" xmlns="http://www.w3.org/2000/svg">
<path d="M3.33333 6.51851V10.8002C3.33333 11.9203 3.33333 12.4804 3.55132 12.9082C3.74307 13.2845 4.04903 13.5905 4.42535 13.7822C4.85318 14.0002 5.41323 14.0002 6.53333 14.0002H9.46667C10.5868 14.0002 11.1468 14.0002 11.5746 13.7822C11.951 13.5905 12.2569 13.2845 12.4487 12.9082C12.6667 12.4804 12.6667 11.9203 12.6667 10.8002V3.33355M14 8.00021L10.3778 3.9762C9.55407 3.06102 9.14217 2.60343 8.65709 2.4345C8.23103 2.28612 7.76733 2.28616 7.34129 2.4346C6.85623 2.6036 6.44441 3.06125 5.62076 3.97655L2 8.00021" stroke="#B8B8B8" stroke-width="1.33333" stroke-linecap="round" stroke-linejoin="round"/>
</svg>
