<svg xmlns="http://www.w3.org/2000/svg" xmlns:xlink="http://www.w3.org/1999/xlink" viewBox="0 0 1260.23 208.08"><defs><style>.a{fill-rule:evenodd;fill:url(#a);}.b{fill:url(#b);}.c{fill:#fff;}</style><linearGradient id="a" x1="233.35" y1="786.7" x2="1620.11" y2="636.7" gradientTransform="matrix(1, 0, 0, -1, 0, 843.45)" gradientUnits="userSpaceOnUse"><stop offset="0.09" stop-color="#339a98"/><stop offset="1" stop-color="#78d6cc"/></linearGradient><linearGradient id="b" x1="222.64" y1="764.22" x2="107.3" y2="701.51" gradientTransform="matrix(1, 0, 0, -1, -0.77, 836.71)" gradientUnits="userSpaceOnUse"><stop offset="0" stop-color="#277a78"/><stop offset="1"/></linearGradient></defs><path class="a" d="M23.18,32.79A22.4,22.4,0,0,0,.77,55.19V164.41H588.55l42.34,50.41,42.33-50.41H1261V55.19a22.4,22.4,0,0,0-22.4-22.4Z" transform="translate(-0.77 -6.74)"/><circle class="b" cx="184.23" cy="92.95" r="92.95"/><path class="c" d="M180.75,154.75H160.89c-22.94,0-33.18-10.24-33.18-33.18V101.71c0-22.94,10.24-33.19,33.18-33.19h15.68a3.92,3.92,0,1,1,0,7.84H160.89c-18.71,0-25.35,6.64-25.35,25.35v19.86c0,18.71,6.64,25.35,25.35,25.35h19.86c18.71,0,25.35-6.64,25.35-25.35V105.89a3.92,3.92,0,1,1,7.84,0v15.68C213.94,144.51,203.69,154.75,180.75,154.75Z" transform="translate(-0.77 -6.74)"/><path class="c" d="M210,109.81H193.29c-14.68,0-20.64-6-20.64-20.64V72.44a3.86,3.86,0,0,1,2.4-3.6,4,4,0,0,1,4.29.83l33.45,33.45a4,4,0,0,1,.83,4.29A3.87,3.87,0,0,1,210,109.81ZM180.49,81.9v7.27c0,10.4,2.4,12.8,12.8,12.8h7.27Z" transform="translate(-0.77 -6.74)"/><path class="c" d="M202.7,50.23H181.8a3.92,3.92,0,0,1,0-7.84h20.9a3.92,3.92,0,1,1,0,7.84Z" transform="translate(-0.77 -6.74)"/><path class="c" d="M157.76,65.91A4,4,0,0,1,153.84,62a19.6,19.6,0,0,1,19.59-19.6h13.7a3.92,3.92,0,1,1,0,7.84h-13.7A11.78,11.78,0,0,0,161.67,62,3.94,3.94,0,0,1,157.76,65.91Z" transform="translate(-0.77 -6.74)"/><path class="c" d="M221.46,128.62a3.92,3.92,0,0,1,0-7.84A10.78,10.78,0,0,0,232.23,110V77.67a3.92,3.92,0,1,1,7.84,0V110A18.64,18.64,0,0,1,221.46,128.62Z" transform="translate(-0.77 -6.74)"/><path class="c" d="M236.15,81.59H220.47c-13.9,0-19.6-5.7-19.6-19.6V46.31a3.85,3.85,0,0,1,2.41-3.6,3.93,3.93,0,0,1,4.28.83L238.92,74.9a3.92,3.92,0,0,1,.83,4.28A3.85,3.85,0,0,1,236.15,81.59ZM208.71,55.77V62c0,9.56,2.2,11.76,11.76,11.76h6.22Z" transform="translate(-0.77 -6.74)"/></svg>