<svg width="28" height="28" viewBox="0 0 28 28" fill="none" xmlns="http://www.w3.org/2000/svg">
<g clip-path="url(#clip0_2_4370)">
<path d="M28.0001 15.4044C27.8109 16.2522 27.693 17.1247 27.4221 17.9457C25.5398 23.6411 21.6525 27.0759 15.7008 27.8758C8.21479 28.8828 1.37564 23.6376 0.174085 16.1517C-1.02163 8.70668 4.07884 1.55757 11.5369 0.222007C19.2845 -1.16501 26.6281 4.07549 27.86 11.869C27.8985 12.1146 27.9534 12.359 28.0013 12.6034V15.4044H28.0001ZM12.2188 15.0617C11.3664 14.1869 10.5864 13.3461 9.76198 12.5531C9.05319 11.8713 8.01745 11.8971 7.34836 12.5496C6.6641 13.2174 6.62907 14.2863 7.32851 15.0091C8.54291 16.2651 9.77949 17.5001 11.0313 18.7199C11.7704 19.4391 12.7466 19.459 13.4811 18.7327C15.8993 16.3458 18.2919 13.9331 20.6892 11.5252C21.078 11.1345 21.2544 10.6469 21.1831 10.0914C21.0944 9.39317 20.7149 8.8938 20.0563 8.66341C19.3288 8.40846 18.6878 8.60844 18.1448 9.15342C16.3501 10.9556 14.5507 12.7543 12.7524 14.553C12.6041 14.7015 12.4488 14.8418 12.2176 15.0617H12.2188Z" fill="#5EBB47"/>
</g>
<defs>
<clipPath id="clip0_2_4370">
<rect width="28" height="28" fill="white"/>
</clipPath>
</defs>
</svg>
