<svg xmlns="http://www.w3.org/2000/svg" viewBox="0 0 776.2 715.61"><defs><style>.a{fill:#6cacaa;}.b{fill:none;stroke:#78d6cc;stroke-width:3px;}.c{fill:#eacd97;}</style></defs><path class="a" d="M502.29,488.9a32.88,32.88,0,0,1,32.88,32.88v312.7a32.88,32.88,0,0,1-32.88,32.88H206.44a32.88,32.88,0,0,1-32.88-32.88V521.78a32.88,32.88,0,0,1,32.88-32.88Z" transform="translate(-26.81 -206.49)"/><path class="a" d="M336.58,448.91a13.79,13.79,0,1,1,0,27.58H230.86a13.79,13.79,0,0,1,0-27.58Z" transform="translate(-26.81 -206.49)"/><circle class="b" cx="317.91" cy="317.91" r="316.41"/><circle class="b" cx="317.91" cy="317.91" r="291.89"/><path class="a" d="M195,448.91a13.79,13.79,0,1,1,0,27.58h-7.66a13.79,13.79,0,1,1,0-27.58Z" transform="translate(-26.81 -206.49)"/><rect class="c" x="413.06" y="56.75" width="363.14" height="658.86" rx="30.64"/></svg>