<svg width="473" height="455" viewBox="0 0 473 455" fill="none" xmlns="http://www.w3.org/2000/svg">
<path d="M290.54 181C302.392 181 312 190.608 312 202.46L312 406.54C312 418.392 302.392 428 290.54 428L97.4599 428C85.6079 428 76 418.392 76 406.54L76 202.46C76 190.608 85.6079 181 97.4599 181L290.54 181Z" fill="#6CACAA"/>
<path d="M90 157C94.9706 157 99 161.029 99 166C99 170.971 94.9706 175 90 175L85 175C80.0294 175 76 170.971 76 166C76 161.029 80.0294 157 85 157L90 157Z" fill="#6CACAA"/>
<path d="M185 157C189.971 157 194 161.029 194 166C194 170.971 189.971 175 185 175L116 175C111.029 175 107 170.971 107 166C107 161.029 111.029 157 116 157L185 157Z" fill="#6CACAA"/>
<circle cx="208" cy="208" r="206.5" stroke="#78D6CC" stroke-width="3"/>
<circle cx="208" cy="208" r="190.5" stroke="#78D6CC" stroke-width="3"/>
<rect x="236" y="25" width="237" height="430" rx="20" fill="#EACD97"/>
</svg>
