<svg width="364" height="109" viewBox="0 0 364 109" fill="none" xmlns="http://www.w3.org/2000/svg">
<path d="M353 -4.37114e-07C358.523 -1.95703e-07 363 4.47715 363 10L363 99C363 104.523 358.523 109 353 109L273 109C267.477 109 263 104.523 263 99L263 10C263 4.47715 267.477 -4.17544e-06 273 -3.93402e-06L353 -4.37114e-07Z" fill="#6CACAA"/>
<path d="M354 42C359.523 42 364 46.4772 364 52L364 82C364 87.5229 359.523 92 354 92L74 92C68.4772 92 64 87.5228 64 82L64 52C64 46.4771 68.4772 42 74 42L354 42Z" fill="#EACD97"/>
<path d="M40.5 42C45.1944 42 49 45.8056 49 50.5L49 83.5C49 88.1944 45.1944 92 40.5 92V92C35.8056 92 32 88.1944 32 83.5L32 50.5C32 45.8056 35.8056 42 40.5 42V42Z" fill="#EACD97"/>
<path d="M8.5 42C13.1944 42 17 45.8056 17 50.5L17 83.5C17 88.1944 13.1944 92 8.5 92V92C3.80558 92 2.45754e-07 88.1944 4.50954e-07 83.5L1.89343e-06 50.5C2.09863e-06 45.8056 3.80558 42 8.5 42V42Z" fill="#EACD97"/>
</svg>
