<svg width="332" height="50" viewBox="0 0 332 50" fill="none" xmlns="http://www.w3.org/2000/svg">
<path d="M322 -4.37114e-07C327.523 -1.95703e-07 332 4.47715 332 10L332 40C332 45.5229 327.523 50 322 50L42 50C36.4772 50 32 45.5228 32 40L32 9.99999C32 4.47714 36.4771 -1.29177e-05 42 -1.26763e-05L322 -4.37114e-07Z" fill="#EACD97"/>
<path d="M8.5 -3.71547e-07C13.1944 -1.66347e-07 17 3.80558 17 8.5L17 41.5C17 46.1944 13.1944 50 8.5 50C3.80558 50 -1.11874e-07 46.1944 9.3326e-08 41.5L1.5358e-06 8.5C1.741e-06 3.80558 3.80558 -5.76746e-07 8.5 -3.71547e-07Z" fill="#EACD97"/>
</svg>
