<svg width="950" height="20" viewBox="0 0 950 20" fill="none" xmlns="http://www.w3.org/2000/svg">
<path d="M940 -2.9141e-07C945.523 -1.30468e-07 950 4.47716 950 10V10C950 15.5229 945.523 20 940 20L280 20C274.477 20 270 15.5228 270 9.99999V9.99999C270 4.47714 274.477 -1.96854e-05 280 -1.95244e-05L940 -2.9141e-07Z" fill="#6CACAA"/>
<path d="M41 -2.91409e-07C46.5228 -1.30468e-07 51 4.47715 51 10V10C51 15.5228 46.5228 20 41 20L10 20C4.47715 20 -2.4483e-06 15.5228 -2.08618e-06 10V10C-1.72407e-06 4.47715 4.47715 -1.35572e-06 10 -1.19478e-06L41 -2.91409e-07Z" fill="#6CACAA"/>
<path d="M239 -2.91409e-07C244.523 -1.30468e-07 249 4.47715 249 10V10C249 15.5229 244.523 20 239 20L82 20C76.4771 20 72 15.5228 72 10V10C72 4.47715 76.4772 -5.02748e-06 82 -4.86653e-06L239 -2.91409e-07Z" fill="#6CACAA"/>
</svg>
