<svg width="450" height="532" viewBox="0 0 450 532" fill="none" xmlns="http://www.w3.org/2000/svg">
<circle cx="277" cy="166" r="153.5" stroke="#78D6CC" stroke-width="3"/>
<circle cx="277" cy="166" r="141.5" stroke="#78D6CC" stroke-width="3"/>
<rect y="114" width="300" height="418" rx="20" fill="#EACD97"/>
<rect x="337" y="200" width="37" height="24" rx="12" fill="#6CACAA"/>
<rect x="380" y="200" width="70" height="24" rx="12" fill="#6CACAA"/>
<path d="M428.54 -9.3804e-07C440.392 -4.19975e-07 450 9.60791 450 21.4599L450 169.54C450 181.392 440.392 191 428.54 191L236.46 191C224.608 191 215 181.392 215 169.54L215 21.4598C215 9.60789 224.608 -9.8522e-06 236.46 -9.33414e-06L428.54 -9.3804e-07Z" fill="#6CACAA"/>
</svg>
