<svg width="1002" height="158" viewBox="0 0 1002 158" fill="none" xmlns="http://www.w3.org/2000/svg">
<rect width="237" height="139" rx="20" transform="matrix(-1 0 0 1 988 19)" fill="#EACD97"/>
<rect width="237" height="56" rx="20" transform="matrix(-1 0 0 1 731 85)" fill="#EACD97"/>
<path d="M17 124C7.61112 124 3.32695e-07 131.611 7.43095e-07 141C1.15349e-06 150.389 7.61117 158 17 158L985 158C994.389 158 1002 150.389 1002 141C1002 131.611 994.389 124 985 124L17 124Z" fill="#6CACAA"/>
<path d="M861 -7.43094e-07C851.611 -3.32694e-07 844 7.61116 844 17C844 26.3888 851.611 34 861 34L879 34C888.389 34 896 26.3888 896 17C896 7.61116 888.389 -1.9403e-06 879 -1.5299e-06L861 -7.43094e-07Z" fill="#6CACAA"/>
<path d="M686 -7.43094e-07C676.611 -3.32694e-07 669 7.61116 669 17C669 26.3888 676.611 34 686 34L704 34C713.389 34 721 26.3888 721 17C721 7.61116 713.389 -1.9403e-06 704 -1.5299e-06L686 -7.43094e-07Z" fill="#6CACAA"/>
<path d="M754.5 -7.21238e-07C745.387 -3.22909e-07 738 7.3873 738 16.5C738 25.6127 745.387 33 754.5 33L809.5 33C818.613 33 826 25.6127 826 16.5C826 7.3873 818.613 -3.52369e-06 809.5 -3.12536e-06L754.5 -7.21238e-07Z" fill="#6CACAA"/>
</svg>
