<svg width="264" height="158" viewBox="0 0 264 158" fill="none" xmlns="http://www.w3.org/2000/svg">
<rect width="237" height="139" rx="20" transform="matrix(-1 0 0 1 250 19)" fill="#EACD97"/>
<path d="M155 124C145.611 124 138 131.611 138 141C138 150.389 145.611 158 155 158L247 158C256.389 158 264 150.389 264 141C264 131.611 256.389 124 247 124L155 124Z" fill="#6CACAA"/>
<path d="M123 -7.43094e-07C113.611 -3.32694e-07 106 7.61116 106 17C106 26.3888 113.611 34 123 34L141 34C150.389 34 158 26.3888 158 17C158 7.61116 150.389 -1.9403e-06 141 -1.5299e-06L123 -7.43094e-07Z" fill="#6CACAA"/>
<path d="M16.5 -7.21238e-07C7.3873 -3.22909e-07 3.22909e-07 7.3873 7.21238e-07 16.5C1.11957e-06 25.6127 7.38731 33 16.5 33L71.5 33C80.6127 33 88 25.6127 88 16.5C88 7.3873 80.6127 -3.52369e-06 71.5 -3.12536e-06L16.5 -7.21238e-07Z" fill="#6CACAA"/>
</svg>
