<svg width="450" height="209" viewBox="0 0 450 209" fill="none" xmlns="http://www.w3.org/2000/svg">
<path d="M428.54 2C440.392 2 450 11.6079 450 23.4599L450 187.54C450 199.392 440.392 209 428.54 209L171.46 209C159.608 209 150 199.392 150 187.54L150 23.4598C150 11.6079 159.608 1.99999 171.46 1.99999L428.54 2Z" fill="#F5A19D"/>
<path d="M0 11.5C0 5.14873 5.14873 0 11.5 0H274.5C280.851 0 286 5.14873 286 11.5C286 17.8513 280.851 23 274.5 23H11.5C5.14872 23 0 17.8513 0 11.5Z" fill="#FBDFBE"/>
<path d="M301 11.5C301 5.14873 306.149 0 312.5 0H338.5C344.851 0 350 5.14873 350 11.5C350 17.8513 344.851 23 338.5 23H312.5C306.149 23 301 17.8513 301 11.5Z" fill="#FBDFBE"/>
</svg>
