<svg width="450" height="280" viewBox="0 0 450 280" fill="none" xmlns="http://www.w3.org/2000/svg">
<path d="M278.54 73C290.392 73 300 82.6079 300 94.4599L300 258.54C300 270.392 290.392 280 278.54 280L21.4598 280C9.60786 280 -2.38871e-05 270.392 -2.3369e-05 258.54L-1.61968e-05 94.4598C-1.56788e-05 82.6079 9.60789 73 21.4598 73L278.54 73Z" fill="#F5A19D"/>
<path d="M164 27C164 12.0883 176.088 0 191 0H423C437.912 0 450 12.0883 450 27V147C450 161.912 437.912 174 423 174H191C176.088 174 164 161.912 164 147V27Z" fill="#FBDFBE"/>
</svg>
