<svg width="950" height="434" viewBox="0 0 950 434" fill="none" xmlns="http://www.w3.org/2000/svg">
<path d="M278.54 191C290.392 191 300 200.608 300 212.46L300 384.54C300 396.392 290.392 406 278.54 406L21.4598 406C9.60788 406 -8.97797e-06 396.392 -8.45991e-06 384.54L-9.3804e-07 212.46C-4.19975e-07 200.608 9.6079 191 21.4599 191L278.54 191Z" fill="#F5A19D"/>
<rect x="204" y="111" width="746" height="264" rx="27" fill="#FBDFBE"/>
<path d="M928.54 -9.3804e-07C940.392 -4.19975e-07 950 9.6079 950 21.4599L950 144.54C950 156.392 940.392 166 928.54 166L733.46 166C721.608 166 712 156.392 712 144.54L712 21.4598C712 9.60789 721.608 -9.98334e-06 733.46 -9.46527e-06L928.54 -9.3804e-07Z" fill="#F5A19D"/>
<path d="M735.54 316C747.392 316 757 325.608 757 337.46L757 412.54C757 424.392 747.392 434 735.54 434L608.46 434C596.608 434 587 424.392 587 412.54L587 337.46C587 325.608 596.608 316 608.46 316L735.54 316Z" fill="#F5A19D"/>
</svg>
