<svg width="477" height="260" viewBox="0 0 477 260" fill="none" xmlns="http://www.w3.org/2000/svg">
<rect x="188" y="27" width="237" height="233" rx="20" fill="#B99ADD"/>
<path d="M297 226C306.389 226 314 233.611 314 243V243C314 252.389 306.389 260 297 260L17 260C7.61115 260 -1.49818e-05 252.389 -1.45714e-05 243V243C-1.4161e-05 233.611 7.61115 226 17 226L297 226Z" fill="#A9C9FD"/>
<path d="M460 62C469.389 62 477 69.6112 477 79V79C477 88.3888 469.389 96 460 96L442 96C432.611 96 425 88.3888 425 79V79C425 69.6112 432.611 62 442 62L460 62Z" fill="#A9C9FD"/>
<path d="M421 -7.43094e-07C430.389 -3.32694e-07 438 7.61116 438 17V17C438 26.3888 430.389 34 421 34L403 34C393.611 34 386 26.3888 386 17V17C386 7.61116 393.611 -1.9403e-06 403 -1.5299e-06L421 -7.43094e-07Z" fill="#A9C9FD"/>
<path d="M421.5 102C430.613 102 438 109.387 438 118.5V118.5C438 127.613 430.613 135 421.5 135L366.5 135C357.387 135 350 127.613 350 118.5V118.5C350 109.387 357.387 102 366.5 102L421.5 102Z" fill="#A9C9FD"/>
</svg>
