<svg width="131" height="60" viewBox="0 0 131 60" fill="none" xmlns="http://www.w3.org/2000/svg">
<g clip-path="url(#clip0_7_1007)">
<path d="M60 47.5928C60.2333 46.3773 60.4846 45.1658 60.6942 43.9476C61.3177 40.3377 61.9203 36.7252 62.5409 33.1153C62.6825 32.2922 63.1671 31.8739 63.8044 31.9774C64.4792 32.0865 64.7611 32.6411 64.6139 33.5051C63.7947 38.3195 62.9686 43.134 62.173 47.9526C61.7523 50.5063 63.1296 53.0464 65.5289 54.2606C67.8894 55.4544 70.8135 55.0551 72.731 53.2849C73.5377 52.5382 74.0931 51.6442 74.4458 50.6154C75.7648 46.7616 77.0908 42.9105 78.4168 39.0595C78.832 37.8508 79.3749 37.6613 80.4704 38.34C83.0543 39.9398 86.3006 39.6591 88.5222 37.6137C88.9235 37.2444 89.3372 37.0795 89.8801 37.0822C93.6221 37.0945 97.364 37.0699 101.105 37.1122C101.556 37.1176 102.096 37.3479 102.438 37.6477C104.69 39.6264 107.886 39.9371 110.452 38.3659C111.622 37.6491 112.133 37.833 112.585 39.1385C113.109 40.658 113.633 42.1774 114.154 43.6968C114.452 44.5676 114.234 45.1713 113.557 45.3716C112.936 45.5556 112.432 45.1863 112.137 44.3264C111.711 43.0863 111.289 41.8449 110.885 40.6621C109.895 40.9019 108.959 41.2099 107.998 41.3448C105.537 41.6923 103.355 40.9932 101.411 39.4928C101.166 39.3034 100.801 39.1685 100.49 39.1658C97.1405 39.1426 93.7915 39.1467 90.4425 39.1617C90.187 39.1617 89.8773 39.2339 89.6871 39.3852C86.7796 41.6923 83.6181 42.0043 80.1608 40.5817C80.0941 40.7343 80.008 40.9033 79.9469 41.0804C78.7931 44.4409 77.6434 47.8027 76.4882 51.1632C75.1442 55.0687 71.7938 57.2927 67.5408 56.9493C63.6767 56.6372 60.6679 53.6529 60.1166 50.1439C60.1041 50.0607 60.0417 49.9844 60.0014 49.904C60.0014 49.1341 60.0014 48.3628 60.0014 47.5928H60Z" fill="white"/>
<path d="M103.623 14.7407H87.3974C87.0836 16.2874 87.8084 17.1704 89.376 17.1759C90.6006 17.1813 91.8239 17.1718 93.0485 17.1786C93.9386 17.184 94.462 17.5888 94.4523 18.2429C94.4426 18.8765 93.9358 19.2867 93.0902 19.2799C91.5212 19.2663 89.9425 19.3235 88.3874 19.1654C86.5699 18.9801 85.1342 17.3857 85.2689 15.5992C85.3688 14.2651 84.7315 13.5837 83.7499 12.9242C77.1851 8.51577 68.0781 12.4322 66.9048 20.1561C66.4563 23.1064 65.9037 26.0403 65.3941 28.9825C65.2775 29.6515 64.804 30.0454 64.2209 29.9813C63.5877 29.9118 63.2128 29.439 63.3281 28.699C63.6516 26.6209 64.0015 24.5482 64.3736 22.4782C64.6444 20.9669 64.8429 19.4271 65.2928 17.9649C66.3911 14.3959 68.7543 11.8326 72.1769 10.2287C72.6323 10.0148 72.7948 9.78037 72.7573 9.3116C72.7212 8.8619 72.7434 8.40539 72.7573 7.95297C72.7989 6.41309 74.0111 5.11306 75.5787 5.04765C77.0768 4.98496 78.5819 4.98905 80.0801 5.04765C81.5505 5.10488 82.7168 6.22913 82.8835 7.67361C82.9501 8.25685 82.964 8.851 82.9334 9.43697C82.9071 9.93027 83.0862 10.1715 83.5305 10.429C84.4969 10.9918 85.3855 11.6841 86.3255 12.2946C86.5921 12.4677 86.9253 12.6475 87.228 12.6489C92.725 12.6707 98.222 12.6693 103.72 12.6489C104.026 12.6489 104.365 12.4854 104.63 12.3123C105.57 11.7018 106.452 11 107.422 10.4454C107.9 10.1728 108.068 9.90711 108.04 9.39609C108.009 8.83328 108.022 8.26094 108.086 7.70086C108.255 6.21959 109.423 5.1008 110.935 5.04356C112.411 4.98769 113.892 4.98496 115.367 5.04629C116.973 5.11306 118.297 6.42127 118.184 7.99249C118.083 9.40154 118.542 10.1061 119.85 10.8215C123.644 12.8956 125.608 16.2519 126.269 20.445C127.101 25.716 128.056 30.9666 128.956 36.2267C129.616 40.0832 130.326 43.9315 130.918 47.7975C131.668 52.691 127.47 57.1308 122.305 56.9972C118.883 56.91 115.864 54.8114 114.662 51.6554C114.291 50.6824 113.973 49.6903 113.649 48.7024C113.426 48.0183 113.679 47.4868 114.294 47.281C114.864 47.0903 115.377 47.3614 115.625 48.0319C115.986 49.0076 116.289 50.0051 116.669 50.974C117.684 53.5632 120.178 55.1031 123.044 54.9395C125.696 54.7883 128.038 52.811 128.709 50.1973C129.031 48.9449 128.794 47.7239 128.585 46.4988C127.49 40.0804 126.39 33.662 125.286 27.2436C124.838 24.6367 124.441 22.019 123.906 19.4284C122.854 14.321 117.904 10.7397 112.583 11.1199C110.146 11.2944 108.015 12.1542 106.206 13.7486C105.957 13.9666 105.824 14.3782 105.766 14.7202C105.678 15.2285 105.778 15.7709 105.673 16.2737C105.307 18.0153 103.866 19.1927 101.967 19.269C100.56 19.3262 99.1495 19.299 97.7402 19.2799C97.0015 19.2704 96.5267 18.8356 96.5183 18.2442C96.51 17.631 97.0071 17.1949 97.786 17.1854C99.0107 17.169 100.234 17.1813 101.459 17.1799C103.15 17.1772 103.773 16.4986 103.627 14.7434L103.623 14.7407ZM80.8091 9.30615C80.8091 8.90415 80.823 8.49942 80.8063 8.09605C80.7785 7.46511 80.4092 7.09037 79.7622 7.08083C78.4723 7.06311 77.1824 7.0672 75.8925 7.07946C75.2621 7.08491 74.9136 7.45149 74.8442 8.03746C74.7969 8.43401 74.8358 8.8401 74.8358 9.22575C75.8591 9.14807 76.82 9.00907 77.778 9.0227C78.7611 9.03633 79.7413 9.19849 80.8105 9.30478L80.8091 9.30615ZM116.125 9.21893C116.125 8.81829 116.172 8.38631 116.114 7.97068C116.04 7.45012 115.707 7.09309 115.145 7.08491C113.809 7.06447 112.472 7.06584 111.136 7.08491C110.614 7.09173 110.249 7.39289 110.185 7.8971C110.124 8.37405 110.171 8.86599 110.171 9.3116C111.206 9.20531 112.164 9.04042 113.123 9.02679C114.105 9.01316 115.088 9.14807 116.125 9.22166V9.21893Z" fill="white"/>
<path d="M81.0426 18.7418C83.1378 18.9557 84.4235 20.1672 84.4652 21.9319C84.5068 23.6953 83.2947 24.8672 81.0537 25.2283C80.4136 27.763 79.4028 28.6924 77.4214 28.5697C75.7497 28.4662 74.668 27.2792 74.3973 25.2529C72.2465 25.1329 70.9177 23.7007 70.9705 21.8297C71.0177 20.1331 72.2562 19.0239 74.3681 18.7254C74.7944 16.4892 75.8774 15.3909 77.6658 15.38C79.5249 15.3691 80.5677 16.3966 81.0426 18.7418ZM77.7421 26.5284C78.3489 26.5134 78.814 26.076 78.8543 25.4477C78.8807 25.0416 78.8488 24.6328 78.8668 24.2254C78.8987 23.5236 79.2861 23.1516 79.9984 23.1298C80.39 23.1175 80.7843 23.1461 81.1745 23.1202C81.8715 23.0752 82.3186 22.6324 82.3338 22.011C82.3491 21.3841 81.9326 20.9208 81.2328 20.8499C80.8218 20.8077 80.4025 20.8417 79.9873 20.8254C79.2709 20.7981 78.896 20.4329 78.8654 19.723C78.8501 19.3618 78.871 18.998 78.8585 18.6369C78.8349 17.931 78.3642 17.4322 77.7269 17.4227C77.0868 17.4131 76.6161 17.8887 76.5716 18.6123C76.5508 18.9503 76.5744 19.291 76.5591 19.6303C76.5217 20.482 76.1787 20.8118 75.322 20.8295C74.9305 20.8377 74.5334 20.809 74.1474 20.8567C73.4948 20.9358 73.0671 21.4127 73.0727 21.9892C73.0782 22.5901 73.5531 23.0698 74.2279 23.1202C74.5944 23.1475 74.9666 23.1243 75.3359 23.1298C76.1482 23.1434 76.5133 23.48 76.5591 24.2772C76.5841 24.7064 76.5522 25.1398 76.6022 25.5649C76.6716 26.1536 77.1631 26.5434 77.7407 26.5297L77.7421 26.5284Z" fill="white"/>
<path d="M84.2581 28.798C86.6546 28.7789 88.579 30.6322 88.6026 32.9829C88.6263 35.3104 86.6963 37.2387 84.3289 37.2509C81.9588 37.2632 79.9885 35.3649 79.9732 33.0524C79.958 30.7235 81.8768 28.8171 84.2581 28.798ZM84.3233 30.8598C83.107 30.8489 82.1198 31.7796 82.0851 32.9693C82.0504 34.148 83.1001 35.1987 84.3025 35.1905C85.5036 35.1823 86.4852 34.2107 86.4894 33.0265C86.4935 31.8355 85.5299 30.8693 84.3247 30.8598H84.3233Z" fill="white"/>
<path d="M106.691 28.7979C109.073 28.8061 111.003 30.7057 110.995 33.0346C110.987 35.3526 109.027 37.2563 106.657 37.2508C104.288 37.2454 102.353 35.3294 102.364 33.0005C102.375 30.6539 104.295 28.7897 106.691 28.7979ZM106.668 30.8597C105.452 30.8597 104.483 31.8068 104.477 32.9991C104.472 34.1888 105.433 35.1631 106.638 35.189C107.836 35.2149 108.897 34.1779 108.883 32.9951C108.868 31.8122 107.879 30.8583 106.668 30.8597Z" fill="white"/>
<path d="M113.949 13.9815C115.646 13.9747 116.989 15.2692 117.006 16.9304C117.022 18.6025 115.628 19.9856 113.944 19.9679C112.299 19.9502 110.899 18.5684 110.9 16.9604C110.9 15.3292 112.274 13.9896 113.949 13.9815ZM114.899 16.9331C114.885 16.4289 114.479 16.0446 113.963 16.046C113.412 16.0487 113.022 16.463 113.051 17.0135C113.078 17.53 113.476 17.8802 114.012 17.8584C114.537 17.838 114.914 17.4441 114.901 16.9318L114.899 16.9331Z" fill="white"/>
<path d="M117.005 27.0006C117.005 28.6427 115.647 29.9931 113.981 30.0067C112.318 30.0204 110.874 28.5963 110.9 26.9679C110.927 25.3435 112.329 23.9931 113.98 24.004C115.653 24.0149 117.005 25.3544 117.005 27.0006ZM113.941 26.0971C113.412 26.108 113.041 26.4882 113.047 27.0115C113.052 27.5334 113.431 27.9027 113.963 27.9041C114.52 27.9054 114.923 27.4953 114.898 26.9556C114.874 26.446 114.471 26.0848 113.941 26.0971Z" fill="white"/>
<path d="M122.121 21.9885C122.118 23.632 120.756 24.9811 119.092 24.9879C117.454 24.9947 116.04 23.6224 116.021 22.0076C116.002 20.356 117.411 18.9796 119.108 18.9933C120.797 19.0069 122.123 20.326 122.121 21.9872V21.9885ZM119.106 21.0714C118.581 21.0605 118.181 21.4312 118.163 21.9436C118.145 22.4641 118.512 22.8566 119.037 22.8784C119.598 22.9015 120.024 22.5132 120.024 21.9776C120.024 21.4748 119.625 21.081 119.108 21.07L119.106 21.0714Z" fill="white"/>
<path d="M111.893 21.9721C111.899 23.606 110.535 24.966 108.872 24.9878C107.218 25.0096 105.76 23.5801 105.782 21.9557C105.803 20.3205 107.185 18.9891 108.854 18.9932C110.535 18.9973 111.889 20.3245 111.893 21.9707V21.9721ZM108.825 21.0713C108.297 21.0822 107.925 21.4611 107.928 21.9843C107.93 22.5076 108.304 22.8769 108.837 22.881C109.397 22.8851 109.795 22.4831 109.773 21.938C109.752 21.427 109.352 21.0618 108.825 21.0713Z" fill="white"/>
<path d="M90.8298 25.9556C90.323 25.9556 89.8148 25.9801 89.3094 25.9501C88.6624 25.912 88.2639 25.495 88.2639 24.9145C88.2639 24.3176 88.636 23.9197 89.315 23.8992C90.3508 23.8693 91.3894 23.872 92.4252 23.9006C93.0403 23.917 93.4055 24.2658 93.4374 24.8845C93.4679 25.4568 93.0514 25.9065 92.4196 25.9474C91.892 25.9815 91.3602 25.9542 90.8298 25.9542V25.9556Z" fill="white"/>
<path d="M100.142 23.8923C100.649 23.8923 101.157 23.8677 101.663 23.8977C102.339 23.9386 102.71 24.3256 102.704 24.9238C102.7 25.5044 102.3 25.9295 101.647 25.9486C100.634 25.9786 99.6188 25.9759 98.6052 25.95C97.9582 25.9336 97.5375 25.5084 97.5236 24.9429C97.5083 24.3351 97.9152 23.9427 98.6205 23.8882C98.6663 23.8841 98.7121 23.8841 98.7594 23.8841C99.2203 23.8841 99.6813 23.8841 100.142 23.8841V23.8923Z" fill="white"/>
</g>
<g clip-path="url(#clip1_7_1007)">
<path d="M0 4.21799C0 21.4004 0 38.5829 0 55.7653C0.0311472 55.8345 0.0876735 55.9015 0.0899807 55.9719C0.183422 58.1118 2.14915 60.0697 4.69168 59.9981C7.50531 59.9194 10.3236 59.9805 13.1395 59.9805C18.5799 59.9805 24.0202 59.9758 29.4606 59.9852C30.4919 59.9875 31.4263 59.7281 32.2511 59.0907C33.5143 58.1153 33.9977 56.7736 33.9977 55.2089C33.9977 52.1053 33.9977 49.0017 33.9977 45.8981C33.9977 32.2336 33.9977 18.5692 33.9988 4.90585C33.9988 3.59704 33.7162 2.40209 32.8187 1.40551C32.1439 0.656609 31.2729 0.288029 30.3512 0.00161362H3.67882C3.51732 0.0579567 3.35812 0.118999 3.19547 0.169472C1.93805 0.556835 1.00363 1.34799 0.467207 2.5629C0.238795 3.07938 0.151121 3.66394 0 4.21799ZM1.80653 10.5461C1.80653 8.56583 1.85845 6.67128 1.79269 4.78025C1.72232 2.75893 3.12279 1.71188 4.78051 1.7424C7.36688 1.79052 9.95325 1.75531 12.5408 1.75531C18.1553 1.75531 23.7687 1.75179 29.3833 1.75766C31.1402 1.75883 32.2062 2.81175 32.2212 4.56192C32.2361 6.39661 32.2258 8.23247 32.2235 10.0683C32.2235 10.2162 32.1946 10.3641 32.1762 10.5461C31.912 10.5461 31.6847 10.5461 31.4575 10.5461C23.7353 10.5461 16.0131 10.5461 8.29206 10.5461C7.36226 10.5461 6.94235 10.8278 6.95735 11.4405C6.97119 12.0333 7.37611 12.2986 8.2713 12.2986C16.0119 12.2986 23.7537 12.2986 31.4944 12.2986C31.7193 12.2986 31.9431 12.2986 32.1854 12.2986V51.151H1.8423V12.2986C2.63828 12.2986 3.40081 12.3021 4.16334 12.2986C4.83588 12.2939 5.23272 11.9664 5.23503 11.4253C5.23734 10.8841 4.83934 10.5519 4.1691 10.5472C3.40658 10.5426 2.64405 10.5461 1.80769 10.5461H1.80653ZM32.1992 52.9763C32.1992 54.0081 32.2535 54.987 32.1865 55.9554C32.0931 57.3183 30.9061 58.2256 29.3175 58.2268C21.1189 58.2291 12.9191 58.228 4.72052 58.2268C4.51057 58.2268 4.29831 58.2221 4.09066 58.1904C2.93129 58.0108 1.9888 57.2243 1.8746 56.135C1.76616 55.1009 1.85153 54.0468 1.85153 52.9775H32.1992V52.9763Z" fill="white"/>
<path d="M17.0005 3.51858C15.5792 3.52445 14.4003 4.73231 14.4164 6.16673C14.4326 7.61757 15.6035 8.78905 17.0316 8.78318C18.4529 8.77731 19.6318 7.56944 19.6157 6.13503C19.5995 4.68419 18.4286 3.51271 17.0005 3.51858ZM16.9901 5.28636C17.4319 5.26993 17.8288 5.66081 17.8403 6.12564C17.8518 6.59987 17.4931 6.99897 17.0409 7.01657C16.599 7.03301 16.2022 6.64213 16.1907 6.17729C16.1791 5.70189 16.5367 5.30397 16.9901 5.28636Z" fill="white"/>
<path d="M18.7193 54.7145C18.1644 54.7145 17.6084 54.7016 17.0535 54.718C16.5183 54.7333 16.156 55.0948 16.1514 55.5808C16.1468 56.0656 16.509 56.4506 17.0374 56.4588C18.1667 56.4752 19.2973 56.4741 20.4266 56.4588C20.9619 56.4518 21.3241 56.0832 21.3288 55.5961C21.3334 55.1113 20.9711 54.7345 20.4428 54.718C19.8695 54.6993 19.2938 54.7133 18.7193 54.7133V54.7145Z" fill="white"/>
<path d="M13.5734 56.4609C14.0302 56.4574 14.4155 56.0736 14.4282 55.6111C14.442 55.1298 14.0371 54.7131 13.5595 54.7166C13.1027 54.7201 12.7174 55.104 12.7047 55.5665C12.6908 56.0489 13.0958 56.4644 13.5734 56.4609Z" fill="white"/>
</g>
<defs>
<clipPath id="clip0_7_1007">
<rect width="71" height="52" fill="white" transform="translate(60 5)"/>
</clipPath>
<clipPath id="clip1_7_1007">
<rect width="34" height="60" fill="white" transform="matrix(1 0 0 -1 0 60)"/>
</clipPath>
</defs>
</svg>
