<svg width="477" height="429" viewBox="0 0 477 429" fill="none" xmlns="http://www.w3.org/2000/svg">
<rect x="188" width="237" height="429" rx="20" fill="#B99ADD"/>
<path d="M297 395C306.389 395 314 402.611 314 412C314 421.389 306.389 429 297 429L17 429C7.61114 429 -1.15349e-06 421.389 -7.43094e-07 412C-3.32695e-07 402.611 7.61115 395 17 395L297 395Z" fill="#A9C9FD"/>
<path d="M460 231C469.389 231 477 238.611 477 248C477 257.389 469.389 265 460 265L442 265C432.611 265 425 257.389 425 248C425 238.611 432.611 231 442 231L460 231Z" fill="#A9C9FD"/>
<path d="M421 169C430.389 169 438 176.611 438 186C438 195.389 430.389 203 421 203L403 203C393.611 203 386 195.389 386 186C386 176.611 393.611 169 403 169L421 169Z" fill="#A9C9FD"/>
<path d="M192 50C201.389 50 209 57.6112 209 67C209 76.3888 201.389 84 192 84L174 84C164.611 84 157 76.3888 157 67C157 57.6112 164.611 50 174 50L192 50Z" fill="#A9C9FD"/>
<path d="M421.5 271C430.613 271 438 278.387 438 287.5C438 296.613 430.613 304 421.5 304L366.5 304C357.387 304 350 296.613 350 287.5C350 278.387 357.387 271 366.5 271L421.5 271Z" fill="#A9C9FD"/>
</svg>
