<svg width="446" height="247" viewBox="0 0 446 247" fill="none" xmlns="http://www.w3.org/2000/svg">
<rect x="188" y="47" width="237" height="200" rx="20" fill="#B99ADD"/>
<path d="M297 213C306.389 213 314 220.611 314 230C314 239.389 306.389 247 297 247L17 247C7.61114 247 -1.15349e-06 239.389 -7.43094e-07 230C-3.32695e-07 220.611 7.61115 213 17 213L297 213Z" fill="#A9C9FD"/>
<path d="M429 -7.43094e-07C438.389 -3.32694e-07 446 7.61116 446 17C446 26.3888 438.389 34 429 34L411 34C401.611 34 394 26.3888 394 17C394 7.61116 401.611 -1.9403e-06 411 -1.5299e-06L429 -7.43094e-07Z" fill="#A9C9FD"/>
<path d="M260 -7.43094e-07C269.389 -3.32694e-07 277 7.61116 277 17C277 26.3888 269.389 34 260 34L242 34C232.611 34 225 26.3888 225 17C225 7.61116 232.611 -1.9403e-06 242 -1.5299e-06L260 -7.43094e-07Z" fill="#A9C9FD"/>
<path d="M185 67C194.389 67 202 74.6112 202 84C202 93.3888 194.389 101 185 101L167 101C157.611 101 150 93.3888 150 84C150 74.6112 157.611 67 167 67L185 67Z" fill="#A9C9FD"/>
<path d="M421.5 89C430.613 89 438 96.3873 438 105.5C438 114.613 430.613 122 421.5 122L366.5 122C357.387 122 350 114.613 350 105.5C350 96.3873 357.387 89 366.5 89L421.5 89Z" fill="#A9C9FD"/>
</svg>
