<svg width="450" height="206" viewBox="0 0 450 206" fill="none" xmlns="http://www.w3.org/2000/svg">
<path d="M428.54 -9.3804e-07C440.392 -4.19975e-07 450 9.6079 450 21.4599L450 169.54C450 181.392 440.392 191 428.54 191L321.46 191C309.608 191 300 181.392 300 169.54L300 21.4598C300 9.60789 309.608 -6.13673e-06 321.46 -5.61867e-06L428.54 -9.3804e-07Z" fill="#A9C9FD"/>
<path d="M428.54 138C440.392 138 450 147.608 450 159.46L450 184.54C450 196.392 440.392 206 428.54 206L21.4598 206C9.60791 206 -2.5524e-06 196.392 -2.03434e-06 184.54L-9.3804e-07 159.46C-4.19975e-07 147.608 9.60791 138 21.4599 138L428.54 138Z" fill="#B99ADD"/>
</svg>
