<svg width="450" height="293" viewBox="0 0 450 293" fill="none" xmlns="http://www.w3.org/2000/svg">
<path d="M428.54 -9.3804e-07C440.392 -4.19974e-07 450 9.6079 450 21.4599L450 177.54C450 189.392 440.392 199 428.54 199L193.46 199C181.608 199 172 189.392 172 177.54L172 21.4598C172 9.60789 181.608 -1.17318e-05 193.46 -1.12137e-05L428.54 -9.3804e-07Z" fill="#A9C9FD"/>
<path d="M244.54 118C256.392 118 266 127.608 266 139.46L266 271.54C266 283.392 256.392 293 244.54 293L21.4598 293C9.6079 293 -7.22952e-06 283.392 -6.71145e-06 271.54L-9.3804e-07 139.46C-4.19975e-07 127.608 9.60791 118 21.4599 118L244.54 118Z" fill="#B99ADD"/>
</svg>
