<svg width="449" height="230" viewBox="0 0 449 230" fill="none" xmlns="http://www.w3.org/2000/svg">
<rect width="274" height="141" rx="20" transform="matrix(-1 0 0 1 274 89)" fill="#CAE9FF"/>
<rect width="225" height="141" rx="20" transform="matrix(-1 0 0 1 449 0)" fill="#FFC8FC"/>
<path d="M140.5 50C134.701 50 130 54.701 130 60.5V60.5C130 66.299 134.701 71 140.5 71L155.5 71C161.299 71 166 66.299 166 60.5V60.5C166 54.701 161.299 50 155.5 50L140.5 50Z" fill="#FFC8FC"/>
<path d="M92.5 50C86.701 50 82 54.701 82 60.5V60.5C82 66.299 86.701 71 92.5 71L107.5 71C113.299 71 118 66.299 118 60.5V60.5C118 54.701 113.299 50 107.5 50L92.5 50Z" fill="#FFC8FC"/>
<path d="M10 50C4.47715 50 1.95703e-07 54.4772 4.37114e-07 60V60C6.78525e-07 65.5228 4.47715 70 10 70L59 70C64.5228 70 69 65.5228 69 60V60C69 54.4772 64.5228 50 59 50L10 50Z" fill="#FFC8FC"/>
</svg>
