<svg width="477" height="326" viewBox="0 0 477 326" fill="none" xmlns="http://www.w3.org/2000/svg">
<rect x="188" width="237" height="326" rx="20" fill="#CAE9FF"/>
<path d="M297 292C306.389 292 314 299.611 314 309V309C314 318.389 306.389 326 297 326L17 326C7.61115 326 -1.49818e-05 318.389 -1.45714e-05 309V309C-1.4161e-05 299.611 7.61115 292 17 292L297 292Z" fill="#FFC8FC"/>
<path d="M460 128C469.389 128 477 135.611 477 145V145C477 154.389 469.389 162 460 162L442 162C432.611 162 425 154.389 425 145V145C425 135.611 432.611 128 442 128L460 128Z" fill="#FFC8FC"/>
<path d="M421 66C430.389 66 438 73.6112 438 83V83C438 92.3888 430.389 100 421 100L403 100C393.611 100 386 92.3888 386 83V83C386 73.6112 393.611 66 403 66L421 66Z" fill="#FFC8FC"/>
<path d="M421.5 168C430.613 168 438 175.387 438 184.5V184.5C438 193.613 430.613 201 421.5 201L366.5 201C357.387 201 350 193.613 350 184.5V184.5C350 175.387 357.387 168 366.5 168L421.5 168Z" fill="#FFC8FC"/>
</svg>
