<svg width="498" height="592" viewBox="0 0 498 592" fill="none" xmlns="http://www.w3.org/2000/svg">
<path d="M272.54 377C284.392 377 294 386.608 294 398.46L294 570.54C294 582.392 284.392 592 272.54 592L21.4598 592C9.60787 592 -8.97797e-06 582.392 -8.45991e-06 570.54L-9.3804e-07 398.46C-4.19975e-07 386.608 9.6079 377 21.4599 377L272.54 377Z" fill="#FFC8FC"/>
<rect x="170" width="328" height="309" rx="20" fill="#FFC8FC"/>
<path d="M361.54 134C373.392 134 383 143.608 383 155.46L383 433.54C383 445.392 373.392 455 361.54 455L116.46 455C104.608 455 95 445.392 95 433.54L95 155.46C95 143.608 104.608 134 116.46 134L361.54 134Z" fill="#A7DAFF"/>
</svg>
