<svg width="378" height="150" viewBox="0 0 378 150" fill="none" xmlns="http://www.w3.org/2000/svg">
<path d="M151.5 129C157.299 129 162 133.701 162 139.5V139.5C162 145.299 157.299 150 151.5 150L136.5 150C130.701 150 126 145.299 126 139.5V139.5C126 133.701 130.701 129 136.5 129L151.5 129Z" fill="#FFC8FC"/>
<path d="M95 -1.01115e-06C103.837 -4.52709e-07 111 7.16344 111 16L111 132C111 140.837 103.837 148 95 148L16 148C7.16344 148 4.8615e-06 140.837 5.12866e-06 132L8.63577e-06 16C8.90293e-06 7.16344 7.16345 -6.56218e-06 16 -6.00373e-06L95 -1.01115e-06Z" fill="#FFC8FC"/>
<path d="M199.5 129C205.299 129 210 133.701 210 139.5V139.5C210 145.299 205.299 150 199.5 150L184.5 150C178.701 150 174 145.299 174 139.5V139.5C174 133.701 178.701 129 184.5 129L199.5 129Z" fill="#FFC8FC"/>
<path d="M282 129C287.523 129 292 133.477 292 139V139C292 144.523 287.523 149 282 149L233 149C227.477 149 223 144.523 223 139V139C223 133.477 227.477 129 233 129L282 129Z" fill="#FFC8FC"/>
<rect width="378" height="86" rx="20" transform="matrix(-1 0 0 1 378 29)" fill="#A7DAFF"/>
</svg>
