<svg width="378" height="198" viewBox="0 0 378 198" fill="none" xmlns="http://www.w3.org/2000/svg">
<path d="M226.5 177C220.701 177 216 181.701 216 187.5V187.5C216 193.299 220.701 198 226.5 198L241.5 198C247.299 198 252 193.299 252 187.5V187.5C252 181.701 247.299 177 241.5 177L226.5 177Z" fill="#FFC8FC"/>
<path d="M283 -1.01115e-06C274.163 -4.52709e-07 267 7.16344 267 16L267 180C267 188.837 274.163 196 283 196L362 196C370.837 196 378 188.837 378 180L378 16C378 7.16344 370.837 -6.56218e-06 362 -6.00373e-06L283 -1.01115e-06Z" fill="#FFC8FC"/>
<path d="M178.5 177C172.701 177 168 181.701 168 187.5V187.5C168 193.299 172.701 198 178.5 198L193.5 198C199.299 198 204 193.299 204 187.5V187.5C204 181.701 199.299 177 193.5 177L178.5 177Z" fill="#FFC8FC"/>
<path d="M96 177C90.4772 177 86 181.477 86 187V187C86 192.523 90.4772 197 96 197L145 197C150.523 197 155 192.523 155 187V187C155 181.477 150.523 177 145 177L96 177Z" fill="#FFC8FC"/>
<rect y="39" width="378" height="106" rx="20" fill="#A7DAFF"/>
</svg>
