<svg width="47" height="47" viewBox="0 0 47 47" fill="none" xmlns="http://www.w3.org/2000/svg">
<circle cx="23.5" cy="23.5" r="23.5" fill="#A7DAFF"/>
<path d="M21.3673 12.3543V36H16.6997V17.735L11.0922 19.5177V15.8388L20.8649 12.3543H21.3673ZM24.3734 19.0801V17.816C24.3734 16.6923 24.6003 15.7037 25.0541 14.8502C25.5079 13.9858 26.1508 13.3105 26.9827 12.8243C27.8255 12.3273 28.8141 12.0788 29.9486 12.0788C31.1154 12.0788 32.1149 12.3273 32.9468 12.8243C33.7788 13.3105 34.4216 13.9858 34.8754 14.8502C35.3292 15.7037 35.5561 16.6923 35.5561 17.816V19.0801C35.5561 20.193 35.3292 21.1816 34.8754 22.046C34.4216 22.9103 33.7788 23.591 32.9468 24.088C32.1257 24.5742 31.1371 24.8173 29.981 24.8173C28.8357 24.8173 27.8417 24.5742 26.9989 24.088C26.1562 23.591 25.5079 22.9103 25.0541 22.046C24.6003 21.1816 24.3734 20.193 24.3734 19.0801ZM27.1448 17.816V19.0801C27.1448 19.7284 27.2474 20.3118 27.4527 20.8305C27.658 21.3383 27.9713 21.7434 28.3927 22.046C28.8141 22.3377 29.3435 22.4835 29.981 22.4835C30.6076 22.4835 31.1262 22.3377 31.5368 22.046C31.9582 21.7434 32.2715 21.3383 32.4768 20.8305C32.6821 20.3118 32.7847 19.7284 32.7847 19.0801V17.816C32.7847 17.1785 32.6767 16.6059 32.4606 16.0981C32.2553 15.5903 31.942 15.1851 31.5206 14.8826C31.11 14.58 30.586 14.4288 29.9486 14.4288C29.3219 14.4288 28.7979 14.58 28.3765 14.8826C27.9659 15.1851 27.658 15.5903 27.4527 16.0981C27.2474 16.6059 27.1448 17.1785 27.1448 17.816Z" fill="#B43EAE"/>
</svg>
