<svg width="47" height="47" viewBox="0 0 47 47" fill="none" xmlns="http://www.w3.org/2000/svg">
<circle cx="23.5" cy="23.5" r="23.5" fill="#A7DAFF"/>
<path d="M14.4307 22.1756H16.9265C17.7261 22.1756 18.3851 22.0406 18.9038 21.7704C19.4224 21.4895 19.8059 21.1006 20.0544 20.6036C20.3137 20.0957 20.4434 19.5069 20.4434 18.837C20.4434 18.232 20.3246 17.6971 20.0869 17.2325C19.86 16.7571 19.5088 16.3898 19.0334 16.1305C18.558 15.8604 17.9584 15.7253 17.2345 15.7253C16.6618 15.7253 16.1324 15.8388 15.6462 16.0657C15.16 16.2926 14.771 16.6113 14.4793 17.0219C14.1876 17.4324 14.0417 17.9294 14.0417 18.5129H9.35796C9.35796 17.2163 9.70371 16.0873 10.3952 15.1257C11.0975 14.1641 12.0375 13.4132 13.2152 12.8729C14.3929 12.3327 15.6894 12.0626 17.1048 12.0626C18.7039 12.0626 20.1031 12.3219 21.3024 12.8405C22.5017 13.3483 23.4363 14.0992 24.1061 15.0933C24.776 16.0873 25.111 17.319 25.111 18.7884C25.111 19.5339 24.9381 20.2578 24.5923 20.9601C24.2466 21.6516 23.7496 22.2783 23.1013 22.8401C22.4638 23.3911 21.6859 23.8341 20.7675 24.1691C19.8492 24.4932 18.8173 24.6553 17.672 24.6553H14.4307V22.1756ZM14.4307 25.7249V23.3101H17.672C18.9578 23.3101 20.0869 23.456 21.0593 23.7477C22.0317 24.0394 22.8474 24.4608 23.5065 25.0118C24.1656 25.552 24.6626 26.1949 24.9975 26.9404C25.3324 27.6751 25.4999 28.4909 25.4999 29.3876C25.4999 30.4897 25.2892 31.4729 24.8679 32.3373C24.4465 33.1908 23.8522 33.9147 23.0851 34.509C22.3288 35.1032 21.4428 35.557 20.4272 35.8703C19.4116 36.1729 18.3041 36.3241 17.1048 36.3241C16.1108 36.3241 15.133 36.1891 14.1714 35.919C13.2206 35.638 12.3562 35.2221 11.5783 34.671C10.8112 34.1092 10.1953 33.4069 9.73072 32.5642C9.27693 31.7106 9.05004 30.7004 9.05004 29.5335H13.7338C13.7338 30.1385 13.8851 30.6788 14.1876 31.1542C14.4901 31.6296 14.9061 32.0023 15.4355 32.2724C15.9757 32.5426 16.5754 32.6776 17.2345 32.6776C17.98 32.6776 18.6174 32.5426 19.1469 32.2724C19.6871 31.9915 20.0977 31.6026 20.3786 31.1056C20.6703 30.5977 20.8162 30.0089 20.8162 29.339C20.8162 28.4747 20.6595 27.7832 20.3462 27.2645C20.0328 26.7351 19.5844 26.3462 19.001 26.0977C18.4176 25.8492 17.7261 25.7249 16.9265 25.7249H14.4307ZM27.3734 19.0801V17.816C27.3734 16.6923 27.6003 15.7037 28.0541 14.8502C28.5079 13.9858 29.1508 13.3105 29.9827 12.8243C30.8255 12.3273 31.8141 12.0788 32.9486 12.0788C34.1154 12.0788 35.1149 12.3273 35.9468 12.8243C36.7788 13.3105 37.4216 13.9858 37.8754 14.8502C38.3292 15.7037 38.5561 16.6923 38.5561 17.816V19.0801C38.5561 20.193 38.3292 21.1816 37.8754 22.046C37.4216 22.9103 36.7788 23.591 35.9468 24.088C35.1257 24.5742 34.1371 24.8173 32.981 24.8173C31.8357 24.8173 30.8417 24.5742 29.9989 24.088C29.1562 23.591 28.5079 22.9103 28.0541 22.046C27.6003 21.1816 27.3734 20.193 27.3734 19.0801ZM30.1448 17.816V19.0801C30.1448 19.7284 30.2474 20.3118 30.4527 20.8305C30.658 21.3383 30.9713 21.7434 31.3927 22.046C31.8141 22.3377 32.3435 22.4835 32.981 22.4835C33.6076 22.4835 34.1262 22.3377 34.5368 22.046C34.9582 21.7434 35.2715 21.3383 35.4768 20.8305C35.6821 20.3118 35.7847 19.7284 35.7847 19.0801V17.816C35.7847 17.1785 35.6767 16.6059 35.4606 16.0981C35.2553 15.5903 34.942 15.1851 34.5206 14.8826C34.11 14.58 33.586 14.4288 32.9486 14.4288C32.3219 14.4288 31.7979 14.58 31.3765 14.8826C30.9659 15.1851 30.658 15.5903 30.4527 16.0981C30.2474 16.6059 30.1448 17.1785 30.1448 17.816Z" fill="#B43EAE"/>
</svg>
