<svg width="53" height="53" viewBox="0 0 53 53" fill="none" xmlns="http://www.w3.org/2000/svg">
<circle cx="26.4197" cy="26.42" r="26.4197" fill="#A7DAFF"/>
<path d="M16.9975 24.6876H23.061M20.0292 21.6558V27.7194M30.6404 26.2035H30.6556M35.1881 23.1717H35.2033M23.7416 15.5923H28.444C32.423 15.5923 34.4125 15.5923 35.9741 16.3463C37.3491 17.0102 38.4914 18.0739 39.2516 19.3981C40.115 20.902 40.2568 22.8864 40.5403 26.8554L40.9132 32.0768C41.0961 34.637 39.0684 36.8147 36.5017 36.8147C35.1891 36.8147 33.9443 36.2317 33.104 35.2233L32.5353 34.5409C32.0151 33.9167 31.755 33.6045 31.4588 33.3523C30.838 32.8236 30.0864 32.4716 29.2827 32.3331C28.8994 32.267 28.4931 32.267 27.6806 32.267H24.505C23.6924 32.267 23.2861 32.267 22.9028 32.3331C22.0992 32.4716 21.3476 32.8236 20.7267 33.3523C20.4305 33.6045 20.1704 33.9166 19.6503 34.5409L19.0816 35.2233C18.2413 36.2317 16.9965 36.8147 15.6839 36.8147C13.1171 36.8147 11.0895 34.637 11.2723 32.0768L11.6453 26.8554C11.9288 22.8864 12.0705 20.902 12.9339 19.3981C13.6941 18.0739 14.8365 17.0102 16.2114 16.3463C17.773 15.5923 19.7625 15.5923 23.7416 15.5923Z" stroke="#B43EAE" stroke-width="3.03177" stroke-linecap="round" stroke-linejoin="round"/>
</svg>
