<svg width="39" height="38" viewBox="0 0 39 38" fill="none" xmlns="http://www.w3.org/2000/svg">
<circle cx="19.3298" cy="18.6702" r="18.6702" fill="#A7DAFF"/>
<path d="M16.3721 15.9627H18.8679C19.6675 15.9627 20.3265 15.8277 20.8452 15.5576C21.3638 15.2766 21.7473 14.8877 21.9958 14.3907C22.2552 13.8829 22.3848 13.294 22.3848 12.6241C22.3848 12.0191 22.266 11.4843 22.0283 11.0197C21.8014 10.5443 21.4502 10.1769 20.9748 9.9176C20.4994 9.64748 19.8998 9.51243 19.1759 9.51243C18.6032 9.51243 18.0738 9.62587 17.5876 9.85277C17.1014 10.0797 16.7124 10.3984 16.4207 10.809C16.129 11.2195 15.9831 11.7165 15.9831 12.3H11.2994C11.2994 11.0035 11.6451 9.87438 12.3366 8.91278C13.0389 7.95117 13.9789 7.20026 15.1566 6.66003C16.3343 6.11981 17.6308 5.84969 19.0462 5.84969C20.6453 5.84969 22.0445 6.109 23.2438 6.62762C24.4431 7.13543 25.3777 7.88635 26.0475 8.88036C26.7174 9.87438 27.0524 11.1061 27.0524 12.5755C27.0524 13.321 26.8795 14.0449 26.5337 14.7472C26.188 15.4387 25.691 16.0654 25.0427 16.6272C24.4053 17.1782 23.6273 17.6212 22.7089 17.9562C21.7906 18.2803 20.7587 18.4424 19.6134 18.4424H16.3721V15.9627ZM16.3721 19.512V17.0972H19.6134C20.8992 17.0972 22.0283 17.2431 23.0007 17.5348C23.9731 17.8265 24.7888 18.2479 25.4479 18.7989C26.107 19.3391 26.604 19.982 26.9389 20.7275C27.2739 21.4622 27.4413 22.278 27.4413 23.1747C27.4413 24.2768 27.2306 25.26 26.8093 26.1244C26.3879 26.9779 25.7936 27.7018 25.0265 28.2961C24.2702 28.8903 23.3842 29.3441 22.3686 29.6575C21.353 29.96 20.2455 30.1112 19.0462 30.1112C18.0522 30.1112 17.0744 29.9762 16.1128 29.7061C15.162 29.4252 14.2976 29.0092 13.5197 28.4582C12.7526 27.8963 12.1367 27.194 11.6721 26.3513C11.2183 25.4977 10.9914 24.4875 10.9914 23.3206H15.6752C15.6752 23.9257 15.8265 24.4659 16.129 24.9413C16.4315 25.4167 16.8475 25.7894 17.3769 26.0595C17.9171 26.3297 18.5168 26.4647 19.1759 26.4647C19.9214 26.4647 20.5588 26.3297 21.0883 26.0595C21.6285 25.7786 22.0391 25.3897 22.32 24.8927C22.6117 24.3848 22.7576 23.796 22.7576 23.1261C22.7576 22.2618 22.6009 21.5703 22.2876 21.0517C21.9742 20.5222 21.5258 20.1333 20.9424 19.8848C20.359 19.6363 19.6675 19.512 18.8679 19.512H16.3721Z" fill="#B43EAE"/>
</svg>
