<svg width="47" height="47" viewBox="0 0 47 47" fill="none" xmlns="http://www.w3.org/2000/svg">
<circle cx="23.5" cy="23.5" r="23.5" fill="#A7DAFF"/>
<path d="M25.7916 32.3535V36H9.64969V32.8883L17.2831 24.7039C18.0502 23.8503 18.6553 23.0994 19.0982 22.4511C19.5412 21.7921 19.86 21.2032 20.0544 20.6846C20.2597 20.1552 20.3624 19.6528 20.3624 19.1774C20.3624 18.4643 20.2435 17.8538 20.0058 17.346C19.7681 16.8274 19.417 16.4276 18.9524 16.1467C18.4986 15.8658 17.9368 15.7253 17.2669 15.7253C16.5538 15.7253 15.9379 15.8982 15.4193 16.2439C14.9115 16.5897 14.5225 17.0705 14.2524 17.6863C13.9931 18.3022 13.8634 18.9991 13.8634 19.777H9.17969C9.17969 18.3724 9.51463 17.0867 10.1845 15.9198C10.8544 14.7421 11.7998 13.8075 13.0207 13.116C14.2416 12.4137 15.6894 12.0626 17.3641 12.0626C19.0172 12.0626 20.411 12.3327 21.5455 12.8729C22.6907 13.4023 23.5551 14.1695 24.1385 15.1743C24.7328 16.1683 25.0299 17.3568 25.0299 18.7398C25.0299 19.5177 24.9057 20.2794 24.6572 21.0249C24.4087 21.7596 24.0521 22.4943 23.5875 23.2291C23.1337 23.953 22.5827 24.6877 21.9344 25.4332C21.2862 26.1787 20.5677 26.9512 19.7789 27.7507L15.6786 32.3535H25.7916ZM27.3734 19.0801V17.816C27.3734 16.6923 27.6003 15.7037 28.0541 14.8502C28.5079 13.9858 29.1508 13.3105 29.9827 12.8243C30.8255 12.3273 31.8141 12.0788 32.9486 12.0788C34.1154 12.0788 35.1149 12.3273 35.9468 12.8243C36.7788 13.3105 37.4216 13.9858 37.8754 14.8502C38.3292 15.7037 38.5561 16.6923 38.5561 17.816V19.0801C38.5561 20.193 38.3292 21.1816 37.8754 22.046C37.4216 22.9103 36.7788 23.591 35.9468 24.088C35.1257 24.5742 34.1371 24.8173 32.981 24.8173C31.8357 24.8173 30.8417 24.5742 29.9989 24.088C29.1562 23.591 28.5079 22.9103 28.0541 22.046C27.6003 21.1816 27.3734 20.193 27.3734 19.0801ZM30.1448 17.816V19.0801C30.1448 19.7284 30.2474 20.3118 30.4527 20.8305C30.658 21.3383 30.9713 21.7434 31.3927 22.046C31.8141 22.3377 32.3435 22.4835 32.981 22.4835C33.6076 22.4835 34.1262 22.3377 34.5368 22.046C34.9582 21.7434 35.2715 21.3383 35.4768 20.8305C35.6821 20.3118 35.7847 19.7284 35.7847 19.0801V17.816C35.7847 17.1785 35.6767 16.6059 35.4606 16.0981C35.2553 15.5903 34.942 15.1851 34.5206 14.8826C34.11 14.58 33.586 14.4288 32.9486 14.4288C32.3219 14.4288 31.7979 14.58 31.3765 14.8826C30.9659 15.1851 30.658 15.5903 30.4527 16.0981C30.2474 16.6059 30.1448 17.1785 30.1448 17.816Z" fill="#B43EAE"/>
</svg>
