<svg width="165" height="165" viewBox="0 0 165 165" fill="none" xmlns="http://www.w3.org/2000/svg">
<path d="M82.49 0.000488281C128.018 0.000488281 164.98 36.9635 164.98 82.4905V145.564C164.98 156.281 156.28 164.98 145.564 164.98H19.4165C8.69993 164.98 0 156.281 0 145.564V82.4905C0 36.9635 36.963 0.000488281 82.49 0.000488281Z" fill="#F3F3F3"/>
<path d="M83.1128 9.62665C70.1062 9.62665 57.9053 13.137 47.3728 19.2775C25.8183 31.844 11.2473 55.427 11.0553 82.4911H54.4456C55.79 72.7695 60.9875 64.4724 68.2377 59.6176C72.587 56.7047 77.6752 55.0296 83.1128 55.0296C97.6131 55.0296 109.629 66.9358 111.78 82.4911H155.17C154.885 42.2004 122.734 9.62665 83.1128 9.62665V9.62665Z" fill="#ED1C24"/>
<path d="M83.1129 9.6134C70.1063 9.6134 57.9053 13.1238 47.3729 19.2643C46.3365 19.8685 45.3176 20.498 44.3146 21.1529L69.2247 58.9735C73.3486 56.4501 78.0807 55.0163 83.1129 55.0163C87.4942 55.0163 91.6474 56.1033 95.3712 58.0492L120.333 20.1512C109.47 13.4626 96.7329 9.6134 83.1129 9.6134V9.6134Z" fill="#FFF200"/>
<path d="M44.3132 21.1661C24.4499 34.1193 11.2367 56.7274 11.0553 82.4911H54.4456C55.79 72.7695 60.9875 64.4724 68.2364 59.6176C68.5605 59.4002 68.8899 59.1895 69.2233 58.9867L44.3132 21.1661Z" fill="#5EBB47"/>
<path d="M44.3132 21.1661L69.2233 58.9867C68.8899 59.1895 68.5605 59.4002 68.2364 59.6176C60.9875 64.4724 55.79 72.7695 54.4456 82.4911H11.0553C11.2367 56.7274 24.4499 34.1193 44.3132 21.1661Z" fill="#5EBB47"/>
<path d="M83.1128 9.62665C70.1062 9.62665 57.9053 13.137 47.3728 19.2775C25.8183 31.844 11.2473 55.427 11.0553 82.4911H54.4456C55.79 72.7695 60.9875 64.4724 68.2377 59.6176C72.587 56.7047 77.6752 55.0296 83.1128 55.0296C97.6131 55.0296 109.629 66.9358 111.78 82.4911H155.17C154.885 42.2004 122.734 9.62665 83.1128 9.62665V9.62665Z" stroke="#8F9194" stroke-width="1.73385" stroke-miterlimit="10"/>
<path d="M82.49 94.6196C88.2708 94.6196 92.9571 89.9333 92.9571 84.1524C92.9571 78.3716 88.2708 73.6853 82.49 73.6853C76.7091 73.6853 72.0228 78.3716 72.0228 84.1524C72.0228 89.9333 76.7091 94.6196 82.49 94.6196Z" fill="#58595B"/>
<path d="M82.3246 78.6344L131.255 51.829L133.763 52.5332L133.451 55.6275L87.5595 87.621L82.3246 78.6344Z" fill="#58595B"/>
<path d="M34.0394 131.365H28.9832V142.641H22.6373V111.838H34.0821C37.7205 111.838 40.5267 112.649 42.5019 114.271C44.4759 115.893 45.4642 118.184 45.4642 121.146C45.4642 123.248 45.0093 125.001 44.0997 126.404C43.1901 127.807 41.8111 128.925 39.9638 129.757L46.6272 142.345V142.641H39.8145L34.0394 131.365V131.365ZM28.9832 126.225H34.1034C35.6972 126.225 36.9309 125.82 37.8059 125.009C38.6808 124.198 39.1169 123.08 39.1169 121.656C39.1169 120.231 38.7048 119.06 37.8792 118.228C37.0536 117.396 35.7879 116.98 34.0821 116.98H28.9832V126.225Z" fill="#58595B"/>
<path d="M57.0356 142.641H50.6897V111.838H57.0356V142.641Z" fill="#58595B"/>
<path d="M78.8888 134.56C78.8888 133.361 78.466 132.44 77.6191 131.799C76.7735 131.157 75.2491 130.48 73.0498 129.767C70.8491 129.055 69.1072 128.354 67.8242 127.663C64.3258 125.773 62.5773 123.228 62.5773 120.026C62.5773 118.361 63.0454 116.877 63.9844 115.573C64.922 114.268 66.2691 113.249 68.0256 112.516C69.7821 111.782 71.752 111.415 73.938 111.415C76.124 111.415 78.0979 111.814 79.8198 112.61C81.5403 113.408 82.8767 114.532 83.829 115.985C84.7813 117.437 85.2574 119.088 85.2574 120.935H78.9102C78.9102 119.526 78.466 118.428 77.5778 117.645C76.6895 116.862 75.4411 116.471 73.8327 116.471C72.2242 116.471 71.0745 116.8 70.2156 117.456C69.3553 118.112 68.9245 118.976 68.9245 120.047C68.9245 121.049 69.4287 121.888 70.437 122.565C71.4453 123.243 72.9297 123.876 74.8903 124.47C78.5007 125.556 81.1308 126.903 82.782 128.511C84.4318 130.12 85.2574 132.121 85.2574 134.52C85.2574 137.186 84.2491 139.277 82.2325 140.792C80.2159 142.309 77.5004 143.066 74.0874 143.066C71.7174 143.066 69.5607 142.633 67.6135 141.764C65.6676 140.897 64.1831 139.709 63.1601 138.199C62.1372 136.691 61.6263 134.941 61.6263 132.952H67.9936C67.9936 136.352 70.0249 138.051 74.0861 138.051C75.5945 138.051 76.7722 137.744 77.6191 137.131C78.466 136.517 78.8888 135.661 78.8888 134.561V134.56Z" fill="#58595B"/>
<path d="M113.733 132.38C113.493 135.695 112.269 138.303 110.062 140.208C107.855 142.112 104.946 143.063 101.336 143.063C97.3864 143.063 94.2801 141.734 92.0168 139.076C89.7534 136.417 88.6211 132.768 88.6211 128.128V126.245C88.6211 123.283 89.1426 120.674 90.1869 118.417C91.2312 116.161 92.7223 114.43 94.6616 113.224C96.6008 112.018 98.8535 111.415 101.421 111.415C104.975 111.415 107.838 112.368 110.01 114.271C112.181 116.175 113.438 118.848 113.775 122.289H107.428C107.273 120.301 106.72 118.859 105.768 117.963C104.815 117.068 103.367 116.619 101.42 116.619C99.3043 116.619 97.7211 117.378 96.6702 118.894C95.6192 120.41 95.0804 122.761 95.0523 125.949V128.276C95.0523 131.605 95.5565 134.038 96.5648 135.575C97.5731 137.112 99.1629 137.881 101.336 137.881C103.296 137.881 104.759 137.432 105.725 136.537C106.69 135.643 107.244 134.257 107.385 132.38H113.731H113.733Z" fill="#58595B"/>
<path d="M143.201 127.939C143.201 130.972 142.665 133.63 141.594 135.915C140.522 138.199 138.988 139.962 136.993 141.203C134.998 142.445 132.709 143.065 130.128 143.065C127.547 143.065 125.297 142.451 123.295 141.224C121.292 139.997 119.741 138.245 118.641 135.967C117.54 133.689 116.983 131.069 116.97 128.107V126.584C116.97 123.551 117.516 120.882 118.609 118.576C119.701 116.27 121.246 114.5 123.242 113.267C125.237 112.033 127.519 111.415 130.086 111.415C132.652 111.415 134.934 112.033 136.929 113.267C138.924 114.5 140.469 116.27 141.562 118.576C142.655 120.882 143.201 123.544 143.201 126.562V127.938V127.939ZM136.77 126.542C136.77 123.314 136.191 120.859 135.035 119.18C133.879 117.502 132.229 116.662 130.084 116.662C127.94 116.662 126.311 117.49 125.155 119.148C123.998 120.806 123.413 123.235 123.398 126.436V127.938C123.398 131.082 123.976 133.523 125.133 135.257C126.29 136.992 127.954 137.859 130.126 137.859C132.297 137.859 133.891 137.023 135.034 135.352C136.177 133.681 136.754 131.244 136.769 128.043V126.541L136.77 126.542Z" fill="#58595B"/>
</svg>
