<svg width="450" height="161" viewBox="0 0 450 161" fill="none" xmlns="http://www.w3.org/2000/svg">
<path d="M278.54 60C290.392 60 300 69.6079 300 81.4599L300 139.54C300 151.392 290.392 161 278.54 161L21.4598 161C9.60788 161 -3.99488e-06 151.392 -3.47681e-06 139.54L-9.3804e-07 81.4598C-4.19975e-07 69.6079 9.60791 60 21.4598 60L278.54 60Z" fill="#F9978A"/>
<path d="M164 27C164 12.0883 176.088 0 191 0H423C437.912 0 450 12.0883 450 27V115C450 129.912 437.912 142 423 142H191C176.088 142 164 129.912 164 115V27Z" fill="#BDDBF3"/>
</svg>
