<svg width="450" height="241" viewBox="0 0 450 241" fill="none" xmlns="http://www.w3.org/2000/svg">
<path d="M226.54 -9.3804e-07C238.392 -4.19975e-07 248 9.6079 248 21.4599L248 92.5402C248 104.392 238.392 114 226.54 114L21.4598 114C9.60791 114 -4.56312e-06 104.392 -4.04506e-06 92.5402L-9.3804e-07 21.4598C-4.19975e-07 9.6079 9.60791 -1.04204e-05 21.4599 -9.90238e-06L226.54 -9.3804e-07Z" fill="#F9978A"/>
<path d="M148 107C148 92.0883 160.088 80 175 80H423C437.912 80 450 92.0883 450 107V214C450 228.912 437.912 241 423 241H175C160.088 241 148 228.912 148 214V107Z" fill="#BDDBF3"/>
</svg>
