<svg width="450" height="345" viewBox="0 0 450 345" fill="none" xmlns="http://www.w3.org/2000/svg">
<path d="M278.54 113C290.392 113 300 122.608 300 134.46L300 323.54C300 335.392 290.392 345 278.54 345L21.4598 345C9.60787 345 -9.72107e-06 335.392 -9.203e-06 323.54L-9.3804e-07 134.46C-4.19975e-07 122.608 9.60791 113 21.4598 113L278.54 113Z" fill="#F9978A"/>
<path d="M164 27C164 12.0883 176.088 0 191 0H423C437.912 0 450 12.0883 450 27V299C450 313.912 437.912 326 423 326H191C176.088 326 164 313.912 164 299V27Z" fill="#BDDBF3"/>
</svg>
