<svg width="450" height="576" viewBox="0 0 450 576" fill="none" xmlns="http://www.w3.org/2000/svg">
<path d="M226.54 -9.3804e-07C238.392 -4.19975e-07 248 9.6079 248 21.4599L248 339.54C248 351.392 238.392 361 226.54 361L21.4599 361C9.60791 361 -1.01047e-07 351.392 4.17019e-07 339.54L1.43207e-05 21.4598C1.48388e-05 9.60789 9.60793 -1.04204e-05 21.4599 -9.90238e-06L226.54 -9.3804e-07Z" fill="#F9978A"/>
<path d="M148 200C148 185.088 160.088 173 175 173H423C437.912 173 450 185.088 450 200V549C450 563.912 437.912 576 423 576H175C160.088 576 148 563.912 148 549V200Z" fill="#BDDBF3"/>
</svg>
