<svg width="951" height="215" viewBox="0 0 951 215" fill="none" xmlns="http://www.w3.org/2000/svg">
<path d="M494.54 32C506.392 32 516 41.6079 516 53.4599L516 193.54C516 205.392 506.392 215 494.54 215L21.4598 215C9.60787 215 -7.57921e-06 205.392 -7.06114e-06 193.54L-9.3804e-07 53.4598C-4.19975e-07 41.6079 9.60791 32 21.4598 32L494.54 32Z" fill="#F9978A"/>
<path d="M380 27C380 12.0883 392.088 0 407 0H924C938.912 0 951 12.0883 951 27V53C951 67.9117 938.912 80 924 80H407C392.088 80 380 67.9117 380 53V27Z" fill="#BDDBF3"/>
</svg>
