<svg width="65" height="65" viewBox="0 0 65 65" fill="none" xmlns="http://www.w3.org/2000/svg">
<circle cx="32.5" cy="32.5" r="32.5" fill="url(#paint0_linear_2_18)"/>
<path d="M32.1085 54.8502C31.5015 54.8502 30.8946 54.7086 30.3888 54.4254C26.6057 52.3618 19.9497 50.1769 15.7821 49.6306L15.1954 49.5497C12.5452 49.226 10.3602 46.7376 10.3602 44.0469V19.6079C10.3602 18.0097 10.9874 16.5531 12.1406 15.5011C13.2937 14.449 14.7908 13.9433 16.3688 14.0849C20.8196 14.4288 27.5363 16.6542 31.3397 19.0415L31.8252 19.3247C31.9669 19.4056 32.2703 19.4056 32.3917 19.3449L32.7154 19.1426C36.5188 16.7554 43.2355 14.4895 47.7065 14.1051C47.747 14.1051 47.9088 14.1051 47.9493 14.1051C49.4261 13.9635 50.9435 14.4895 52.0764 15.5415C53.2296 16.5935 53.8567 18.0502 53.8567 19.6484V44.0671C53.8567 46.7781 51.6718 49.2462 49.0013 49.5699L48.3337 49.6509C44.1661 50.1971 37.4899 52.4023 33.7876 54.4456C33.3021 54.7288 32.7154 54.8502 32.1085 54.8502ZM15.8833 17.0993C15.2359 17.0993 14.6492 17.3218 14.1839 17.7467C13.6781 18.212 13.3949 18.8796 13.3949 19.6079V44.0469C13.3949 45.2405 14.4266 46.3937 15.5798 46.5555L16.1867 46.6365C20.7387 47.2434 27.7184 49.5295 31.7645 51.7346C31.9466 51.8156 32.2096 51.8358 32.3108 51.7953C36.357 49.5497 43.3771 47.2434 47.9493 46.6365L48.6371 46.5555C49.7903 46.4139 50.8221 45.2405 50.8221 44.0469V19.6282C50.8221 18.8796 50.5388 18.2322 50.0331 17.7467C49.5071 17.2814 48.8394 17.0588 48.0909 17.0993C48.0504 17.0993 47.8886 17.0993 47.8481 17.0993C43.984 17.4432 37.7529 19.527 34.3541 21.6513L34.0304 21.8738C32.9177 22.5617 31.3397 22.5616 30.2675 21.894L29.7819 21.6108C26.3224 19.4865 20.0913 17.423 16.126 17.0993C16.0451 17.0993 15.9642 17.0993 15.8833 17.0993Z" fill="white"/>
<path d="M32.1084 53.1515C31.279 53.1515 30.5911 52.4637 30.5911 51.6342V21.2878C30.5911 20.4584 31.279 19.7705 32.1084 19.7705C32.9379 19.7705 33.6258 20.4584 33.6258 21.2878V51.6342C33.6258 52.4839 32.9379 53.1515 32.1084 53.1515Z" fill="white"/>
<path d="M23.5103 28.874H18.9584C18.1289 28.874 17.441 28.1861 17.441 27.3567C17.441 26.5272 18.1289 25.8394 18.9584 25.8394H23.5103C24.3398 25.8394 25.0276 26.5272 25.0276 27.3567C25.0276 28.1861 24.3398 28.874 23.5103 28.874Z" fill="white"/>
<path d="M25.0276 34.9433H18.9584C18.1289 34.9433 17.441 34.2555 17.441 33.426C17.441 32.5965 18.1289 31.9087 18.9584 31.9087H25.0276C25.8571 31.9087 26.545 32.5965 26.545 33.426C26.545 34.2555 25.8571 34.9433 25.0276 34.9433Z" fill="white"/>
<defs>
<linearGradient id="paint0_linear_2_18" x1="49.3374" y1="32.1084" x2="9.00603" y2="54.0361" gradientUnits="userSpaceOnUse">
<stop stop-color="#58a4dd"/>
</linearGradient>
</defs>
</svg>
