<svg width="450" height="100" viewBox="0 0 450 100" fill="none" xmlns="http://www.w3.org/2000/svg">
<path d="M278.54 9C290.392 9 300 18.6079 300 30.4599L300 78.5401C300 90.3921 290.392 100 278.54 100L21.4598 100C9.60788 100 -3.55776e-06 90.3921 -3.0397e-06 78.5401L-9.3804e-07 30.4598C-4.19975e-07 18.6079 9.60791 8.99999 21.4598 8.99999L278.54 9Z" fill="#F9978A"/>
<path d="M164 9C164 4.02944 168.029 0 173 0H441C445.971 0 450 4.02944 450 9C450 13.9706 445.971 18 441 18H173C168.029 18 164 13.9706 164 9Z" fill="#BDDBF3"/>
<path d="M116 9C116 4.02944 120.029 0 125 0H141C145.971 0 150 4.02944 150 9C150 13.9706 145.971 18 141 18H125C120.029 18 116 13.9706 116 9Z" fill="#BDDBF3"/>
<path d="M66 9C66 4.02944 70.0294 0 75 0H91C95.9706 0 100 4.02944 100 9C100 13.9706 95.9706 18 91 18H75C70.0294 18 66 13.9706 66 9Z" fill="#BDDBF3"/>
</svg>
