<svg width="451" height="139" viewBox="0 0 451 139" fill="none" xmlns="http://www.w3.org/2000/svg">
<path d="M278.54 38C290.392 38 300 47.6079 300 59.4599L300 117.54C300 129.392 290.392 139 278.54 139L21.4598 139C9.60788 139 -3.99488e-06 129.392 -3.47681e-06 117.54L-9.3804e-07 59.4598C-4.19975e-07 47.6079 9.60791 38 21.4598 38L278.54 38Z" fill="#F9978A"/>
<path d="M165 27C165 12.0883 177.088 0 192 0H424C438.912 0 451 12.0883 451 27V93C451 107.912 438.912 120 424 120H192C177.088 120 165 107.912 165 93V27Z" fill="#BDDBF3"/>
</svg>
