<svg width="506" height="533" viewBox="0 0 506 533" fill="none" xmlns="http://www.w3.org/2000/svg">
<rect x="38" y="114" width="300" height="418" rx="20" fill="#F9978A"/>
<rect x="375" y="200" width="37" height="24" rx="12" fill="#BDDBF3"/>
<rect x="418" y="200" width="70" height="24" rx="12" fill="#BDDBF3"/>
<path d="M466.54 -9.3804e-07C478.392 -4.19975e-07 488 9.60791 488 21.4599L488 169.54C488 181.392 478.392 191 466.54 191L274.46 191C262.608 191 253 181.392 253 169.54L253 21.4598C253 9.60789 262.608 -9.8522e-06 274.46 -9.33414e-06L466.54 -9.3804e-07Z" fill="#BDDBF3"/>
<rect x="113" y="533" width="37" height="24" rx="12" transform="rotate(-180 113 533)" fill="#BDDBF3"/>
<rect x="70" y="533" width="70" height="24" rx="12" transform="rotate(-180 70 533)" fill="#BDDBF3"/>
<path d="M131.5 533C125.149 533 120 527.851 120 521.5C120 515.149 125.149 510 131.5 510L494.5 510C500.851 510 506 515.149 506 521.5C506 527.851 500.851 533 494.5 533L131.5 533Z" fill="#BDDBF3"/>
</svg>
