<svg width="450" height="156" viewBox="0 0 450 156" fill="none" xmlns="http://www.w3.org/2000/svg">
<rect x="188" y="53" width="262" height="103" rx="20" fill="#CAE9FF"/>
<path d="M297 122C306.389 122 314 129.611 314 139V139C314 148.389 306.389 156 297 156L17 156C7.61115 156 -1.49818e-05 148.389 -1.45714e-05 139V139C-1.4161e-05 129.611 7.61115 122 17 122L297 122Z" fill="#FFC8FC"/>
<path d="M245 -7.43094e-07C254.389 -3.32694e-07 262 7.61116 262 17V17C262 26.3888 254.389 34 245 34L227 34C217.611 34 210 26.3888 210 17V17C210 7.61116 217.611 -1.9403e-06 227 -1.5299e-06L245 -7.43094e-07Z" fill="#FFC8FC"/>
<path d="M315 -7.43094e-07C324.389 -3.32694e-07 332 7.61116 332 17V17C332 26.3888 324.389 34 315 34L297 34C287.611 34 280 26.3888 280 17V17C280 7.61116 287.611 -1.9403e-06 297 -1.5299e-06L315 -7.43094e-07Z" fill="#FFC8FC"/>
<path d="M433.5 -7.21238e-07C442.613 -3.22909e-07 450 7.3873 450 16.5V16.5C450 25.6127 442.613 33 433.5 33L366.5 33C357.387 33 350 25.6127 350 16.5V16.5C350 7.3873 357.387 -4.04823e-06 366.5 -3.6499e-06L433.5 -7.21238e-07Z" fill="#FFC8FC"/>
</svg>
