<svg width="314" height="244" viewBox="0 0 314 244" fill="none" xmlns="http://www.w3.org/2000/svg">
<rect width="201" height="244" rx="20" transform="matrix(-1 0 0 1 314 0)" fill="#CAE9FF"/>
<path d="M140.5 223C134.701 223 130 227.701 130 233.5V233.5C130 239.299 134.701 244 140.5 244L155.5 244C161.299 244 166 239.299 166 233.5V233.5C166 227.701 161.299 223 155.5 223L140.5 223Z" fill="#FFC8FC"/>
<path d="M92.5 223C86.701 223 82 227.701 82 233.5V233.5C82 239.299 86.701 244 92.5 244L107.5 244C113.299 244 118 239.299 118 233.5V233.5C118 227.701 113.299 223 107.5 223L92.5 223Z" fill="#FFC8FC"/>
<path d="M10 223C4.47715 223 1.95703e-07 227.477 4.37114e-07 233V233C6.78525e-07 238.523 4.47715 243 10 243L59 243C64.5228 243 69 238.523 69 233V233C69 227.477 64.5228 223 59 223L10 223Z" fill="#FFC8FC"/>
</svg>
