<svg width="454" height="296" viewBox="0 0 454 296" fill="none" xmlns="http://www.w3.org/2000/svg">
<path d="M424.5 275C418.701 275 414 279.701 414 285.5V285.5C414 291.299 418.701 296 424.5 296L439.5 296C445.299 296 450 291.299 450 285.5V285.5C450 279.701 445.299 275 439.5 275L424.5 275Z" fill="#FFC8FC"/>
<path d="M376.5 275C370.701 275 366 279.701 366 285.5V285.5C366 291.299 370.701 296 376.5 296L391.5 296C397.299 296 402 291.299 402 285.5V285.5C402 279.701 397.299 275 391.5 275L376.5 275Z" fill="#FFC8FC"/>
<path d="M328.5 275C322.701 275 318 279.701 318 285.5V285.5C318 291.299 322.701 296 328.5 296L343.5 296C349.299 296 354 291.299 354 285.5V285.5C354 279.701 349.299 275 343.5 275L328.5 275Z" fill="#FFC8FC"/>
<path d="M246 275C240.477 275 236 279.477 236 285V285C236 290.523 240.477 295 246 295L295 295C300.523 295 305 290.523 305 285V285C305 279.477 300.523 275 295 275L246 275Z" fill="#FFC8FC"/>
<rect y="125" width="454" height="141" rx="20" fill="#A7DAFF"/>
<circle cx="237.5" cy="153.5" r="79" stroke="#C96CC4" stroke-width="3"/>
<circle cx="380.5" cy="44.5" r="43" stroke="#C96CC4" stroke-width="3"/>
<circle cx="237.5" cy="153.5" r="73" stroke="#C96CC4" stroke-width="3"/>
</svg>
