<svg width="175" height="88" viewBox="0 0 175 88" fill="none" xmlns="http://www.w3.org/2000/svg">
<path d="M23.9663 39.1852H30.7842C32.9683 39.1852 34.7687 38.8162 36.1854 38.0784C37.6021 37.311 38.6499 36.2484 39.3287 34.8908C40.037 33.5036 40.3912 31.895 40.3912 30.0651C40.3912 28.4123 40.0666 26.9513 39.4172 25.6822C38.7974 24.3835 37.8382 23.38 36.5396 22.6717C35.2409 21.9338 33.6028 21.5649 31.6254 21.5649C30.0611 21.5649 28.6149 21.8748 27.2867 22.4946C25.9585 23.1144 24.896 23.9851 24.0991 25.1066C23.3022 26.2282 22.9038 27.5859 22.9038 29.1797H10.1091C10.1091 25.6379 11.0536 22.5536 12.9426 19.9268C14.861 17.3 17.4288 15.2487 20.6459 13.773C23.863 12.2973 27.4048 11.5594 31.2712 11.5594C35.6394 11.5594 39.4615 12.2678 42.7376 13.6845C46.0138 15.0716 48.5668 17.1229 50.3967 19.8383C52.2266 22.5536 53.1416 25.9183 53.1416 29.9323C53.1416 31.9688 52.6693 33.9463 51.7249 35.8648C50.7804 37.7537 49.4227 39.4655 47.6518 41.0003C45.9105 42.5056 43.7854 43.7157 41.2767 44.6306C38.7679 45.5161 35.9493 45.9588 32.8207 45.9588H23.9663V39.1852ZM23.9663 48.8807V42.2842H32.8207C36.333 42.2842 39.4172 42.6827 42.0736 43.4795C44.7299 44.2764 46.9582 45.4275 48.7586 46.9328C50.559 48.4085 51.9167 50.1646 52.8317 52.2011C53.7466 54.2081 54.2041 56.4365 54.2041 58.8862C54.2041 61.8967 53.6286 64.5826 52.4775 66.9437C51.3264 69.2754 49.7031 71.2529 47.6076 72.8762C45.5415 74.4995 43.1213 75.7391 40.347 76.595C37.5726 77.4215 34.5473 77.8347 31.2712 77.8347C28.5558 77.8347 25.8847 77.4657 23.2579 76.7279C20.6606 75.9605 18.2995 74.8242 16.1744 73.3189C14.0789 71.7841 12.3965 69.8657 11.1274 67.5635C9.88778 65.2319 9.26797 62.4723 9.26797 59.2847H22.0626C22.0626 60.9375 22.4758 62.4132 23.3022 63.7119C24.1286 65.0105 25.2649 66.0288 26.7112 66.7666C28.1869 67.5045 29.825 67.8734 31.6254 67.8734C33.6619 67.8734 35.4032 67.5045 36.8495 66.7666C38.3252 65.9993 39.4468 64.9367 40.2141 63.5791C41.011 62.1919 41.4095 60.5833 41.4095 58.7534C41.4095 56.3922 40.9815 54.5033 40.1256 53.0866C39.2697 51.6404 38.0448 50.5778 36.451 49.899C34.8572 49.2202 32.9683 48.8807 30.7842 48.8807H23.9663ZM70.5901 39.1852H77.408C79.5921 39.1852 81.3925 38.8162 82.8092 38.0784C84.2259 37.311 85.2736 36.2484 85.9525 34.8908C86.6608 33.5036 87.015 31.895 87.015 30.0651C87.015 28.4123 86.6903 26.9513 86.041 25.6822C85.4212 24.3835 84.462 23.38 83.1633 22.6717C81.8647 21.9338 80.2266 21.5649 78.2491 21.5649C76.6849 21.5649 75.2386 21.8748 73.9105 22.4946C72.5823 23.1144 71.5198 23.9851 70.7229 25.1066C69.926 26.2282 69.5275 27.5859 69.5275 29.1797H56.7329C56.7329 25.6379 57.6774 22.5536 59.5663 19.9268C61.4848 17.3 64.0526 15.2487 67.2697 13.773C70.4868 12.2973 74.0285 11.5594 77.895 11.5594C82.2631 11.5594 86.0853 12.2678 89.3614 13.6845C92.6376 15.0716 95.1906 17.1229 97.0205 19.8383C98.8504 22.5536 99.7654 25.9183 99.7654 29.9323C99.7654 31.9688 99.2931 33.9463 98.3486 35.8648C97.4042 37.7537 96.0465 39.4655 94.2756 41.0003C92.5343 42.5056 90.4092 43.7157 87.9004 44.6306C85.3917 45.5161 82.573 45.9588 79.4445 45.9588H70.5901V39.1852ZM70.5901 48.8807V42.2842H79.4445C82.9567 42.2842 86.041 42.6827 88.6973 43.4795C91.3537 44.2764 93.582 45.4275 95.3824 46.9328C97.1828 48.4085 98.5405 50.1646 99.4554 52.2011C100.37 54.2081 100.828 56.4365 100.828 58.8862C100.828 61.8967 100.252 64.5826 99.1013 66.9437C97.9502 69.2754 96.3269 71.2529 94.2313 72.8762C92.1653 74.4995 89.7451 75.7391 86.9707 76.595C84.1963 77.4215 81.1711 77.8347 77.895 77.8347C75.1796 77.8347 72.5085 77.4657 69.8817 76.7279C67.2844 75.9605 64.9232 74.8242 62.7982 73.3189C60.7026 71.7841 59.0203 69.8657 57.7512 67.5635C56.5116 65.2319 55.8918 62.4723 55.8918 59.2847H68.6864C68.6864 60.9375 69.0996 62.4132 69.926 63.7119C70.7524 65.0105 71.8887 66.0288 73.3349 66.7666C74.8107 67.5045 76.4487 67.8734 78.2491 67.8734C80.2857 67.8734 82.027 67.5045 83.4732 66.7666C84.949 65.9993 86.0705 64.9367 86.8379 63.5791C87.6348 62.1919 88.0333 60.5833 88.0333 58.7534C88.0333 56.3922 87.6053 54.5033 86.7494 53.0866C85.8934 51.6404 84.6686 50.5778 83.0748 49.899C81.481 49.2202 79.5921 48.8807 77.408 48.8807H70.5901Z" fill="#A7DAFF"/>
<path d="M106.584 41.165V38.6083C106.584 36.771 106.983 35.0997 107.78 33.5945C108.577 32.0892 109.75 30.8828 111.299 29.9752C112.849 29.0677 114.752 28.6139 117.01 28.6139C119.335 28.6139 121.272 29.0677 122.821 29.9752C124.393 30.8828 125.566 32.0892 126.341 33.5945C127.138 35.0997 127.536 36.771 127.536 38.6083V41.165C127.536 42.958 127.138 44.6072 126.341 46.1124C125.566 47.6177 124.404 48.8241 122.854 49.7317C121.305 50.6392 119.39 51.093 117.11 51.093C114.808 51.093 112.871 50.6392 111.299 49.7317C109.75 48.8241 108.577 47.6177 107.78 46.1124C106.983 44.6072 106.584 42.958 106.584 41.165ZM112.926 38.6083V41.165C112.926 41.9398 113.07 42.6813 113.358 43.3897C113.668 44.0759 114.133 44.6404 114.752 45.0831C115.394 45.5037 116.169 45.714 117.077 45.714C118.029 45.714 118.803 45.5037 119.401 45.0831C119.999 44.6404 120.441 44.0759 120.729 43.3897C121.017 42.6813 121.161 41.9398 121.161 41.165V38.6083C121.161 37.7893 121.006 37.0366 120.696 36.3504C120.408 35.6421 119.954 35.0776 119.335 34.657C118.737 34.2143 117.962 33.9929 117.01 33.9929C116.125 33.9929 115.372 34.2143 114.752 34.657C114.133 35.0776 113.668 35.6421 113.358 36.3504C113.07 37.0366 112.926 37.7893 112.926 38.6083ZM129.694 68.3591V65.8024C129.694 63.9873 130.093 62.3271 130.89 60.8218C131.709 59.3166 132.893 58.1101 134.442 57.2026C136.014 56.295 137.94 55.8412 140.22 55.8412C142.522 55.8412 144.448 56.295 145.997 57.2026C147.547 58.1101 148.72 59.3166 149.517 60.8218C150.314 62.3271 150.712 63.9873 150.712 65.8024V68.3591C150.712 70.1743 150.314 71.8345 149.517 73.3397C148.742 74.845 147.58 76.0514 146.031 76.959C144.481 77.8665 142.566 78.3203 140.286 78.3203C137.984 78.3203 136.047 77.8665 134.476 76.959C132.904 76.0514 131.709 74.845 130.89 73.3397C130.093 71.8345 129.694 70.1743 129.694 68.3591ZM136.069 65.8024V68.3591C136.069 69.156 136.247 69.9086 136.601 70.617C136.955 71.3253 137.442 71.8898 138.062 72.3104C138.704 72.731 139.445 72.9413 140.286 72.9413C141.349 72.9413 142.179 72.731 142.777 72.3104C143.374 71.8898 143.784 71.3253 144.005 70.617C144.249 69.9086 144.37 69.156 144.37 68.3591V65.8024C144.37 65.0055 144.216 64.264 143.906 63.5777C143.596 62.8694 143.131 62.3049 142.511 61.8843C141.913 61.4416 141.15 61.2202 140.22 61.2202C139.29 61.2202 138.516 61.4416 137.896 61.8843C137.298 62.3049 136.844 62.8694 136.534 63.5777C136.224 64.264 136.069 65.0055 136.069 65.8024ZM142.577 36.2176L118.969 74.0038L114.321 71.5467L137.929 33.7605L142.577 36.2176Z" fill="#A7DAFF"/>
</svg>
