<svg width="214" height="21" viewBox="0 0 214 21" fill="none" xmlns="http://www.w3.org/2000/svg">
<path d="M188.5 -6.6357e-07C182.701 -2.97091e-07 178 4.70101 178 10.5V10.5C178 16.299 182.701 21 188.5 21L203.5 21C209.299 21 214 16.299 214 10.5V10.5C214 4.70101 209.299 -1.97801e-06 203.5 -1.61153e-06L188.5 -6.6357e-07Z" fill="#FFC8FC"/>
<path d="M140.5 -6.6357e-07C134.701 -2.97091e-07 130 4.70101 130 10.5V10.5C130 16.299 134.701 21 140.5 21L155.5 21C161.299 21 166 16.299 166 10.5V10.5C166 4.70101 161.299 -1.97801e-06 155.5 -1.61153e-06L140.5 -6.6357e-07Z" fill="#FFC8FC"/>
<path d="M92.5 -6.6357e-07C86.701 -2.97091e-07 82 4.70101 82 10.5V10.5C82 16.299 86.701 21 92.5 21L107.5 21C113.299 21 118 16.299 118 10.5V10.5C118 4.70101 113.299 -1.97801e-06 107.5 -1.61153e-06L92.5 -6.6357e-07Z" fill="#FFC8FC"/>
<path d="M10 -4.37114e-07C4.47715 -1.95703e-07 1.95703e-07 4.47715 4.37114e-07 10V10C6.78525e-07 15.5228 4.47715 20 10 20L59 20C64.5228 20 69 15.5228 69 10V10C69 4.47715 64.5228 -2.82038e-06 59 -2.57897e-06L10 -4.37114e-07Z" fill="#FFC8FC"/>
</svg>
