<svg width="176" height="89" viewBox="0 0 176 89" fill="none" xmlns="http://www.w3.org/2000/svg">
<path d="M23.0121 38.2789H29.83C32.0141 38.2789 33.8144 37.91 35.2312 37.1721C36.6479 36.4047 37.6956 35.3422 38.3745 33.9845C39.0828 32.5973 39.437 30.9888 39.437 29.1589C39.437 27.506 39.1123 26.0451 38.463 24.7759C37.8432 23.4773 36.884 22.4738 35.5853 21.7654C34.2867 21.0276 32.6486 20.6586 30.6711 20.6586C29.1069 20.6586 27.6606 20.9685 26.3325 21.5883C25.0043 22.2082 23.9418 23.0788 23.1449 24.2004C22.348 25.322 21.9495 26.6796 21.9495 28.2734H9.15492C9.15492 24.7317 10.0994 21.6474 11.9883 19.0206C13.9068 16.3938 16.4746 14.3425 19.6917 12.8668C22.9088 11.391 26.4505 10.6532 30.317 10.6532C34.6851 10.6532 38.5073 11.3615 41.7834 12.7782C45.0595 14.1654 47.6126 16.2167 49.4425 18.932C51.2724 21.6474 52.1873 25.0121 52.1873 29.0261C52.1873 31.0626 51.7151 33.0401 50.7706 34.9585C49.8262 36.8474 48.4685 38.5593 46.6976 40.0941C44.9562 41.5993 42.8312 42.8094 40.3224 43.7244C37.8137 44.6098 34.995 45.0525 31.8665 45.0525H23.0121V38.2789ZM23.0121 47.9745V41.378H31.8665C35.3787 41.378 38.463 41.7764 41.1193 42.5733C43.7757 43.3702 46.004 44.5213 47.8044 46.0265C49.6048 47.5023 50.9625 49.2584 51.8774 51.2949C52.7924 53.3019 53.2499 55.5303 53.2499 57.98C53.2499 60.9905 52.6743 63.6763 51.5233 66.0375C50.3722 68.3691 48.7489 70.3466 46.6533 71.9699C44.5873 73.5932 42.1671 74.8329 39.3927 75.6888C36.6183 76.5152 33.5931 76.9284 30.317 76.9284C27.6016 76.9284 24.9305 76.5595 22.3037 75.8216C19.7064 75.0542 17.3452 73.9179 15.2202 72.4127C13.1246 70.8779 11.4423 68.9594 10.1732 66.6573C8.93356 64.3256 8.31375 61.566 8.31375 58.3784H21.1084C21.1084 60.0312 21.5216 61.507 22.348 62.8056C23.1744 64.1043 24.3107 65.1225 25.7569 65.8604C27.2327 66.5983 28.8707 66.9672 30.6711 66.9672C32.7076 66.9672 34.449 66.5983 35.8952 65.8604C37.371 65.093 38.4925 64.0305 39.2599 62.6728C40.0568 61.2856 40.4553 59.6771 40.4553 57.8472C40.4553 55.486 40.0273 53.597 39.1714 52.1803C38.3154 50.7341 37.0906 49.6716 35.4968 48.9927C33.903 48.3139 32.0141 47.9745 29.83 47.9745H23.0121ZM89.4697 10.9188H91.3292V21.1014H90.5765C87.2119 21.1014 84.2161 21.6031 81.5893 22.6066C78.9625 23.6101 76.7341 25.0416 74.9042 26.901C73.1038 28.7309 71.7166 30.9445 70.7426 33.5418C69.7982 36.1391 69.3259 39.0463 69.3259 42.2634V52.9772C69.3259 55.2794 69.5473 57.3159 69.99 59.0868C70.4623 60.8281 71.1263 62.2891 71.9823 63.4697C72.8677 64.6208 73.9007 65.4915 75.0813 66.0818C76.2619 66.6425 77.5901 66.9229 79.0658 66.9229C80.453 66.9229 81.7074 66.6278 82.8289 66.0375C83.98 65.4472 84.954 64.6208 85.7509 63.5583C86.5773 62.4662 87.1971 61.1971 87.6103 59.7509C88.053 58.2751 88.2744 56.6666 88.2744 54.9252C88.2744 53.1838 88.053 51.5753 87.6103 50.0995C87.1971 48.6238 86.5773 47.3547 85.7509 46.2922C84.9245 45.2001 83.921 44.3589 82.7404 43.7686C81.5598 43.1784 80.2316 42.8832 78.7559 42.8832C76.7489 42.8832 74.978 43.3554 73.4432 44.2999C71.938 45.2149 70.7574 46.3955 69.9015 47.8417C69.0456 49.2879 68.5881 50.8079 68.529 52.4017L64.6774 49.9225C64.7659 47.6498 65.2382 45.4953 66.0941 43.4587C66.9795 41.4222 68.1896 39.6218 69.7244 38.0575C71.2887 36.4638 73.1629 35.2241 75.3469 34.3387C77.531 33.4237 79.9955 32.9663 82.7404 32.9663C85.7509 32.9663 88.3924 33.5418 90.6651 34.6929C92.9672 35.8439 94.8857 37.423 96.4204 39.43C97.9552 41.437 99.1063 43.7539 99.8737 46.3807C100.641 49.0075 101.025 51.8114 101.025 54.7924C101.025 57.9209 100.508 60.8281 99.4752 63.514C98.4717 66.1998 97.0107 68.5462 95.0923 70.5532C93.2033 72.5602 90.9307 74.1245 88.2744 75.2461C85.6181 76.3676 82.6371 76.9284 79.3314 76.9284C75.9077 76.9284 72.7939 76.3086 69.99 75.069C67.2156 73.7999 64.825 72.029 62.818 69.7563C60.811 67.4837 59.2614 64.7831 58.1694 61.6546C57.1069 58.526 56.5756 55.1023 56.5756 51.3834V46.425C56.5756 41.2304 57.3282 36.4785 58.8335 32.1694C60.3682 27.8307 62.5671 24.0823 65.43 20.9243C68.2929 17.7367 71.7461 15.2722 75.7897 13.5308C79.8332 11.7895 84.3932 10.9188 89.4697 10.9188Z" fill="#A7DAFF"/>
<path d="M107.538 41.2119V38.6552C107.538 36.8179 107.937 35.1466 108.734 33.6414C109.531 32.1361 110.704 30.9297 112.253 30.0221C113.803 29.1145 115.707 28.6608 117.965 28.6608C120.289 28.6608 122.226 29.1145 123.775 30.0221C125.347 30.9297 126.52 32.1361 127.295 33.6414C128.092 35.1466 128.49 36.8179 128.49 38.6552V41.2119C128.49 43.0049 128.092 44.654 127.295 46.1593C126.52 47.6645 125.358 48.8709 123.808 49.7785C122.259 50.6861 120.344 51.1399 118.064 51.1399C115.762 51.1399 113.825 50.6861 112.253 49.7785C110.704 48.8709 109.531 47.6645 108.734 46.1593C107.937 44.654 107.538 43.0049 107.538 41.2119ZM113.88 38.6552V41.2119C113.88 41.9866 114.024 42.7282 114.312 43.4366C114.622 44.1228 115.087 44.6872 115.707 45.13C116.349 45.5505 117.123 45.7608 118.031 45.7608C118.983 45.7608 119.758 45.5505 120.355 45.13C120.953 44.6872 121.396 44.1228 121.683 43.4366C121.971 42.7282 122.115 41.9866 122.115 41.2119V38.6552C122.115 37.8361 121.96 37.0835 121.65 36.3973C121.362 35.6889 120.909 35.1245 120.289 34.7039C119.691 34.2612 118.916 34.0398 117.965 34.0398C117.079 34.0398 116.326 34.2612 115.707 34.7039C115.087 35.1245 114.622 35.6889 114.312 36.3973C114.024 37.0835 113.88 37.8361 113.88 38.6552ZM130.648 68.406V65.8493C130.648 64.0341 131.047 62.3739 131.844 60.8687C132.663 59.3634 133.847 58.157 135.397 57.2494C136.968 56.3419 138.894 55.8881 141.174 55.8881C143.476 55.8881 145.402 56.3419 146.952 57.2494C148.501 58.157 149.674 59.3634 150.471 60.8687C151.268 62.3739 151.667 64.0341 151.667 65.8493V68.406C151.667 70.2211 151.268 71.8813 150.471 73.3866C149.697 74.8918 148.534 76.0983 146.985 77.0058C145.435 77.9134 143.521 78.3672 141.241 78.3672C138.938 78.3672 137.001 77.9134 135.43 77.0058C133.858 76.0983 132.663 74.8918 131.844 73.3866C131.047 71.8813 130.648 70.2211 130.648 68.406ZM137.024 65.8493V68.406C137.024 69.2029 137.201 69.9555 137.555 70.6639C137.909 71.3722 138.396 71.9367 139.016 72.3573C139.658 72.7779 140.399 72.9882 141.241 72.9882C142.303 72.9882 143.133 72.7779 143.731 72.3573C144.329 71.9367 144.738 71.3722 144.959 70.6639C145.203 69.9555 145.325 69.2029 145.325 68.406V65.8493C145.325 65.0524 145.17 64.3108 144.86 63.6246C144.55 62.9163 144.085 62.3518 143.465 61.9312C142.868 61.4885 142.104 61.2671 141.174 61.2671C140.244 61.2671 139.47 61.4885 138.85 61.9312C138.252 62.3518 137.798 62.9163 137.488 63.6246C137.179 64.3108 137.024 65.0524 137.024 65.8493ZM143.532 36.2645L119.924 74.0507L115.275 71.5936L138.883 33.8074L143.532 36.2645Z" fill="#A7DAFF"/>
</svg>
