<svg width="212" height="116" viewBox="0 0 212 116" fill="none" xmlns="http://www.w3.org/2000/svg">
<path d="M48.7257 15.3792V101.113H31.8021V34.8882L11.4704 41.3521V28.0131L46.904 15.3792H48.7257ZM116.173 77.6671C116.173 83.0341 114.919 87.5588 112.412 91.2412C109.905 94.8845 106.458 97.6463 102.07 99.5267C97.7216 101.368 92.7856 102.289 87.2619 102.289C81.7383 102.289 76.7827 101.368 72.3951 99.5267C68.0075 97.6463 64.5405 94.8845 61.9942 91.2412C59.4478 87.5588 58.1746 83.0341 58.1746 77.6671C58.1746 74.0631 58.8994 70.8116 60.3488 67.9126C61.7983 64.9745 63.8158 62.4673 66.4013 60.391C69.026 58.2756 72.1013 56.6694 75.627 55.5725C79.1527 54.4365 82.9919 53.8684 87.1444 53.8684C92.7072 53.8684 97.6824 54.8478 102.07 56.8066C106.458 58.7653 109.905 61.5271 112.412 65.092C114.919 68.6569 116.173 72.8486 116.173 77.6671ZM99.1319 76.5507C99.1319 73.926 98.6226 71.6734 97.6041 69.793C96.6247 67.8734 95.234 66.4044 93.432 65.3858C91.6299 64.3673 89.5341 63.858 87.1444 63.858C84.7547 63.858 82.6589 64.3673 80.8568 65.3858C79.0548 66.4044 77.6445 67.8734 76.626 69.793C75.6466 71.6734 75.1569 73.926 75.1569 76.5507C75.1569 79.1362 75.6466 81.3692 76.626 83.2496C77.6445 85.13 79.0548 86.5794 80.8568 87.598C82.6981 88.5773 84.8331 89.067 87.2619 89.067C89.6908 89.067 91.7866 88.5773 93.5495 87.598C95.3515 86.5794 96.7227 85.13 97.6628 83.2496C98.6422 81.3692 99.1319 79.1362 99.1319 76.5507ZM114.351 38.2377C114.351 42.5861 113.196 46.4448 110.884 49.8138C108.573 53.1437 105.361 55.7488 101.247 57.6292C97.1732 59.5096 92.5114 60.4498 87.2619 60.4498C81.9733 60.4498 77.2723 59.5096 73.159 57.6292C69.0456 55.7488 65.8333 53.1437 63.522 49.8138C61.2107 46.4448 60.055 42.5861 60.055 38.2377C60.055 33.0666 61.2107 28.7182 63.522 25.1925C65.8725 21.6276 69.0848 18.9245 73.159 17.0833C77.2723 15.2421 81.9342 14.3215 87.1444 14.3215C92.433 14.3215 97.1144 15.2421 101.189 17.0833C105.302 18.9245 108.514 21.6276 110.826 25.1925C113.176 28.7182 114.351 33.0666 114.351 38.2377ZM97.4278 39.0016C97.4278 36.6903 97.0165 34.6924 96.1938 33.0078C95.3711 31.2842 94.1959 29.9522 92.6681 29.012C91.1794 28.0718 89.3382 27.6017 87.1444 27.6017C85.029 27.6017 83.2073 28.0522 81.6795 28.9532C80.1909 29.8543 79.0352 31.1666 78.2125 32.8903C77.429 34.5748 77.0373 36.6119 77.0373 39.0016C77.0373 41.3129 77.429 43.35 78.2125 45.1129C79.0352 46.8366 80.2105 48.1881 81.7383 49.1675C83.2661 50.1468 85.1073 50.6365 87.2619 50.6365C89.4165 50.6365 91.2382 50.1468 92.7268 49.1675C94.2546 48.1881 95.4103 46.8366 96.1938 45.1129C97.0165 43.35 97.4278 41.3129 97.4278 39.0016Z" fill="#A7DAFF"/>
<path d="M120.397 52.9051V49.5115C120.397 47.0729 120.926 44.8546 121.984 42.8567C123.042 40.8588 124.599 39.2575 126.656 38.0529C128.712 36.8483 131.239 36.246 134.236 36.246C137.321 36.246 139.892 36.8483 141.948 38.0529C144.035 39.2575 145.592 40.8588 146.62 42.8567C147.678 44.8546 148.207 47.0729 148.207 49.5115V52.9051C148.207 55.2849 147.678 57.4738 146.62 59.4717C145.592 61.4697 144.049 63.0709 141.993 64.2756C139.936 65.4802 137.394 66.0825 134.368 66.0825C131.312 66.0825 128.742 65.4802 126.656 64.2756C124.599 63.0709 123.042 61.4697 121.984 59.4717C120.926 57.4738 120.397 55.2849 120.397 52.9051ZM128.815 49.5115V52.9051C128.815 53.9334 129.006 54.9177 129.388 55.8579C129.799 56.7687 130.416 57.5179 131.239 58.1055C132.091 58.6638 133.119 58.9429 134.324 58.9429C135.587 58.9429 136.616 58.6638 137.409 58.1055C138.202 57.5179 138.79 56.7687 139.172 55.8579C139.554 54.9177 139.745 53.9334 139.745 52.9051V49.5115C139.745 48.4244 139.539 47.4255 139.128 46.5147C138.746 45.5745 138.144 44.8253 137.321 44.267C136.528 43.6794 135.499 43.3856 134.236 43.3856C133.061 43.3856 132.062 43.6794 131.239 44.267C130.416 44.8253 129.799 45.5745 129.388 46.5147C129.006 47.4255 128.815 48.4244 128.815 49.5115ZM151.071 88.9998V85.6063C151.071 83.197 151.6 80.9934 152.658 78.9955C153.745 76.9976 155.317 75.3963 157.374 74.1917C159.46 72.9871 162.016 72.3847 165.042 72.3847C168.098 72.3847 170.654 72.9871 172.71 74.1917C174.767 75.3963 176.324 76.9976 177.382 78.9955C178.44 80.9934 178.969 83.197 178.969 85.6063V88.9998C178.969 91.409 178.44 93.6126 177.382 95.6105C176.354 97.6084 174.811 99.2097 172.755 100.414C170.698 101.619 168.156 102.221 165.13 102.221C162.075 102.221 159.504 101.619 157.418 100.414C155.332 99.2097 153.745 97.6084 152.658 95.6105C151.6 93.6126 151.071 91.409 151.071 88.9998ZM159.533 85.6063V88.9998C159.533 90.0575 159.768 91.0565 160.238 91.9966C160.708 92.9368 161.355 93.6861 162.177 94.2443C163.029 94.8025 164.014 95.0817 165.13 95.0817C166.54 95.0817 167.642 94.8025 168.436 94.2443C169.229 93.6861 169.772 92.9368 170.066 91.9966C170.389 91.0565 170.551 90.0575 170.551 88.9998V85.6063C170.551 84.5485 170.345 83.5643 169.934 82.6534C169.523 81.7133 168.906 80.964 168.083 80.4058C167.29 79.8182 166.276 79.5244 165.042 79.5244C163.808 79.5244 162.78 79.8182 161.957 80.4058C161.164 80.964 160.561 81.7133 160.15 82.6534C159.739 83.5643 159.533 84.5485 159.533 85.6063ZM168.171 46.3384L136.836 96.492L130.666 93.2307L162.001 43.0771L168.171 46.3384Z" fill="#A7DAFF"/>
</svg>
