<svg width="177" height="88" viewBox="0 0 177 88" fill="none" xmlns="http://www.w3.org/2000/svg">
<path d="M53.2959 52.1406V62.1461H6.85454L6.23473 54.3985L33.1079 11.7645H43.2462L32.2667 30.1374L18.8965 52.1406H53.2959ZM45.991 11.7645V76.2246H33.2407V11.7645H45.991ZM103.546 52.1406V62.1461H57.1051L56.4853 54.3985L83.3584 11.7645H93.4967L82.5172 30.1374L69.1471 52.1406H103.546ZM96.2416 11.7645V76.2246H83.4912V11.7645H96.2416Z" fill="#A7DAFF"/>
<path d="M108.493 40.4404V37.8837C108.493 36.0464 108.891 34.3751 109.688 32.8699C110.485 31.3646 111.658 30.1582 113.208 29.2506C114.757 28.3431 116.661 27.8893 118.919 27.8893C121.243 27.8893 123.18 28.3431 124.729 29.2506C126.301 30.1582 127.474 31.3646 128.249 32.8699C129.046 34.3751 129.444 36.0464 129.444 37.8837V40.4404C129.444 42.2334 129.046 43.8826 128.249 45.3878C127.474 46.8931 126.312 48.0995 124.763 49.007C123.213 49.9146 121.298 50.3684 119.018 50.3684C116.716 50.3684 114.779 49.9146 113.208 49.007C111.658 48.0995 110.485 46.8931 109.688 45.3878C108.891 43.8826 108.493 42.2334 108.493 40.4404ZM114.835 37.8837V40.4404C114.835 41.2152 114.979 41.9567 115.266 42.6651C115.576 43.3513 116.041 43.9158 116.661 44.3585C117.303 44.7791 118.078 44.9894 118.985 44.9894C119.937 44.9894 120.712 44.7791 121.309 44.3585C121.907 43.9158 122.35 43.3513 122.638 42.6651C122.925 41.9567 123.069 41.2152 123.069 40.4404V37.8837C123.069 37.0647 122.914 36.312 122.604 35.6258C122.317 34.9175 121.863 34.353 121.243 33.9324C120.645 33.4897 119.871 33.2683 118.919 33.2683C118.033 33.2683 117.281 33.4897 116.661 33.9324C116.041 34.353 115.576 34.9175 115.266 35.6258C114.979 36.312 114.835 37.0647 114.835 37.8837ZM131.603 67.6345V65.0778C131.603 63.2626 132.001 61.6024 132.798 60.0972C133.617 58.5919 134.801 57.3855 136.351 56.478C137.923 55.5704 139.848 55.1166 142.128 55.1166C144.431 55.1166 146.356 55.5704 147.906 56.478C149.455 57.3855 150.629 58.5919 151.425 60.0972C152.222 61.6024 152.621 63.2626 152.621 65.0778V67.6345C152.621 69.4497 152.222 71.1099 151.425 72.6151C150.651 74.1204 149.489 75.3268 147.939 76.2344C146.39 77.1419 144.475 77.5957 142.195 77.5957C139.893 77.5957 137.956 77.1419 136.384 76.2344C134.812 75.3268 133.617 74.1204 132.798 72.6151C132.001 71.1099 131.603 69.4497 131.603 67.6345ZM137.978 65.0778V67.6345C137.978 68.4314 138.155 69.184 138.509 69.8924C138.863 70.6007 139.35 71.1652 139.97 71.5858C140.612 72.0064 141.354 72.2167 142.195 72.2167C143.257 72.2167 144.087 72.0064 144.685 71.5858C145.283 71.1652 145.692 70.6007 145.914 69.8924C146.157 69.184 146.279 68.4314 146.279 67.6345V65.0778C146.279 64.2809 146.124 63.5393 145.814 62.8531C145.504 62.1448 145.039 61.5803 144.419 61.1597C143.822 60.717 143.058 60.4956 142.128 60.4956C141.199 60.4956 140.424 60.717 139.804 61.1597C139.206 61.5803 138.753 62.1448 138.443 62.8531C138.133 63.5393 137.978 64.2809 137.978 65.0778ZM144.486 35.493L120.878 73.2792L116.229 70.8221L139.837 33.0359L144.486 35.493Z" fill="#A7DAFF"/>
</svg>
