<svg width="177" height="88" viewBox="0 0 177 88" fill="none" xmlns="http://www.w3.org/2000/svg">
<path d="M21.4962 46.8273L11.3136 44.3924L14.9882 11.7196H51.2027V22.035H25.4807L23.8869 36.3348C24.7428 35.8331 26.0415 35.3018 27.7828 34.741C29.5242 34.1508 31.4722 33.8556 33.6267 33.8556C36.7553 33.8556 39.5297 34.3426 41.9499 35.3166C44.3701 36.2906 46.4214 37.7073 48.1037 39.5667C49.8155 41.4261 51.1142 43.6988 51.9996 46.3846C52.8851 49.0704 53.3278 52.1104 53.3278 55.5046C53.3278 58.3676 52.8851 61.0977 51.9996 63.695C51.1142 66.2627 49.7713 68.5649 47.9709 70.6014C46.1705 72.6084 43.9126 74.1874 41.1973 75.3385C38.4819 76.4896 35.2648 77.0651 31.5459 77.0651C28.7716 77.0651 26.0857 76.6519 23.4884 75.8255C20.9207 74.9991 18.6038 73.7742 16.5377 72.1509C14.5012 70.5276 12.8631 68.5649 11.6235 66.2627C10.4134 63.9311 9.77886 61.2748 9.71983 58.2938H22.3816C22.5587 60.1237 23.031 61.7027 23.7983 63.0309C24.5952 64.3295 25.643 65.333 26.9417 66.0414C28.2403 66.7497 29.7603 67.1039 31.5017 67.1039C33.125 67.1039 34.5122 66.794 35.6632 66.1742C36.8143 65.5544 37.744 64.6985 38.4524 63.6064C39.1607 62.4849 39.6772 61.1862 40.0019 59.7105C40.3561 58.2052 40.5332 56.5819 40.5332 54.8406C40.5332 53.0992 40.3266 51.5202 39.9134 50.1034C39.5002 48.6867 38.8656 47.4619 38.0097 46.4289C37.1537 45.3959 36.0617 44.599 34.7335 44.0382C33.4349 43.4774 31.9149 43.197 30.1735 43.197C27.8123 43.197 25.9824 43.5659 24.6838 44.3038C23.4146 45.0417 22.3521 45.8828 21.4962 46.8273ZM100.416 38.2828V49.4394C100.416 54.2798 99.899 58.4561 98.866 61.9684C97.833 65.4511 96.3425 68.314 94.3945 70.5571C92.4761 72.7707 90.1887 74.4088 87.5324 75.4713C84.8761 76.5339 81.9246 77.0651 78.678 77.0651C76.0807 77.0651 73.6605 76.7405 71.4174 76.0911C69.1742 75.4123 67.1525 74.3645 65.3521 72.9478C63.5812 71.5311 62.0464 69.7455 60.7478 67.5909C59.4787 65.4068 58.5047 62.8095 57.8258 59.799C57.147 56.7885 56.8076 53.3353 56.8076 49.4394V38.2828C56.8076 33.4424 57.3241 29.2956 58.3571 25.8424C59.4196 22.3596 60.9101 19.5115 62.8286 17.2979C64.7765 15.0843 67.0787 13.4609 69.735 12.4279C72.3913 11.3654 75.3428 10.8341 78.5894 10.8341C81.1867 10.8341 83.5922 11.1736 85.8058 11.8524C88.0489 12.5017 90.0706 13.52 91.871 14.9072C93.6714 16.2944 95.2062 18.08 96.4753 20.2641C97.7445 22.4187 98.7185 25.0012 99.3973 28.0117C100.076 30.9927 100.416 34.4164 100.416 38.2828ZM87.6209 51.1217V36.5562C87.6209 34.2245 87.4881 32.188 87.2225 30.4467C86.9864 28.7053 86.6174 27.2296 86.1157 26.0195C85.6139 24.7798 84.9941 23.7763 84.2563 23.009C83.5184 22.2416 82.6772 21.6808 81.7327 21.3266C80.7883 20.9724 79.7405 20.7954 78.5894 20.7954C77.1432 20.7954 75.8593 21.0757 74.7378 21.6365C73.6457 22.1973 72.716 23.0975 71.9486 24.3371C71.1812 25.5472 70.5909 27.1705 70.1777 29.207C69.794 31.214 69.6022 33.6638 69.6022 36.5562V51.1217C69.6022 53.4534 69.7203 55.5046 69.9564 57.2755C70.222 59.0464 70.6057 60.5664 71.1075 61.8355C71.6387 63.0752 72.2585 64.0934 72.9669 64.8903C73.7047 65.6577 74.5459 66.2185 75.4904 66.5727C76.4644 66.9268 77.5269 67.1039 78.678 67.1039C80.0947 67.1039 81.3491 66.8235 82.4411 66.2627C83.5627 65.6725 84.5071 64.7575 85.2745 63.5179C86.0714 62.2487 86.6617 60.5959 87.0454 58.5594C87.4291 56.5229 87.6209 54.0437 87.6209 51.1217Z" fill="#A7DAFF"/>
<path d="M108.493 40.3955V37.8388C108.493 36.0015 108.891 34.3302 109.688 32.825C110.485 31.3197 111.658 30.1133 113.208 29.2057C114.757 28.2981 116.661 27.8443 118.919 27.8443C121.243 27.8443 123.18 28.2981 124.729 29.2057C126.301 30.1133 127.474 31.3197 128.249 32.825C129.046 34.3302 129.444 36.0015 129.444 37.8388V40.3955C129.444 42.1885 129.046 43.8376 128.249 45.3429C127.474 46.8481 126.312 48.0545 124.763 48.9621C123.213 49.8697 121.298 50.3235 119.018 50.3235C116.716 50.3235 114.779 49.8697 113.208 48.9621C111.658 48.0545 110.485 46.8481 109.688 45.3429C108.891 43.8376 108.493 42.1885 108.493 40.3955ZM114.835 37.8388V40.3955C114.835 41.1702 114.978 41.9118 115.266 42.6201C115.576 43.3064 116.041 43.8708 116.661 44.3136C117.303 44.7341 118.078 44.9444 118.985 44.9444C119.937 44.9444 120.712 44.7341 121.309 44.3136C121.907 43.8708 122.35 43.3064 122.638 42.6201C122.925 41.9118 123.069 41.1702 123.069 40.3955V37.8388C123.069 37.0197 122.914 36.2671 122.604 35.5809C122.317 34.8725 121.863 34.3081 121.243 33.8875C120.645 33.4448 119.871 33.2234 118.919 33.2234C118.033 33.2234 117.281 33.4448 116.661 33.8875C116.041 34.3081 115.576 34.8725 115.266 35.5809C114.978 36.2671 114.835 37.0197 114.835 37.8388ZM131.603 67.5896V65.0329C131.603 63.2177 132.001 61.5575 132.798 60.0523C133.617 58.547 134.801 57.3406 136.351 56.433C137.922 55.5255 139.848 55.0717 142.128 55.0717C144.43 55.0717 146.356 55.5255 147.906 56.433C149.455 57.3406 150.629 58.547 151.425 60.0523C152.222 61.5575 152.621 63.2177 152.621 65.0329V67.5896C152.621 69.4047 152.222 71.0649 151.425 72.5702C150.651 74.0754 149.489 75.2819 147.939 76.1894C146.389 77.097 144.475 77.5508 142.195 77.5508C139.893 77.5508 137.956 77.097 136.384 76.1894C134.812 75.2819 133.617 74.0754 132.798 72.5702C132.001 71.0649 131.603 69.4047 131.603 67.5896ZM137.978 65.0329V67.5896C137.978 68.3865 138.155 69.1391 138.509 69.8475C138.863 70.5558 139.35 71.1203 139.97 71.5409C140.612 71.9615 141.354 72.1717 142.195 72.1717C143.257 72.1717 144.087 71.9615 144.685 71.5409C145.283 71.1203 145.692 70.5558 145.914 69.8475C146.157 69.1391 146.279 68.3865 146.279 67.5896V65.0329C146.279 64.236 146.124 63.4944 145.814 62.8082C145.504 62.0999 145.039 61.5354 144.419 61.1148C143.822 60.6721 143.058 60.4507 142.128 60.4507C141.199 60.4507 140.424 60.6721 139.804 61.1148C139.206 61.5354 138.753 62.0999 138.443 62.8082C138.133 63.4944 137.978 64.236 137.978 65.0329ZM144.486 35.4481L120.878 73.2343L116.229 70.7772L139.837 32.991L144.486 35.4481Z" fill="#A7DAFF"/>
</svg>
