<svg width="166" height="21" viewBox="0 0 166 21" fill="none" xmlns="http://www.w3.org/2000/svg">
<path d="M140.5 21C134.701 21 130 16.299 130 10.5V10.5C130 4.70101 134.701 -1.98655e-06 140.5 -1.1131e-06L155.5 1.14619e-06C161.299 2.01964e-06 166 4.70101 166 10.5V10.5C166 16.299 161.299 21 155.5 21L140.5 21Z" fill="#FFC8FC"/>
<path d="M92.5 21C86.701 21 82 16.299 82 10.5V10.5C82 4.70101 86.701 -1.98655e-06 92.5 -1.1131e-06L107.5 1.14619e-06C113.299 2.01964e-06 118 4.70101 118 10.5V10.5C118 16.299 113.299 21 107.5 21L92.5 21Z" fill="#FFC8FC"/>
<path d="M10 21C4.47715 21 5.87108e-07 16.5228 1.31134e-06 11V11C2.03558e-06 5.47715 4.47716 0.999997 10 0.999998L59 1C64.5229 1.00001 69 5.47716 69 11V11C69 16.5229 64.5228 21 59 21L10 21Z" fill="#FFC8FC"/>
</svg>
