<svg width="53" height="53" viewBox="0 0 53 53" fill="none" xmlns="http://www.w3.org/2000/svg">
<circle cx="26.5502" cy="26.4197" r="26.4197" fill="#A7DAFF"/>
<path d="M12.5157 22.4214L18.0604 26.8572C18.7991 27.4481 19.1685 27.7436 19.5798 27.9537C19.9446 28.1401 20.3331 28.2764 20.7345 28.3588C21.1869 28.4516 21.6599 28.4516 22.6059 28.4516H29.6282C30.5742 28.4516 31.0472 28.4516 31.4996 28.3588C31.901 28.2764 32.2894 28.1401 32.6543 27.9537C33.0656 27.7436 33.435 27.4481 34.1737 26.8571L39.7184 22.4214M12.5157 22.4214C12.4741 23.13 12.4741 24.0012 12.4741 25.1167V31.7866C12.4741 34.3335 12.4741 35.6069 12.9697 36.5797C13.4057 37.4354 14.1014 38.1311 14.9571 38.5671C15.9299 39.0628 17.2034 39.0628 19.7503 39.0628H32.4838C35.0307 39.0628 36.3042 39.0628 37.2769 38.5671C38.1326 38.1311 38.8283 37.4354 39.2643 36.5797C39.76 35.6069 39.76 34.3335 39.76 31.7866V25.1167C39.76 24.0012 39.76 23.13 39.7184 22.4214M12.5157 22.4214C12.5691 21.5119 12.6911 20.8702 12.9697 20.3235C13.4057 19.4678 14.1014 18.7721 14.9571 18.3361C15.9299 17.8404 17.2034 17.8404 19.7503 17.8404H20.0535M39.7184 22.4214C39.6649 21.5119 39.5429 20.8702 39.2643 20.3235C38.8283 19.4678 38.1326 18.7721 37.2769 18.3361C36.3042 17.8404 35.0307 17.8404 32.4838 17.8404H32.1806M20.0535 17.8404V16.3245C20.0535 13.8129 22.0895 11.7769 24.6012 11.7769H27.6329C30.1445 11.7769 32.1806 13.8129 32.1806 16.3245V17.8404M20.0535 17.8404H32.1806" stroke="#B43EAE" stroke-width="3.03177" stroke-linecap="round" stroke-linejoin="round"/>
</svg>
