<svg width="53" height="53" viewBox="0 0 53 53" fill="none" xmlns="http://www.w3.org/2000/svg">
<circle cx="26.4197" cy="26.4197" r="26.4197" fill="#A7DAFF"/>
<path d="M29.0184 40.0632V30.9678H22.9549V40.0632M36.5979 23.052V32.7869C36.5979 35.3338 36.5979 36.6073 36.1022 37.5801C35.6662 38.4358 34.9705 39.1315 34.1148 39.5675C33.142 40.0632 31.8685 40.0632 29.3216 40.0632H22.6517C20.1048 40.0632 18.8313 40.0632 17.8585 39.5675C17.0028 39.1315 16.3071 38.4358 15.8711 37.5801C15.3755 36.6073 15.3755 35.3338 15.3755 32.7869V23.051M39.6296 26.4202L31.3935 17.2703C29.5203 15.1893 28.5838 14.1488 27.4808 13.7647C26.512 13.4273 25.4576 13.4274 24.4889 13.7649C23.3859 14.1492 22.4495 15.1898 20.5767 17.2711L12.3437 26.4202" stroke="#B43EAE" stroke-width="3.03177" stroke-linecap="round" stroke-linejoin="round"/>
</svg>
