<svg width="102" height="134" viewBox="0 0 102 134" fill="none" xmlns="http://www.w3.org/2000/svg">
<path d="M2.9404 104.81C2.49307 103.381 3.01399 102.37 4.1449 101.429C23.4716 85.3481 42.7812 69.2455 62.0749 53.1238C63.2011 52.1838 64.2883 51.8469 65.615 52.5474L74.4949 63.1962C74.9852 64.6248 74.4762 65.6537 73.348 66.593C54.0082 82.6919 34.683 98.8071 15.3704 114.938C14.2435 115.88 13.1384 116.197 11.8209 115.457L2.9404 104.81ZM60.3272 71.1634L55.2747 65.1036L30.7876 85.5218L35.8401 91.5815L60.3272 71.1634V71.1634ZM27.0417 88.6729L8.59872 104.051L13.626 110.08L32.069 94.7014L27.0417 88.6729V88.6729ZM68.8909 64.0125L63.8523 57.9711L59.0227 61.9982L64.0613 68.0397L68.8909 64.0125Z" fill="#A7DAFF"/>
<path d="M85.1459 22.0387C83.808 22.7271 82.3613 23.263 81.1561 24.1327C77.9863 26.4178 76.9301 30.3683 78.2925 34.2362C78.9879 36.2133 79.7562 38.1686 80.4057 40.1612C81.89 44.7129 80.1435 49.3794 76.0622 51.8781C75.5899 52.1682 75.0806 52.4094 74.565 52.6169C73.2271 53.1569 71.8858 52.6403 71.3551 51.4113C70.8147 50.1587 71.3358 48.882 72.6481 48.2476C75.18 47.0253 76.3654 45.1721 76.1007 42.7531C76.0341 42.1561 75.8356 41.5626 75.6363 40.9914C74.9392 38.9867 74.1436 37.0129 73.5154 34.9849C71.4105 28.1896 74.937 20.9836 81.577 18.4263C82.9153 17.9112 84.264 17.4245 85.6178 16.9553C87.0073 16.4738 88.3709 17.0814 88.8278 18.3477C89.2919 19.6322 88.6356 20.9158 87.238 21.4463C86.5685 21.7014 85.8913 21.9404 85.2186 22.1855L85.1432 22.04L85.1459 22.0387Z" fill="#A7DAFF"/>
<path d="M65.4676 17.4497C65.7152 17.0746 65.929 16.6675 66.2198 16.33C67.0137 15.4138 68.3242 15.2626 69.3187 15.9352C70.3111 16.6071 70.6397 17.8669 70.1096 18.9627C69.3487 20.534 68.4157 22.0498 67.8642 23.6917C66.3167 28.297 66.6694 32.8416 68.7486 37.2359C69.1467 38.0766 69.4669 38.9083 69.0347 39.8199C68.6128 40.7081 67.903 41.2215 66.9034 41.2357C65.8749 41.2489 65.1423 40.7485 64.6794 39.8356C62.8924 36.3082 62.0397 32.5661 62.1631 28.6125C62.2885 24.6079 63.384 20.8804 65.4649 17.451L65.4676 17.4497Z" fill="#A7DAFF"/>
<path d="M90.3175 42.9356C88.9253 43.6637 87.5426 43.3307 86.8728 42.1073C86.1753 40.8338 86.6393 39.5079 88.0633 38.7144C91.2268 36.9514 92.5722 33.2817 91.2934 29.8974C91.2 29.6489 91.0937 29.4048 90.9968 29.1596C90.4871 27.8704 90.981 26.5167 92.1521 25.9907C93.3475 25.4528 94.7751 25.9027 95.3012 27.1706C95.8136 28.4066 96.2646 29.7158 96.4513 31.0343C97.1326 35.8306 94.5639 40.7126 90.3175 42.9356V42.9356Z" fill="#A7DAFF"/>
</svg>
