<svg width="47" height="47" viewBox="0 0 47 47" fill="none" xmlns="http://www.w3.org/2000/svg">
<circle cx="23.5" cy="23.5" r="23.5" fill="white"/>
<path d="M23.2169 39.6611C22.778 39.6611 22.3392 39.5587 21.9734 39.3539C19.2379 37.8618 14.4251 36.2819 11.4117 35.8869L10.9874 35.8284C9.07109 35.5943 7.49121 33.795 7.49121 31.8495V14.1782C7.49121 13.0226 7.9447 11.9693 8.77852 11.2086C9.61235 10.4479 10.6949 10.0822 11.8359 10.1846C15.0542 10.4333 19.9108 12.0424 22.661 13.7686L23.0121 13.9734C23.1145 14.0319 23.3339 14.0319 23.4217 13.988L23.6557 13.8417C26.4059 12.1156 31.2625 10.4772 34.4954 10.1993C34.5247 10.1993 34.6417 10.1993 34.671 10.1993C35.7389 10.0969 36.836 10.4772 37.6552 11.2379C38.489 11.9986 38.9425 13.0518 38.9425 14.2075V31.8641C38.9425 33.8243 37.3626 35.609 35.4317 35.843L34.9489 35.9015C31.9355 36.2965 27.108 37.891 24.431 39.3685C24.0799 39.5733 23.6557 39.6611 23.2169 39.6611ZM11.4848 12.3643C11.0167 12.3643 10.5925 12.5252 10.256 12.8324C9.89029 13.1688 9.68549 13.6516 9.68549 14.1782V31.8495C9.68549 32.7125 10.4315 33.5464 11.2654 33.6634L11.7042 33.7219C14.9956 34.1608 20.0425 35.8138 22.9682 37.4083C23.0998 37.4668 23.29 37.4814 23.3631 37.4522C26.2889 35.8284 31.3649 34.1608 34.671 33.7219L35.1684 33.6634C36.0022 33.561 36.7482 32.7125 36.7482 31.8495V14.1928C36.7482 13.6516 36.5434 13.1835 36.1777 12.8324C35.7974 12.4959 35.3146 12.335 34.7734 12.3643C34.7441 12.3643 34.6271 12.3643 34.5978 12.3643C31.8038 12.613 27.2982 14.1197 24.8406 15.6557L24.6066 15.8166C23.802 16.314 22.661 16.314 21.8857 15.8312L21.5346 15.6264C19.0331 14.0904 14.5275 12.5983 11.6603 12.3643C11.6018 12.3643 11.5433 12.3643 11.4848 12.3643Z" fill="#B43EAE"/>
<path d="M23.2169 38.4322C22.6171 38.4322 22.1198 37.9348 22.1198 37.3351V15.3923C22.1198 14.7925 22.6171 14.2952 23.2169 14.2952C23.8167 14.2952 24.314 14.7925 24.314 15.3923V37.3351C24.314 37.9495 23.8167 38.4322 23.2169 38.4322Z" fill="#B43EAE"/>
<path d="M16.9998 20.8781H13.7083C13.1086 20.8781 12.6112 20.3807 12.6112 19.781C12.6112 19.1812 13.1086 18.6838 13.7083 18.6838H16.9998C17.5995 18.6838 18.0969 19.1812 18.0969 19.781C18.0969 20.3807 17.5995 20.8781 16.9998 20.8781Z" fill="#B43EAE"/>
<path d="M18.0969 25.2665H13.7083C13.1086 25.2665 12.6112 24.7692 12.6112 24.1694C12.6112 23.5696 13.1086 23.0723 13.7083 23.0723H18.0969C18.6967 23.0723 19.194 23.5696 19.194 24.1694C19.194 24.7692 18.6967 25.2665 18.0969 25.2665Z" fill="#B43EAE"/>
</svg>
