<svg width="53" height="53" viewBox="0 0 53 53" fill="none" xmlns="http://www.w3.org/2000/svg">
<circle cx="26.4197" cy="26.4197" r="26.4197" fill="#A7DAFF"/>
<path d="M18.7104 40.0628C17.0124 40.0628 16.1635 40.0628 15.5149 39.7324C14.9445 39.4417 14.4807 38.9779 14.19 38.4074C13.8596 37.7589 13.8596 36.9099 13.8596 35.212V17.6277C13.8596 15.9297 13.8596 15.0808 14.19 14.4322C14.4807 13.8618 14.9445 13.398 15.5149 13.1073C16.1635 12.7769 17.0124 12.7769 18.7104 12.7769H33.2629C34.9609 12.7769 35.8098 12.7769 36.4584 13.1073C37.0288 13.398 37.4926 13.8618 37.7833 14.4322C38.1137 15.0808 38.1137 15.9297 38.1137 17.6277V18.8404M19.9231 18.8404H29.0184M19.9231 30.9675H21.439M19.9231 24.9039H25.9866M24.767 39.9029L26.7601 39.509C27.8355 39.2965 28.3733 39.1902 28.8747 38.9945C29.3198 38.8207 29.7428 38.595 30.1348 38.3219C30.5766 38.0143 30.9642 37.6267 31.7393 36.8515L39.5438 29.0471C40.5856 28.0053 40.5856 26.3162 39.5438 25.2744C38.502 24.2326 36.8129 24.2326 35.7711 25.2744L27.8332 33.2122C27.1069 33.9386 26.7437 34.3018 26.4504 34.7135C26.19 35.079 25.971 35.4722 25.7973 35.886C25.6018 36.3522 25.4842 36.8522 25.2491 37.8521L24.767 39.9029Z" stroke="#B43EAE" stroke-width="3.03177" stroke-linecap="round" stroke-linejoin="round"/>
</svg>
