<svg width="39" height="38" viewBox="0 0 39 38" fill="none" xmlns="http://www.w3.org/2000/svg">
<circle cx="19.3298" cy="18.6702" r="18.6702" fill="#A7DAFF"/>
<path d="M27.733 26.1406V29.7871H11.5911V26.6754L19.2245 18.491C19.9916 17.6374 20.5967 16.8865 21.0396 16.2382C21.4826 15.5792 21.8014 14.9903 21.9958 14.4717C22.2011 13.9423 22.3038 13.4399 22.3038 12.9645C22.3038 12.2514 22.1849 11.6409 21.9472 11.1331C21.7095 10.6145 21.3584 10.2147 20.8938 9.9338C20.44 9.65289 19.8782 9.51243 19.2083 9.51243C18.4952 9.51243 17.8793 9.6853 17.3607 10.031C16.8529 10.3768 16.4639 10.8576 16.1938 11.4734C15.9345 12.0893 15.8049 12.7862 15.8049 13.5641H11.1211C11.1211 12.1595 11.456 10.8738 12.1259 9.70691C12.7958 8.52922 13.7412 7.59462 14.9621 6.90314C16.183 6.20084 17.6308 5.84969 19.3055 5.84969C20.9586 5.84969 22.3524 6.11981 23.4869 6.66003C24.6321 7.18946 25.4965 7.95658 26.08 8.9614C26.6742 9.95541 26.9713 11.1439 26.9713 12.5269C26.9713 13.3048 26.8471 14.0665 26.5986 14.812C26.3501 15.5468 25.9935 16.2815 25.5289 17.0162C25.0751 17.7401 24.5241 18.4748 23.8758 19.2203C23.2276 19.9658 22.5091 20.7383 21.7203 21.5379L17.62 26.1406H27.733Z" fill="#B43EAE"/>
</svg>
