<svg width="84" height="91" viewBox="0 0 84 91" fill="none" xmlns="http://www.w3.org/2000/svg">
<g clip-path="url(#clip0_21_169)">
<path d="M41.6777 90.9999C40.4893 90.5925 40.1116 89.6975 40.1205 88.5131C40.1383 85.8772 40.1205 83.2413 40.1138 80.6053C40.1138 80.5497 40.085 80.4918 40.0383 80.3159C39.774 80.4116 39.5141 80.494 39.2653 80.6009C37.226 81.4625 35.2046 82.3663 33.1431 83.17C32.5811 83.3882 31.9036 83.3058 31.2793 83.3771C30.9994 83.4082 30.704 83.4305 30.453 83.5441C29.9154 83.7867 29.4311 84.1763 28.8758 84.3366C28.3693 84.4835 27.6696 84.6194 27.2853 84.3834C26.5944 83.9559 26.0035 84.0695 25.3593 84.2832C24.2286 84.6616 23.1668 84.813 22.3204 83.6865C22.2183 83.5507 21.8962 83.5463 21.674 83.5374C21.1142 83.5151 20.5233 83.6353 19.9969 83.4973C19.4326 83.3481 18.7373 83.0966 18.4463 82.658C18.0687 82.088 17.6288 81.8832 17.0468 81.7541C16.5581 81.645 16.0605 81.5448 15.594 81.3667C15.2164 81.222 14.701 81.0506 14.5633 80.7478C14.1257 79.7749 13.2571 79.6747 12.4174 79.4566C12.0176 79.3519 11.6155 79.254 11.2334 79.1004C10.436 78.7798 10.0294 78.1675 10.0517 77.3037C10.0739 76.48 10.4959 75.9034 11.2601 75.6117C11.6999 75.4448 12.1575 75.3179 12.6174 75.211C13.3904 75.0307 14.0391 74.8236 14.5611 74.0511C14.9076 73.5391 15.8051 73.361 16.487 73.1272C17.2756 72.8578 18.0709 72.7821 18.5929 71.8983C18.8395 71.4797 19.697 71.2816 20.2967 71.2393C21.9761 71.1191 21.9806 71.1725 23.1623 70.2731C22.8736 69.6074 22.6337 68.9774 22.3249 68.3829C22.2094 68.1603 21.9628 67.9577 21.7273 67.8553C20.239 67.2075 18.7329 66.5997 17.2423 65.9585C16.176 65.4999 15.9006 64.9923 15.8895 63.8235C15.8873 63.5697 15.6918 63.2291 15.4785 63.0821C14.1923 62.1894 12.8684 61.3523 11.5689 60.4774C10.5781 59.8095 10.3871 59.1995 10.6448 58.0485C10.6981 57.808 10.5737 57.4362 10.3982 57.2515C9.33636 56.1383 8.23232 55.0652 7.15272 53.9699C6.17753 52.9836 6.10645 52.4738 6.60404 51.2048C6.69289 50.9755 6.58405 50.5881 6.43743 50.3544C5.52222 48.9051 4.56924 47.4758 3.62736 46.042C3.12088 45.2717 2.94539 44.5014 3.44521 43.631C3.5585 43.4328 3.45632 43.012 3.31193 42.7827C2.41226 41.3579 1.46816 39.9598 0.548505 38.5461C-0.182336 37.424 -0.184557 36.5268 0.521848 35.7966C1.25491 35.0397 2.15902 35.0352 3.33192 35.8011C4.89134 36.8185 6.44188 37.8448 8.0635 38.9112C9.14532 38.0073 10.1516 38.3947 11.1757 39.1093C12.4596 40.0065 13.7747 40.8592 15.1031 41.6874C15.343 41.8366 15.7651 41.8944 16.0183 41.7876C17.0113 41.3735 17.6999 41.4425 18.5152 42.2395C19.6592 43.3549 20.7588 44.5148 21.9206 45.6101C22.1338 45.8105 22.5781 45.904 22.878 45.8483C23.8754 45.6636 24.5574 45.8906 25.1616 46.7901C26.0191 48.0657 26.8632 49.3525 27.6896 50.6505C27.9317 51.0312 28.1827 51.1692 28.6692 51.1959C29.2645 51.2293 29.8465 51.5365 30.4441 51.7302L31.7058 50.1807C31.1216 48.9607 30.4619 47.5826 29.8021 46.2046C29.38 45.3252 28.958 44.4458 28.5359 43.5664C27.6607 41.7319 27.9895 40.8859 29.9243 40.1268C29.329 37.6088 28.7136 35.0864 28.1383 32.5551C27.8695 31.3707 28.5492 30.3845 29.6888 30.2086C29.9176 30.173 30.1509 30.1641 30.4819 30.1351V26.4929C30.4819 25.3375 30.4819 24.182 30.4819 23.0266C30.4819 20.6756 30.8817 20.237 33.2919 20.0433C33.7695 18.073 34.2582 16.0716 34.7425 14.0701C34.9247 13.3221 35.0935 12.5719 35.2801 11.8283C35.5933 10.5904 36.1353 10.0984 37.3749 10.0828C37.9658 10.0762 38.1835 9.87358 38.3101 9.31255C38.8721 6.83245 39.4807 4.36348 40.0761 1.89229C40.3826 0.650016 41.0157 0.0266524 41.9909 -6.31758e-05C42.9928 -0.0267788 43.677 0.623301 43.9835 1.89897C44.5789 4.37016 45.1875 6.83913 45.7495 9.31923C45.8784 9.88471 46.1005 10.0784 46.687 10.0873C47.9243 10.1029 48.4752 10.5927 48.7795 11.8372C49.4459 14.5622 50.0968 17.2916 50.7632 20.05C51.0254 20.0678 51.2564 20.0834 51.4852 20.1012C52.8913 20.2058 53.5644 20.9027 53.5733 22.3253C53.5866 24.8989 53.5777 27.4725 53.5777 30.1017C53.8132 30.1396 54.0065 30.1752 54.1997 30.1975C55.4726 30.3422 56.2101 31.3084 55.9258 32.5662C55.3926 34.9306 54.8128 37.286 54.2531 39.6459C54.2131 39.8129 54.1842 39.9843 54.1509 40.1446C56.0702 40.8815 56.4034 41.7297 55.5237 43.5708C54.453 45.8083 53.38 48.0457 52.3493 50.1985C52.8336 50.7841 53.2712 51.3139 53.5866 51.6946C54.2664 51.5276 54.9683 51.3829 55.6503 51.1781C55.8969 51.1046 56.1657 50.931 56.3078 50.7239C57.1586 49.4772 57.9695 48.206 58.8025 46.9481C59.5422 45.8328 60.0154 45.6747 61.346 45.9285C61.5903 45.9752 61.9524 45.8127 62.1479 45.6257C63.2786 44.5393 64.3693 43.4106 65.4867 42.313C66.3819 41.4336 66.935 41.3757 68.1168 41.8521C68.3478 41.9456 68.7344 41.8499 68.9654 41.703C70.3626 40.8169 71.7421 39.9019 73.115 38.9758C73.9546 38.4081 74.781 38.1209 75.7451 38.7242C75.9073 38.8266 76.2938 38.7086 76.5004 38.5773C78.0198 37.6066 79.5037 36.5825 81.0298 35.623C82.2716 34.8437 83.7488 35.3335 83.9776 36.6493C84.0731 37.1947 83.8821 37.8938 83.5911 38.3858C82.7025 39.8863 81.6851 41.3089 80.761 42.7872C80.6122 43.0276 80.5566 43.4662 80.6744 43.7089C81.0676 44.5259 80.9609 45.2562 80.4922 45.973C79.5548 47.409 78.6174 48.8472 77.6644 50.272C77.4023 50.6616 77.2668 50.9599 77.5622 51.4564C78.0398 52.2579 77.8243 53.0393 77.0357 53.8474C75.9206 54.9918 74.7677 56.0982 73.6703 57.2604C73.4859 57.454 73.3971 57.8681 73.4571 58.1397C73.6792 59.1416 73.4704 59.8228 72.5685 60.4351C71.2979 61.2966 70.0094 62.136 68.7188 62.9708C68.3278 63.2224 68.079 63.4406 68.1568 64.0127C68.2856 64.9478 67.7525 65.5778 66.9039 65.9362C65.38 66.5774 63.8451 67.1897 62.339 67.8687C62.0702 67.9911 61.8991 68.3674 61.7258 68.6523C61.4148 69.1599 61.1372 69.6853 60.8484 70.1974C61.477 71.2682 62.6055 71.2794 63.7806 71.217C64.707 71.1681 65.4422 71.4753 65.8732 72.3881C65.9754 72.604 66.3086 72.7576 66.5663 72.8422C67.2105 73.0515 67.8858 73.1673 68.5233 73.3966C68.8987 73.5302 69.4008 73.7261 69.5363 74.0311C69.9295 74.9149 70.6847 75.0307 71.4556 75.2132C71.9132 75.3201 72.373 75.4448 72.8128 75.614C73.617 75.9212 74.0324 76.5446 74.0213 77.3972C74.0124 78.2143 73.6014 78.8109 72.8306 79.1026C72.3641 79.2785 71.8732 79.3942 71.3912 79.53C70.6692 79.7304 70.0228 79.8974 69.5341 80.661C69.2164 81.1552 68.3545 81.3534 67.6992 81.5649C66.8484 81.8409 66.0065 81.9456 65.44 82.8628C65.1823 83.2813 64.3293 83.4327 63.7207 83.5084C62.7899 83.6242 61.8636 83.3971 61.0483 84.2364C60.7196 84.5748 59.8354 84.4835 59.2268 84.4034C58.3493 84.2899 57.5629 83.8535 56.61 84.4368C56.2101 84.6817 55.3771 84.3633 54.804 84.1385C53.9243 83.7934 53.1823 83.0921 52.0894 83.4928C51.7762 83.6064 51.2964 83.3481 50.921 83.1923C48.9039 82.353 46.8958 81.4936 44.8854 80.6432C44.6211 80.5319 44.3501 80.4339 43.9502 80.2781C43.9502 81.0283 43.9502 81.6673 43.9502 82.3062C43.9502 84.3789 43.9324 86.4538 43.9569 88.5265C43.9702 89.7131 43.5814 90.6036 42.393 91.0088H41.6844L41.6777 90.9999ZM48.9284 54.1435C47.2556 53.1885 47.0491 52.4939 47.871 50.7707C48.2397 49.9982 48.6085 49.2234 48.9795 48.4487C49.6903 46.966 50.4034 45.4832 51.1098 44.0139C49.8214 43.1167 49.6459 42.6558 49.9924 41.182C50.1546 40.4919 50.3256 39.8017 50.49 39.1116C50.8899 37.424 51.2875 35.7343 51.6829 34.0579C50.1257 33.4991 49.8258 33.0672 49.8236 31.4642C49.8214 28.9797 49.8236 26.4951 49.8236 23.9215C47.9865 24.0351 47.4511 22.864 47.1779 21.3924C47.018 20.522 46.7803 19.6626 46.5715 18.801C46.1716 17.1469 45.7673 15.495 45.3541 13.8008C42.6063 14.2304 42.5752 12.0843 42.0287 10.3723C41.5311 12.1845 41.4089 14.2416 38.7321 13.8119C38.6344 14.1703 38.5522 14.4486 38.4856 14.7291C37.8947 17.1714 37.2949 19.6136 36.7262 22.0603C36.4774 23.1356 35.9021 23.8035 34.7625 23.9015C34.6003 23.9148 34.4404 23.9794 34.2538 24.0262C34.2538 26.4461 34.2116 28.8149 34.2693 31.1837C34.3027 32.6041 34.0006 33.715 32.3767 34.0245C32.9454 36.3977 33.463 38.7064 34.0628 40.9906C34.4004 42.2818 34.2827 43.3349 32.9476 43.9827C34.1138 46.4138 35.2601 48.7804 36.3819 51.1581C36.9461 52.358 36.6596 53.2664 35.5911 53.8675C35.4445 53.9499 35.3045 54.0434 35.149 54.1391C37.426 60.0633 39.6851 65.9429 42.042 72.0719C44.4056 65.9273 46.6603 60.0566 48.9372 54.1391L48.9284 54.1435ZM37.4637 72.9335L37.6192 72.7821C35.9554 69.4627 34.296 66.1411 32.6122 62.8306C32.5322 62.6725 32.2612 62.5322 32.0724 62.5233C31.0594 62.4766 30.4552 61.9467 30.0909 61.0273C29.5022 59.5445 28.8869 58.0707 28.2449 56.6103C28.1361 56.3654 27.8584 56.1739 27.6207 56.0092C27.0898 55.6374 26.39 55.4103 26.0213 54.925C25.0905 53.7072 24.3175 52.367 23.4445 51.1002C23.2934 50.8798 22.958 50.6304 22.7292 50.6505C21.9095 50.7217 21.303 50.4011 20.7566 49.8468C19.657 48.7292 18.5574 47.6116 17.4267 46.5251C17.2379 46.3448 16.8469 46.1957 16.6248 46.2669C15.8717 46.5162 15.2364 46.3404 14.6144 45.9285C13.3815 45.1137 12.1353 44.3211 10.9136 43.4885C10.256 43.0388 9.65624 42.52 8.81877 43.159C8.63884 43.297 8.31229 43.2458 8.07905 43.277C7.98797 43.6577 8.0013 44.0695 7.80582 44.3211C7.37042 44.8777 7.62588 45.2606 7.9391 45.7237C8.86765 47.0951 9.75843 48.491 10.6692 49.8735C11.0802 50.4969 11.2645 51.1314 11.0113 51.8883C10.938 52.1065 11.0757 52.4983 11.2512 52.6831C12.333 53.8185 13.4993 54.8738 14.5344 56.0493C14.9476 56.519 15.2475 57.2069 15.3119 57.8258C15.3564 58.2689 15.4319 58.5026 15.7829 58.7275C17.0735 59.5601 18.3886 60.3638 19.617 61.2833C20.0968 61.6417 20.3612 62.2829 20.7366 62.786C20.9387 63.0599 21.112 63.4339 21.3875 63.5586C22.8136 64.202 24.2619 64.7897 25.7125 65.373C26.6211 65.7381 27.1875 66.3125 27.1986 67.3522C27.1986 67.537 27.3519 67.8108 27.5118 67.8932C30.8217 69.5829 34.1427 71.2527 37.4615 72.9268L37.4637 72.9335ZM46.4271 72.8289L46.5781 72.9513C49.8702 71.2927 53.1668 69.6386 56.45 67.9622C56.6411 67.8642 56.861 67.5882 56.8632 67.3945C56.8721 66.3103 57.463 65.7359 58.4049 65.3619C59.8576 64.7875 61.3016 64.1819 62.7299 63.5497C62.9743 63.4428 63.263 63.1556 63.3008 62.9152C63.423 62.1404 63.8451 61.6373 64.4715 61.2298C65.7621 60.395 67.0461 59.5534 68.3123 58.683C68.5078 58.5472 68.7366 58.2288 68.7055 58.0307C68.5789 57.198 68.9321 56.6036 69.4785 56.0559C70.5892 54.9495 71.7044 53.8497 72.7884 52.7165C72.9683 52.5272 73.1394 52.1399 73.0661 51.9306C72.7884 51.1403 72.9906 50.4857 73.4215 49.8357C74.3834 48.3797 75.343 46.9237 76.276 45.4498C76.4071 45.245 76.4626 44.9222 76.4093 44.6862C76.3027 44.212 76.0983 43.7623 75.9272 43.2814C75.6518 43.228 75.2675 43.2592 75.0365 43.0877C74.4633 42.6603 74.0479 42.874 73.5504 43.2169C72.2108 44.1363 70.8736 45.0691 69.4674 45.8773C68.9298 46.1845 68.2057 46.16 67.5681 46.2981C67.2416 46.3693 66.824 46.3626 66.6107 46.5652C65.4711 47.6383 64.4315 48.8249 63.2497 49.849C62.7655 50.2698 62.008 50.3677 61.3837 50.6349C61.1216 50.7462 60.7951 50.8531 60.6485 51.0668C59.7577 52.3558 58.9646 53.7161 58.0228 54.9628C57.6696 55.4303 56.9965 55.6463 56.4878 56.007C56.2323 56.1873 55.9191 56.3854 55.8036 56.6504C55.1483 58.1375 54.5374 59.6425 53.9243 61.1475C53.6066 61.9289 53.0557 62.4744 52.2138 62.4766C51.6362 62.4766 51.4608 62.7704 51.2586 63.1823C50.4211 64.8788 49.5703 66.5663 48.7218 68.2583C47.9576 69.7811 47.1912 71.3039 46.4248 72.8289H46.4271ZM37.1438 77.3727C36.5996 77.1323 36.1842 76.923 35.7488 76.7627C34.5537 76.3242 33.4719 75.3735 32.0257 76.0214C31.7614 76.1394 31.2949 75.8834 30.9506 75.732C30.4397 75.5071 29.9598 75.2088 29.4534 74.9683C29.2512 74.8726 29.0202 74.8125 28.7958 74.7902C27.9073 74.7034 27.0165 74.6433 26.1279 74.5676C25.8391 74.5431 25.4571 74.365 25.2816 74.4897C24.3197 75.1687 23.2423 74.9528 22.196 74.9995C21.9961 75.0084 21.6962 74.9884 21.614 75.1041C20.8343 76.2062 19.557 76.1594 18.4574 76.5023C17.9687 76.6537 17.4556 76.8251 17.58 77.3839C17.6511 77.7045 18.0931 78.0406 18.4441 78.1809C19.2594 78.5082 20.3412 78.4926 20.9098 79.038C21.7051 79.8016 22.5359 79.6102 23.3956 79.7749C24.9372 80.071 26.4211 80.0554 27.9894 79.8818C28.9513 79.7771 29.7799 79.6124 30.584 79.156C31.3393 78.7263 32.0902 78.5104 32.9365 78.9156C33.1142 79.0002 33.3986 78.9645 33.594 78.8844C34.7358 78.4169 35.8665 77.9204 37.1416 77.3727H37.1438ZM46.9002 77.3661C48.222 77.9293 49.3815 78.4258 50.5433 78.9133C50.6744 78.969 50.8676 79.0514 50.9587 78.9979C52.2249 78.2566 53.2112 79.0336 54.2508 79.5701C54.5574 79.7282 54.8862 79.8974 55.2194 79.9397C56.1612 80.0554 57.1142 80.1044 58.0605 80.1868C58.2916 80.2068 58.6092 80.3783 58.7314 80.2803C59.6999 79.5189 60.8262 79.8284 61.8924 79.7348C62.1546 79.7126 62.4145 79.5545 62.6566 79.4209C63.1098 79.1716 63.523 78.8287 64.0006 78.6462C64.6314 78.4058 65.3223 78.3301 65.9509 78.0852C66.1931 77.9917 66.4952 77.6221 66.4796 77.3995C66.4596 77.1234 66.1931 76.7338 65.9376 76.6314C65.2845 76.3709 64.5692 76.2752 63.8984 76.0525C63.5185 75.9256 63.1853 75.6674 62.8165 75.496C62.4211 75.3112 62.0235 75.0886 61.6037 75.0106C60.8062 74.8615 59.9887 74.8036 59.1801 74.7101C58.7692 74.6611 58.3493 74.5409 57.9472 74.581C57.2208 74.6522 56.4789 74.9973 55.7903 74.8971C55.1794 74.8081 54.7284 74.8793 54.222 75.1576C53.2001 75.7186 52.2005 76.4911 50.9387 75.7275C50.8787 75.6919 50.7588 75.7164 50.681 75.7498C49.4659 76.264 48.2531 76.785 46.8958 77.3683L46.9002 77.3661Z" fill="#A7DAFF"/>
</g>
<defs>
<clipPath id="clip0_21_169">
<rect width="84" height="91" fill="white"/>
</clipPath>
</defs>
</svg>
