<svg width="102" height="101" viewBox="0 0 102 101" fill="none" xmlns="http://www.w3.org/2000/svg">
<path d="M102 61.0501C100.443 65.0787 98.1246 66.335 93.3327 65.9454C89.7627 65.6539 86.1821 65.516 82.6067 65.3146C82.2481 65.2934 81.8896 65.3119 81.3928 65.3119C81.531 66.07 81.6319 66.7087 81.7621 67.3448C83.1274 73.9179 84.3413 80.5307 85.9085 87.0561C87.4225 93.3535 82.9919 99.1527 76.5903 100.014C72.8796 100.512 69.5167 100.054 66.6347 97.5067C64.5974 95.7071 63.5269 93.4383 63.341 90.7269C62.8336 83.3269 62.3024 75.9296 61.7791 68.5296C61.7711 68.3997 61.7419 68.2698 61.6968 67.9465C59.0803 68.8026 56.5038 69.6056 53.9538 70.4882C51.8633 71.2092 51.9244 71.2463 52.0891 73.462C52.4238 77.9863 52.6628 82.5159 53.0188 87.0402C53.558 93.9181 47.8577 99.8047 40.8053 100.192C37.7002 100.361 34.6216 100.245 31.8139 98.6491C27.3461 96.1047 24.8413 92.3596 25.1361 87.1277C25.5478 79.8231 26.111 72.5238 26.6077 65.2245C26.8866 61.1322 27.1549 57.0399 27.4338 52.8841C22.7482 52.1101 20.6152 49.245 20.6364 44.5167C17.9961 45.1024 15.4621 45.7465 12.8961 46.2103C10.8508 46.5787 8.76565 46.9259 6.69909 46.918C3.23269 46.9047 0.879248 44.7366 0.209873 41.3335C0.159404 41.079 0.071748 40.8299 0.00268555 40.5781V36.4037C0.329404 34.3867 0.571123 32.3485 0.998779 30.3527C4.22612 15.2771 17.0266 3.13547 32.3292 0.591052C42.5346 -1.10787 51.9828 0.856096 60.6289 6.52272C61.1841 6.88583 61.7764 7.58024 61.8482 8.18189C61.9199 8.76763 61.4869 9.57867 61.0194 10.0213C60.3607 10.6468 59.508 10.4374 58.7138 9.99213C56.6632 8.8498 54.6603 7.56699 52.5035 6.66584C32.3505 -1.74928 9.30753 10.3208 4.8105 31.6647C4.2819 34.172 4.11456 36.78 4.02425 39.3483C3.92597 42.118 5.11065 43.2763 7.8705 42.9476C10.8216 42.5951 13.7302 41.8848 16.6494 41.2858C26.69 39.2184 36.8236 38.524 47.0422 39.3377C48.96 39.4914 50.4528 39.245 52.0785 37.9515C58.0444 33.2126 64.9825 31.2062 72.5927 31.503C72.7574 31.5083 72.9247 31.5136 73.0894 31.5136C73.1186 31.5136 73.1478 31.4871 73.3285 31.3997C73.0363 30.3395 72.8158 29.2157 72.4121 28.1635C71.6896 26.2817 70.8741 24.437 70.056 22.5949C69.6814 21.7521 69.6814 20.9835 70.2897 20.2811C70.8396 19.645 71.6019 19.3932 72.3563 19.7298C72.8583 19.9551 73.3736 20.4004 73.6313 20.8801C75.3658 24.103 76.6116 27.5168 77.2996 31.1161C77.4377 31.8396 77.7192 32.1921 78.4842 32.4095C91.4175 36.0962 99.2083 44.522 101.798 57.7132C101.849 57.9702 101.934 58.2194 102 58.4712V61.0554V61.0501ZM43.6688 62.5555C43.8521 64.0954 43.9503 65.6512 44.2452 67.1699C44.5028 68.5057 45.2121 68.9298 46.5747 68.6753C47.6107 68.4819 48.636 68.1877 49.6347 67.8484C52.5194 66.8731 55.351 65.7228 58.2702 64.872C69.1847 61.6915 80.3091 60.6445 91.638 61.7816C93.1786 61.9353 94.7485 61.9273 96.2944 61.824C97.5508 61.7418 98.0236 61.1004 97.9971 59.8256C97.9838 59.102 97.8882 58.3731 97.75 57.6601C94.9636 43.1093 81.5549 33.6287 66.818 35.7808C53.7121 37.6944 43.7671 49.253 43.6688 62.5555V62.5555ZM42.0299 51.0341C41.5544 50.9758 41.2357 50.936 40.9142 50.8989C37.8782 50.5623 34.9775 51.0606 32.1619 52.2294C31.6466 52.4441 31.4447 52.6535 31.4128 53.1942C31.2296 56.2024 31.0144 59.2054 30.8099 62.2109C30.2414 70.5015 29.6385 78.7894 29.1178 87.0826C28.8549 91.2597 31.3624 94.7874 35.4424 95.7919C37.1477 96.2107 38.9964 96.2716 40.7628 96.1709C45.3794 95.9112 49.4966 92.0309 49.0317 87.072C48.8033 84.6336 48.7077 82.1819 48.5403 79.7382C48.3783 77.3688 48.203 74.9993 48.0303 72.5529C47.5469 72.598 47.1591 72.6271 46.7713 72.6669C43.7299 72.9849 41.3153 71.4609 40.4839 68.5216C40.1174 67.2282 39.9553 65.8579 39.865 64.5142C39.5649 59.9236 40.2688 55.4762 42.0299 51.0314V51.0341ZM65.7927 66.9499C65.7927 67.7159 65.7582 68.2751 65.798 68.8291C66.2974 75.964 66.8153 83.099 67.3067 90.234C67.5139 93.2183 69.2777 95.5083 72.2421 96.0066C73.796 96.269 75.4774 96.0755 77.0552 95.8184C79.9505 95.3413 82.9547 92.2589 82.0675 88.2514C80.7766 82.4046 79.6052 76.5339 78.3806 70.6711C78.0247 68.9669 77.6661 67.2627 77.2703 65.3809C73.3922 65.9109 69.623 66.4278 65.79 66.9526L65.7927 66.9499ZM24.7244 43.9442C24.7005 44.4318 24.658 44.8586 24.666 45.2826C24.7005 47.5329 25.7922 48.7733 28.05 48.8342C29.1471 48.8634 30.3317 48.6911 31.3491 48.2882C35.2325 46.7483 39.1957 46.4992 43.2677 47.2201C43.4855 47.2599 43.8494 47.2121 43.9477 47.069C44.7844 45.8525 45.576 44.6041 46.4552 43.2471C39.1372 42.7117 31.9521 42.9821 24.7244 43.9442V43.9442Z" fill="#A7DAFF"/>
<path d="M20.6816 18.9267C20.6736 17.795 21.5555 16.9071 22.6738 16.9256C23.7336 16.9442 24.6234 17.8321 24.6341 18.887C24.6447 19.9789 23.7097 20.9039 22.6153 20.888C21.5342 20.8721 20.6922 20.016 20.6842 18.9267H20.6816Z" fill="#A7DAFF"/>
<path d="M13.94 25.8868C14.9998 25.8682 15.9056 26.7296 15.9428 27.7951C15.9826 28.9162 15.1167 29.8333 13.9984 29.8465C12.8881 29.8598 11.9637 28.9533 11.977 27.856C11.9876 26.8091 12.8908 25.9053 13.94 25.8868V25.8868Z" fill="#A7DAFF"/>
<path d="M24.9236 32.0517C23.7867 32.0649 22.8995 31.1903 22.9128 30.0692C22.9234 29.017 23.8186 28.1158 24.8678 28.0973C25.9542 28.0787 26.8972 29.0223 26.8839 30.1089C26.8706 31.185 26.01 32.0384 24.9236 32.0517Z" fill="#A7DAFF"/>
<path d="M66.5258 16.1305C65.45 16.1199 64.5761 15.2585 64.5575 14.1904C64.5389 13.109 65.4899 12.1575 66.5683 12.1734C67.6653 12.1893 68.5658 13.1382 68.5286 14.2354C68.4914 15.3115 67.6149 16.1438 66.5258 16.1332V16.1305Z" fill="#A7DAFF"/>
<path d="M54.7241 51.6648C55.8158 51.6728 56.687 52.5395 56.687 53.6209C56.687 54.689 55.8025 55.5928 54.7347 55.6113C53.6217 55.6325 52.7213 54.7128 52.7398 53.5811C52.7584 52.4759 53.6084 51.6542 54.7241 51.6648Z" fill="#A7DAFF"/>
<path d="M58.9369 47.2572C58.9209 46.1573 59.7523 45.28 60.8414 45.2482C61.9544 45.2137 62.9053 46.1334 62.8947 47.2334C62.8841 48.3041 61.9995 49.1761 60.9131 49.1841C59.8055 49.192 58.9528 48.3598 58.9369 47.2572V47.2572Z" fill="#A7DAFF"/>
<path d="M62.0978 55.6193C62.1031 54.5114 62.9425 53.6712 64.0475 53.6633C65.1445 53.658 66.0237 54.5061 66.0423 55.5875C66.0609 56.6901 65.118 57.6416 64.0262 57.6177C62.9478 57.5965 62.0925 56.7086 62.0978 55.6167V55.6193Z" fill="#A7DAFF"/>
</svg>
