<svg width="96" height="115" viewBox="0 0 96 115" fill="none" xmlns="http://www.w3.org/2000/svg">
<path d="M77.2536 36.4864C79.2305 36.4864 81.0167 36.3334 82.7685 36.511C90.0989 37.2513 95.7313 43.2821 95.8977 50.7244C96.0396 57.2882 96.0445 63.857 95.8977 70.4208C95.7215 78.1838 89.4481 84.417 81.7409 84.6983C79.5535 84.7773 77.3612 84.7082 75.0271 84.7082V86.3861C75.0271 92.5749 75.0271 98.7636 75.0271 104.952C75.0222 111.363 71.445 114.986 65.1129 114.991C47.6432 114.995 30.1784 115 12.7088 114.991C7.76638 114.991 4.26755 112.38 3.30354 107.948C3.08823 106.946 3.09312 105.885 3.09312 104.849C3.08333 83.0697 3.09312 61.2907 3.05397 39.5166C3.05397 38.5937 2.77015 37.5524 2.29548 36.7677C-3.06286 27.9435 1.39019 16.1484 11.4071 12.8468C12.3026 12.5506 12.7528 12.1114 13.11 11.2478C15.9972 4.27432 24.0274 1.10592 30.9223 4.11146C31.392 4.31874 32.2043 4.24964 32.6301 3.9634C41.2768 -1.90455 51.5286 -1.20375 59.4316 5.78449C59.8524 6.15463 60.6941 6.23359 61.3058 6.15957C69.2038 5.21201 75.8149 11.6426 74.7481 19.5734C74.4643 21.6857 74.7041 23.1663 75.9275 24.9084C78.1099 28.0274 78.521 31.6153 77.4689 35.3266C77.3955 35.5882 77.371 35.8645 77.2634 36.4864H77.2536ZM59.9845 54.0359C59.6224 54.0705 59.4756 54.0606 59.3435 54.1001C54.039 55.6892 47.6237 51.5535 48.0249 44.5603C48.1179 42.912 48.0787 41.2538 48.0249 39.6054C47.9662 37.7744 46.5471 36.3186 44.9616 36.358C43.3614 36.3975 42.0451 37.8781 42.0157 39.7189C42.0011 40.5678 42.0647 41.4166 42.0549 42.2704C42.0206 45.5721 42.1576 48.8885 41.8836 52.1704C41.453 57.3129 37.8171 60.4862 32.7769 60.4615C28.0498 60.4369 24.6684 57.1944 24.2231 52.1063C24.0274 49.8558 24.0616 47.5807 23.998 45.3204C23.9833 44.8318 23.998 44.3432 23.998 43.7756C22.5985 44.2396 21.4191 44.6837 20.2105 45.0193C18.121 45.6017 18.0916 45.5721 18.0916 47.7682C18.072 62.7367 18.0573 77.7051 18.0475 92.6736C18.0475 96.0493 18.8501 96.8636 22.1825 96.8636C33.4179 96.8636 44.6533 96.8636 55.8887 96.8636C59.182 96.8636 59.9943 96.0641 59.9943 92.8019C59.9943 80.3849 59.9943 67.963 59.9943 55.5461V54.0458L59.9845 54.0359ZM29.8848 44.4666H30.0806C30.0806 46.6874 30.0219 48.9082 30.1002 51.1291C30.1687 53.1723 31.8178 54.4752 33.7017 54.1198C35.0621 53.8632 35.9723 52.6689 36.0017 50.8182C36.0555 46.8996 35.9625 42.9761 36.0408 39.0576C36.1681 32.6172 42.0794 28.516 48.1277 30.6036C51.6999 31.8374 54.0586 35.2575 54.1124 39.176C54.1417 41.2932 54.1173 43.4302 54.3815 45.5227C54.5968 47.2402 55.9083 48.1334 57.435 48.0298C58.9178 47.9311 60.009 46.796 60.1803 45.118C60.2635 44.3185 60.239 43.5141 60.3075 42.7146C60.5962 39.4573 61.2275 38.8701 64.4523 39.1119C67.5841 39.3488 69.7813 37.9768 71.2395 35.292C73.1382 31.7979 72.3259 28.0817 69.1696 25.5845C67.4079 24.1878 67.1779 23.0873 68.2202 21.0392C68.3279 20.827 68.4502 20.6296 68.5481 20.4124C69.5659 18.1718 69.1304 15.5364 67.4373 13.7055C65.7637 11.8943 63.3708 11.3613 61.0024 12.2792C58.9422 13.0738 58.1495 12.8714 56.7108 11.1885C50.8974 4.37302 41.3551 3.84496 34.8957 9.98434C33.1684 11.6278 31.8569 11.7363 29.9093 10.3199C28.4413 9.25393 26.8313 8.73574 25.0305 8.92821C21.5268 9.29342 19.1339 11.5636 18.3705 15.2008C17.9203 17.3477 17.3869 17.8708 15.2974 18.2705C14.6564 18.3939 14.0055 18.5124 13.3841 18.7098C9.13655 20.0571 6.4011 23.7338 6.09771 28.4667C5.83346 32.5876 8.06488 36.4666 11.6763 38.1545C15.958 40.1581 20.1371 39.5067 23.4793 36.3186C23.9882 35.83 24.4873 35.3266 25.0403 34.8923C27.1836 33.1995 29.6353 34.1175 29.8457 36.8269C30.0414 39.3586 29.8897 41.92 29.8897 44.4666H29.8848ZM9.04847 43.7658V45.118C9.04847 65.1006 9.04847 85.0833 9.04847 105.061C9.04847 108.047 9.90482 108.901 12.9241 108.901C30.3448 108.901 47.7656 108.901 65.1863 108.901C68.1224 108.901 68.9787 108.057 68.9787 105.135C68.9787 85.4386 68.9787 65.7373 68.9787 46.0409C68.9787 45.6017 68.9347 45.1624 68.9053 44.6294L66.0329 45.4734V47.2204C66.0329 57.989 66.0329 68.7625 66.0329 79.5311C66.0329 84.2097 66.0769 88.8834 66.0182 93.5619C65.9546 98.8821 62.3872 102.815 57.3959 102.845C45.128 102.924 32.8601 102.909 20.5873 102.845C16.604 102.825 13.3205 100.057 12.3809 96.143C12.1216 95.0573 12.0873 93.9025 12.0824 92.7772C12.0628 77.6607 12.0824 62.5442 12.0677 47.4277C12.0677 44.6985 12.0237 44.6985 9.49866 43.825C9.41548 43.7954 9.3225 43.8003 9.04847 43.7707V43.7658ZM75.12 42.305V78.5639C77.5912 78.5639 79.9841 78.7711 82.333 78.5194C86.6784 78.0555 89.8836 74.4972 89.9521 70.1C90.05 63.7286 90.0451 57.3524 89.9521 50.981C89.8934 46.9638 87.1971 43.5141 83.2774 42.7738C80.6545 42.2803 77.9093 42.4431 75.1249 42.305H75.12Z" fill="#A7DAFF"/>
</svg>
