<svg width="930" height="1099" viewBox="0 0 930 1099" fill="none" xmlns="http://www.w3.org/2000/svg">
<circle cx="572.5" cy="342.5" r="319" stroke="#B43EAE" stroke-width="3"/>
<circle cx="572.5" cy="342.5" r="294" stroke="#B43EAE" stroke-width="3"/>
<rect y="235" width="620" height="864" rx="20" fill="#A7DAFF"/>
<rect x="696" y="413" width="77" height="49" rx="20" fill="#FFC8FC"/>
<rect x="785" y="413" width="145" height="49" rx="20" fill="#FFC8FC"/>
<path d="M908.54 -9.38041e-07C920.392 -4.19976e-07 930 9.6079 930 21.4599L930 372.54C930 384.392 920.392 394 908.54 394L465.46 394C453.608 394 444 384.392 444 372.54L444 21.4598C444 9.6079 453.608 -2.08238e-05 465.46 -2.03057e-05L908.54 -9.38041e-07Z" fill="#FFC8FC"/>
</svg>
