<svg width="432" height="181" viewBox="0 0 432 181" fill="none" xmlns="http://www.w3.org/2000/svg">
<rect width="295" height="181" rx="20" transform="matrix(-1 0 0 1 432 0)" fill="#CAE9FF"/>
<path d="M258.5 102C252.701 102 248 106.701 248 112.5V112.5C248 118.299 252.701 123 258.5 123L273.5 123C279.299 123 284 118.299 284 112.5V112.5C284 106.701 279.299 102 273.5 102L258.5 102Z" fill="#FFC8FC"/>
<path d="M161.5 70C155.701 70 151 74.701 151 80.5V80.5C151 86.299 155.701 91 161.5 91L176.5 91C182.299 91 187 86.299 187 80.5V80.5C187 74.701 182.299 70 176.5 70L161.5 70Z" fill="#FFC8FC"/>
<path d="M210.5 4C204.701 4 200 8.70101 200 14.5V14.5C200 20.299 204.701 25 210.5 25L225.5 25C231.299 25 236 20.299 236 14.5V14.5C236 8.70101 231.299 4 225.5 4L210.5 4Z" fill="#FFC8FC"/>
<path d="M199.5 144C193.701 144 189 148.701 189 154.5V154.5C189 160.299 193.701 165 199.5 165L214.5 165C220.299 165 225 160.299 225 154.5V154.5C225 148.701 220.299 144 214.5 144L199.5 144Z" fill="#FFC8FC"/>
<path d="M79.5 102C73.701 102 69 106.701 69 112.5V112.5C69 118.299 73.701 123 79.5 123L94.5 123C100.299 123 105 118.299 105 112.5V112.5C105 106.701 100.299 102 94.5 102L79.5 102Z" fill="#FFC8FC"/>
<path d="M10 60C4.47715 60 1.95703e-07 64.4772 4.37114e-07 70V70C6.78525e-07 75.5228 4.47715 80 10 80L59 80C64.5228 80 69 75.5228 69 70V70C69 64.4772 64.5228 60 59 60L10 60Z" fill="#FFC8FC"/>
<path d="M294 70C288.477 70 284 74.4772 284 80V80C284 85.5229 288.477 90 294 90L415 90C420.523 90 425 85.5228 425 80V80C425 74.4771 420.523 70 415 70L294 70Z" fill="#FFC8FC"/>
</svg>
