<svg width="165" height="165" viewBox="0 0 165 165" fill="none" xmlns="http://www.w3.org/2000/svg">
<path d="M82.5 0C128.034 0 165 36.9675 165 82.5V145.581C165 156.299 156.299 165 145.581 165H19.4188C8.70099 165 0 156.299 0 145.581V82.5C0 36.9675 36.9675 0 82.5 0Z" fill="#F3F3F3"/>
<path d="M83.1229 9.62961C70.1148 9.62961 57.9123 13.1404 47.3786 19.2817C25.8215 31.8496 11.2487 55.4355 11.0566 82.5029H54.4522C55.7968 72.7801 60.995 64.482 68.246 59.6266C72.5958 56.7134 77.6846 55.038 83.1229 55.038C97.625 55.038 109.642 66.9457 111.794 82.5029H155.189C154.904 42.2073 122.749 9.62961 83.1229 9.62961V9.62961Z" fill="#ED1C24"/>
<path d="M83.123 9.61774C70.1149 9.61774 57.9124 13.1285 47.3787 19.2698C46.3423 19.874 45.3232 20.5036 44.3201 21.1586L69.2332 58.9838C73.3576 56.4601 78.0903 55.0261 83.123 55.0261C87.5049 55.0261 91.6586 56.1133 95.3829 58.0594L120.348 20.1568C109.483 13.4674 96.7448 9.61774 83.123 9.61774V9.61774Z" fill="#FFF200"/>
<path d="M44.3186 21.1693C24.4529 34.1241 11.2381 56.7349 11.0566 82.5017H54.4522C55.7968 72.779 60.995 64.4808 68.2447 59.6255C68.5688 59.408 68.8983 59.1973 69.2318 58.9945L44.3186 21.1693Z" fill="#5EBB47"/>
<path d="M44.3186 21.1693L69.2318 58.9945C68.8983 59.1973 68.5688 59.408 68.2447 59.6255C60.995 64.4808 55.7968 72.779 54.4522 82.5017H11.0566C11.2381 56.7349 24.4529 34.1241 44.3186 21.1693Z" fill="#5EBB47"/>
<path d="M83.1229 9.62961C70.1148 9.62961 57.9123 13.1404 47.3786 19.2817C25.8215 31.8496 11.2487 55.4355 11.0566 82.5029H54.4522C55.7968 72.7801 60.995 64.482 68.246 59.6266C72.5958 56.7134 77.6846 55.038 83.1229 55.038C97.625 55.038 109.642 66.9457 111.794 82.5029H155.189C154.904 42.2073 122.749 9.62961 83.1229 9.62961V9.62961Z" stroke="#8F9194" stroke-width="1.73406" stroke-miterlimit="10"/>
<path d="M82.5 94.632C88.2815 94.632 92.9684 89.9451 92.9684 84.1636C92.9684 78.3821 88.2815 73.6952 82.5 73.6952C76.7185 73.6952 72.0316 78.3821 72.0316 84.1636C72.0316 89.9451 76.7185 94.632 82.5 94.632Z" fill="#58595B"/>
<path d="M76.5895 78.6708L79.32 22.9394L81.2315 21.1693L83.7072 23.0541L86.9885 78.9069L76.5895 78.6708Z" fill="#58595B"/>
<path d="M34.0437 131.38H28.9869V142.657H22.6389V111.851H34.0851C37.7239 111.851 40.5304 112.662 42.5059 114.284C44.4801 115.906 45.4685 118.197 45.4685 121.16C45.4685 123.262 45.0137 125.015 44.1039 126.418C43.1942 127.821 41.815 128.939 39.9675 129.772L46.6317 142.361V142.657H39.8181L34.0424 131.38H34.0437ZM28.9869 126.239H34.1077C35.7017 126.239 36.9356 125.834 37.8106 125.023C38.6843 124.212 39.1218 123.094 39.1218 121.669C39.1218 120.245 38.7097 119.074 37.884 118.241C37.0583 117.409 35.7924 116.993 34.0864 116.993H28.9869V126.239Z" fill="#58595B"/>
<path d="M57.0427 142.661H50.696V111.855H57.0427V142.661Z" fill="#58595B"/>
<path d="M78.8986 134.579C78.8986 133.379 78.4758 132.459 77.6288 131.817C76.7831 131.176 75.2584 130.498 73.0588 129.786C70.8579 129.074 69.1158 128.372 67.8326 127.681C64.3338 125.791 62.5851 123.246 62.5851 120.043C62.5851 118.378 63.0533 116.894 63.9924 115.589C64.9301 114.285 66.2773 113.266 68.0341 112.532C69.7908 111.798 71.761 111.432 73.9472 111.432C76.1335 111.432 78.1076 111.83 79.8297 112.627C81.5504 113.424 82.887 114.549 83.8394 116.001C84.7918 117.454 85.268 119.105 85.268 120.953H78.92C78.92 119.543 78.4758 118.445 77.5874 117.662C76.699 116.879 75.4505 116.488 73.8418 116.488C72.2332 116.488 71.0847 116.816 70.2243 117.473C69.364 118.129 68.9331 118.993 68.9331 120.064C68.9331 121.066 69.4373 121.905 70.4457 122.583C71.4542 123.26 72.9388 123.894 74.8996 124.488C78.5105 125.573 81.1409 126.921 82.7923 128.529C84.4423 130.138 85.268 132.14 85.268 134.539C85.268 137.205 84.2595 139.297 82.2427 140.812C80.2258 142.329 77.51 143.086 74.0966 143.086C71.7263 143.086 69.5694 142.653 67.6219 141.784C65.6757 140.917 64.1911 139.729 63.168 138.219C62.1449 136.71 61.634 134.96 61.634 132.971H68.002C68.002 136.371 70.0336 138.071 74.0953 138.071C75.6039 138.071 76.7817 137.764 77.6288 137.15C78.4758 136.537 78.8986 135.68 78.8986 134.58V134.579Z" fill="#58595B"/>
<path d="M113.747 132.399C113.507 135.714 112.283 138.323 110.076 140.228C107.868 142.132 104.959 143.083 101.348 143.083C97.3984 143.083 94.2918 141.754 92.0282 139.095C89.7646 136.437 88.6321 132.787 88.6321 128.147V126.263C88.6321 123.301 89.1536 120.691 90.1981 118.434C91.2425 116.178 92.7338 114.446 94.6733 113.24C96.6128 112.034 98.8657 111.432 101.433 111.432C104.988 111.432 107.851 112.384 110.024 114.287C112.195 116.192 113.452 118.865 113.789 122.307H107.443C107.287 120.318 106.734 118.876 105.782 117.98C104.83 117.085 103.381 116.636 101.433 116.636C99.3179 116.636 97.7346 117.395 96.6835 118.911C95.6324 120.427 95.0935 122.779 95.0654 125.967V128.295C95.0654 131.624 95.5697 134.057 96.5781 135.594C97.5865 137.132 99.1765 137.9 101.349 137.9C103.31 137.9 104.774 137.452 105.739 136.557C106.705 135.662 107.259 134.276 107.4 132.399H113.747V132.399Z" fill="#58595B"/>
<path d="M143.219 127.957C143.219 130.99 142.683 133.649 141.61 135.934C140.538 138.219 139.004 139.982 137.008 141.223C135.013 142.465 132.724 143.085 130.143 143.085C127.562 143.085 125.311 142.471 123.309 141.244C121.306 140.017 119.754 138.264 118.654 135.986C117.554 133.708 116.996 131.088 116.983 128.125V126.602C116.983 123.569 117.53 120.899 118.622 118.593C119.714 116.287 121.259 114.517 123.256 113.283C125.251 112.049 127.534 111.432 130.1 111.432C132.667 111.432 134.949 112.049 136.944 113.283C138.94 114.517 140.485 116.287 141.578 118.593C142.671 120.899 143.218 123.562 143.218 126.581V127.956L143.219 127.957ZM136.787 126.561C136.787 123.331 136.208 120.877 135.052 119.197C133.895 117.519 132.245 116.679 130.1 116.679C127.955 116.679 126.327 117.507 125.17 119.165C124.014 120.823 123.428 123.252 123.413 126.454V127.956C123.413 131.101 123.991 133.542 125.149 135.276C126.305 137.012 127.97 137.879 130.142 137.879C132.313 137.879 133.907 137.042 135.05 135.371C136.193 133.7 136.771 131.263 136.786 128.061V126.559L136.787 126.561Z" fill="#58595B"/>
</svg>
