<svg width="163" height="163" viewBox="0 0 163 163" fill="none" xmlns="http://www.w3.org/2000/svg">
<path d="M81.5 0C126.482 0 163 36.5194 163 81.5V143.817C163 154.404 154.404 163 143.817 163H19.1834C8.59552 163 0 154.404 0 143.817V81.5C0 36.5194 36.5194 0 81.5 0Z" fill="#F3F3F3"/>
<path d="M82.1154 9.50702C69.2649 9.50702 57.2104 12.9753 46.8043 19.0421C25.5085 31.4577 11.1124 54.7577 10.9226 81.497H53.7922C55.1204 71.8921 60.2556 63.6945 67.4188 58.898C71.7159 56.0201 76.743 54.365 82.1154 54.365C96.4417 54.365 108.313 66.1284 110.439 81.497H153.308C153.026 41.6898 121.261 9.50702 82.1154 9.50702V9.50702Z" fill="#ED1C24"/>
<path d="M82.1153 9.49905C69.2649 9.49905 57.2103 12.9673 46.8043 19.0341C45.7804 19.631 44.7736 20.253 43.7827 20.9L68.3939 58.2668C72.4683 55.7736 77.1436 54.3571 82.1153 54.3571C86.4441 54.3571 90.5475 55.431 94.2266 57.3536L118.889 19.9104C108.156 13.302 95.572 9.49905 82.1153 9.49905V9.49905Z" fill="#FFF200"/>
<path d="M43.7814 20.9083C24.1565 33.706 11.1018 56.0428 10.9226 81.4973H53.7922C55.1204 71.8924 60.2556 63.6948 67.4174 58.8983C67.7377 58.6835 68.0631 58.4753 68.3926 58.275L43.7814 20.9083Z" fill="#5EBB47"/>
<path d="M43.7814 20.9083L68.3926 58.275C68.0631 58.4753 67.7377 58.6835 67.4174 58.8983C60.2556 63.6948 55.1204 71.8924 53.7922 81.4973H10.9226C11.1018 56.0428 24.1565 33.706 43.7814 20.9083Z" fill="#5EBB47"/>
<path d="M154.171 82.3584H109.693L109.59 81.6192C108.581 74.3242 105.266 67.6355 100.256 62.7876C95.2175 57.9106 88.7751 55.2264 82.1154 55.2264C77.0975 55.2264 72.181 56.7432 67.8945 59.6145C60.7432 64.4044 55.9111 72.4254 54.6395 81.6192L54.5367 82.3584H10.0608L10.0674 81.4953C10.1596 68.4327 13.6674 55.6297 20.2112 44.4685C26.5693 33.625 35.6154 24.5788 46.3747 18.3064C57.2051 11.9919 69.564 8.6554 82.1167 8.6554C91.802 8.6554 101.201 10.5793 110.052 14.3756C118.601 18.0402 126.287 23.2901 132.895 29.9775C139.501 36.661 144.705 44.4501 148.36 53.1273C152.142 62.105 154.096 71.6506 154.165 81.4953L154.171 82.3584V82.3584ZM111.178 80.6454H152.441C152.268 71.3304 150.366 62.3 146.781 53.7928C143.21 45.3171 138.129 37.7099 131.678 31.1819C125.225 24.6526 117.722 19.5279 109.378 15.9503C100.74 12.2475 91.5687 10.3698 82.1167 10.3698C69.8671 10.3698 57.8059 13.6259 47.2365 19.7875C36.7316 25.9123 27.8975 34.7464 21.6884 45.3369C15.4411 55.9934 12.0268 68.1836 11.791 80.6467H53.0542C54.5446 71.2777 59.5783 63.1249 66.9417 58.1926C71.5103 55.1329 76.7575 53.5147 82.1154 53.5147C89.2218 53.5147 96.0872 56.3716 101.448 61.5581C106.56 66.5062 109.998 73.2608 111.176 80.6467L111.178 80.6454Z" fill="#8F9194"/>
<path d="M81.7635 93.4799C87.475 93.4799 92.105 88.8498 92.105 83.1384C92.105 77.4269 87.475 72.7968 81.7635 72.7968C76.052 72.7968 71.422 77.4269 71.422 83.1384C71.422 88.8498 76.052 93.4799 81.7635 93.4799Z" fill="#58595B"/>
<path d="M81.9269 77.6838L33.5835 51.2001L31.1062 51.8959L31.4145 54.953L76.7549 86.5626L81.9269 77.6838Z" fill="#58595B"/>
<path d="M33.6311 129.786H28.6356V140.926H22.3645V110.493H33.6719C37.2667 110.493 40.0392 111.294 41.9907 112.897C43.9409 114.499 44.9174 116.763 44.9174 119.69C44.9174 121.766 44.468 123.498 43.5693 124.884C42.6707 126.27 41.3081 127.375 39.4831 128.197L46.0677 140.634V140.926H39.3368L33.6311 129.786V129.786ZM28.6356 124.707H33.6943C35.269 124.707 36.4879 124.307 37.3523 123.506C38.2154 122.705 38.6476 121.6 38.6476 120.193C38.6476 118.786 38.2405 117.629 37.4248 116.806C36.6091 115.984 35.3586 115.573 33.6732 115.573H28.6356V124.707Z" fill="#58595B"/>
<path d="M56.3513 140.93H50.0815V110.497H56.3513V140.93Z" fill="#58595B"/>
<path d="M77.9422 132.942C77.9422 131.757 77.5245 130.848 76.6877 130.214C75.851 129.58 74.3461 128.911 72.1732 128.207C69.9989 127.504 68.278 126.81 67.0103 126.128C63.5539 124.261 61.8264 121.746 61.8264 118.583C61.8264 116.938 62.2902 115.471 63.2166 114.183C64.143 112.894 65.4739 111.887 67.2093 111.162C68.9448 110.438 70.891 110.075 73.0508 110.075C75.2105 110.075 77.1608 110.469 78.862 111.256C80.5618 112.044 81.8822 113.155 82.823 114.59C83.7639 116.025 84.2343 117.656 84.2343 119.481H77.9646C77.9646 118.088 77.5258 117.004 76.6482 116.23C75.7706 115.457 74.5372 115.071 72.948 115.071C71.3588 115.071 70.2243 115.395 69.3743 116.043C68.5244 116.692 68.0988 117.546 68.0988 118.604C68.0988 119.593 68.5969 120.422 69.5931 121.092C70.5893 121.761 72.0559 122.387 73.993 122.973C77.56 124.046 80.1586 125.377 81.7899 126.966C83.42 128.555 84.2356 130.533 84.2356 132.902C84.2356 135.536 83.2394 137.603 81.247 139.1C79.2546 140.598 76.5718 141.346 73.1997 141.346C70.8581 141.346 68.7273 140.918 66.8035 140.06C64.8809 139.204 63.4143 138.03 62.4036 136.538C61.3929 135.048 60.8882 133.319 60.8882 131.354H67.179C67.179 134.713 69.1859 136.392 73.1984 136.392C74.6887 136.392 75.8523 136.089 76.689 135.482C77.5245 134.876 77.9435 134.03 77.9435 132.943L77.9422 132.942Z" fill="#58595B"/>
<path d="M112.368 130.789C112.131 134.063 110.922 136.641 108.741 138.522C106.561 140.404 103.687 141.344 100.119 141.344C96.2177 141.344 93.1487 140.03 90.9125 137.404C88.6764 134.777 87.5576 131.172 87.5576 126.588V124.727C87.5576 121.8 88.0728 119.223 89.1046 116.993C90.1364 114.764 91.6096 113.053 93.5256 111.862C95.4416 110.671 97.6672 110.075 100.204 110.075C103.716 110.075 106.543 111.016 108.69 112.897C110.835 114.778 112.077 117.419 112.41 120.819H106.139C105.985 118.854 105.439 117.43 104.498 116.544C103.557 115.66 102.126 115.217 100.203 115.217C98.1126 115.217 96.5485 115.967 95.5101 117.464C94.4717 118.962 93.9394 121.285 93.9117 124.435V126.734C93.9117 130.023 94.4098 132.427 95.406 133.945C96.4022 135.464 97.9729 136.223 100.119 136.223C102.057 136.223 103.502 135.78 104.456 134.896C105.41 134.012 105.957 132.643 106.097 130.789H112.366H112.368Z" fill="#58595B"/>
<path d="M141.483 126.401C141.483 129.397 140.953 132.023 139.895 134.281C138.836 136.538 137.32 138.28 135.349 139.505C133.378 140.732 131.116 141.345 128.567 141.345C126.017 141.345 123.794 140.739 121.816 139.527C119.837 138.314 118.304 136.583 117.217 134.332C116.13 132.081 115.579 129.493 115.566 126.567V125.062C115.566 122.065 116.106 119.429 117.185 117.15C118.265 114.872 119.791 113.123 121.763 111.904C123.734 110.685 125.989 110.075 128.524 110.075C131.06 110.075 133.314 110.685 135.286 111.904C137.257 113.123 138.783 114.872 139.863 117.15C140.943 119.429 141.483 122.059 141.483 125.041V126.399V126.401ZM135.129 125.021C135.129 121.831 134.557 119.406 133.415 117.747C132.272 116.089 130.642 115.259 128.523 115.259C126.404 115.259 124.795 116.078 123.653 117.716C122.51 119.353 121.932 121.753 121.917 124.916V126.399C121.917 129.507 122.488 131.918 123.632 133.631C124.774 135.345 126.419 136.202 128.564 136.202C130.709 136.202 132.284 135.376 133.413 133.725C134.541 132.073 135.113 129.666 135.128 126.503V125.02L135.129 125.021Z" fill="#58595B"/>
</svg>
