<svg width="448" height="417" viewBox="0 0 448 417" fill="none" xmlns="http://www.w3.org/2000/svg">
<path d="M328.54 417C340.392 417 350 407.392 350 395.54L350 165.46C350 153.608 340.392 144 328.54 144L21.4599 144C9.60794 144 2.87173e-05 153.608 3.01715e-05 165.46L5.84021e-05 395.54C5.98563e-05 407.392 9.60794 417 21.4599 417L328.54 417Z" fill="#FDC194"/>
<path d="M250 235C250 249.912 262.088 262 277 262H421C435.912 262 448 249.912 448 235V27C448 12.0883 435.912 0 421 0H277C262.088 0 250 12.0883 250 27V235Z" fill="#9BF1B4"/>
</svg>
