<svg width="950" height="247" viewBox="0 0 950 247" fill="none" xmlns="http://www.w3.org/2000/svg">
<path d="M928.54 247C940.392 247 950 237.392 950 225.54L950 180.46C950 168.608 940.392 159 928.54 159L21.4598 159C9.6079 159 -9.6186e-06 168.608 -8.16439e-06 180.46L-2.6331e-06 225.54C-1.17888e-06 237.392 9.60791 247 21.4598 247L928.54 247Z" fill="#FDC194"/>
<path d="M0 220C0 234.912 12.0883 247 27 247H171C185.912 247 198 234.912 198 220V27C198 12.0883 185.912 1.52588e-05 171 1.52588e-05H27C12.0883 1.52588e-05 0 12.0883 0 27V220Z" fill="#9BF1B4"/>
</svg>
