<svg width="450" height="280" viewBox="0 0 450 280" fill="none" xmlns="http://www.w3.org/2000/svg">
<path d="M278.54 73C290.392 73 300 82.6079 300 94.4599L300 258.54C300 270.392 290.392 280 278.54 280L21.4598 280C9.60787 280 -8.62828e-06 270.392 -8.11022e-06 258.54L-9.3804e-07 94.4598C-4.19975e-07 82.6079 9.60791 73 21.4598 73L278.54 73Z" fill="#FDC194"/>
<path d="M164 27C164 12.0883 176.088 0 191 0H423C437.912 0 450 12.0883 450 27V147C450 161.912 437.912 174 423 174H191C176.088 174 164 161.912 164 147V27Z" fill="#9BF1B4"/>
</svg>
