<svg width="450" height="575" viewBox="0 0 450 575" fill="none" xmlns="http://www.w3.org/2000/svg">
<path d="M278.54 575C290.392 575 300 565.392 300 553.54L300 157.46C300 145.608 290.392 136 278.54 136L21.4599 136C9.60792 136 8.34933e-06 145.608 9.80355e-06 157.46L5.84021e-05 553.54C5.98563e-05 565.392 9.60797 575 21.4599 575L278.54 575Z" fill="#FDC194"/>
<path d="M200 335C200 349.912 212.088 362 227 362H423C437.912 362 450 349.912 450 335V181V27C450 12.0883 437.912 0 423 0H227C212.088 0 200 12.0883 200 27V335Z" fill="#9BF1B4"/>
</svg>
