<svg width="450" height="385" viewBox="0 0 450 385" fill="none" xmlns="http://www.w3.org/2000/svg">
<path d="M278.54 385C290.392 385 300 375.392 300 363.54L300 96.4598C300 84.6079 290.392 75 278.54 75L21.4599 75C9.60793 75 -6.34013e-06 84.6079 -4.88591e-06 96.4598L2.78845e-05 363.54C2.93387e-05 375.392 9.60794 385 21.4599 385L278.54 385Z" fill="#FDC194"/>
<path d="M200 145C200 159.912 212.088 172 227 172H423C437.912 172 450 159.912 450 145V86V27C450 12.0883 437.912 0 423 0H227C212.088 0 200 12.0883 200 27V145Z" fill="#9BF1B4"/>
</svg>
