<svg width="450" height="231" viewBox="0 0 450 231" fill="none" xmlns="http://www.w3.org/2000/svg">
<path d="M278.54 231C290.392 231 300 221.392 300 209.54L300 60.4599C300 48.6079 290.392 39 278.54 39L21.4599 39C9.60792 39 8.13832e-06 48.6079 9.59253e-06 60.4599L2.78845e-05 209.54C2.93387e-05 221.392 9.60794 231 21.4599 231L278.54 231Z" fill="#FDC194"/>
<path d="M200 167C200 181.912 212.088 194 227 194H423C437.912 194 450 181.912 450 167V97V27C450 12.0883 437.912 1.52588e-05 423 1.52588e-05H227C212.088 1.52588e-05 200 12.0883 200 27V167Z" fill="#9BF1B4"/>
</svg>
