<svg width="448" height="184" viewBox="0 0 448 184" fill="none" xmlns="http://www.w3.org/2000/svg">
<path d="M278.54 49C290.392 49 300 58.6079 300 70.4599L300 162.54C300 174.392 290.392 184 278.54 184L21.4598 184C9.60787 184 -9.53228e-06 174.392 -8.6313e-06 162.54L-1.63137e-06 70.4598C-7.30391e-07 58.6079 9.60791 49 21.4598 49L278.54 49Z" fill="#FDC194"/>
<path d="M274 27C274 12.0883 286.088 0 301 0H421C435.912 0 448 12.0883 448 27V73C448 87.9117 435.912 100 421 100H301C286.088 100 274 87.9117 274 73V27Z" fill="#9BF1B4"/>
</svg>
