<svg width="448" height="232" viewBox="0 0 448 232" fill="none" xmlns="http://www.w3.org/2000/svg">
<path d="M328.54 232C340.392 232 350 222.392 350 210.54L350 78.4599C350 66.6079 340.392 57 328.54 57L21.4599 57C9.60795 57 4.07418e-05 66.6079 4.2196e-05 78.4599L5.84021e-05 210.54C5.98563e-05 222.392 9.60794 232 21.4599 232L328.54 232Z" fill="#FDC194"/>
<path d="M250 50C250 64.9117 262.088 77 277 77H421C435.912 77 448 64.9117 448 50V27C448 12.0883 435.912 0 421 0H277C262.088 0 250 12.0883 250 27V50Z" fill="#9BF1B4"/>
</svg>
