<svg width="450" height="576" viewBox="0 0 450 576" fill="none" xmlns="http://www.w3.org/2000/svg">
<path d="M330.54 476C342.392 476 352 466.392 352 454.54L352 78.4598C352 66.6079 342.392 57 330.54 57L71.4599 57C59.608 57 50 66.6079 50 78.4599L50.0001 454.54C50.0001 466.392 59.608 476 71.4599 476L330.54 476Z" fill="#FDC194"/>
<path d="M236 146C236 160.912 248.088 173 263 173H423C437.912 173 450 160.912 450 146V27C450 12.0883 437.912 0 423 0H263C248.088 0 236 12.0883 236 27V146Z" fill="#9BF1B4"/>
<path d="M0 549C0 563.912 12.0883 576 27 576H171C185.912 576 198 563.912 198 549V352C198 337.088 185.912 325 171 325H27C12.0883 325 0 337.088 0 352V549Z" fill="#9BF1B4"/>
</svg>
