<svg width="506" height="533" viewBox="0 0 506 533" fill="none" xmlns="http://www.w3.org/2000/svg">
<rect x="29" y="114" width="300" height="418" rx="20" fill="#FDC194"/>
<rect x="366" y="200" width="37" height="24" rx="12" fill="#9BF1B4"/>
<rect x="409" y="200" width="70" height="24" rx="12" fill="#9BF1B4"/>
<path d="M457.54 -9.3804e-07C469.392 -4.19975e-07 479 9.60791 479 21.4599L479 169.54C479 181.392 469.392 191 457.54 191L265.46 191C253.608 191 244 181.392 244 169.54L244 21.4598C244 9.60789 253.608 -9.8522e-06 265.46 -9.33414e-06L457.54 -9.3804e-07Z" fill="#9BF1B4"/>
<rect x="113" y="533" width="37" height="24" rx="12" transform="rotate(-180 113 533)" fill="#9BF1B4"/>
<rect x="70" y="533" width="70" height="24" rx="12" transform="rotate(-180 70 533)" fill="#9BF1B4"/>
<path d="M131.5 533C125.149 533 120 527.851 120 521.5C120 515.149 125.149 510 131.5 510L494.5 510C500.851 510 506 515.149 506 521.5C506 527.851 500.851 533 494.5 533L131.5 533Z" fill="#9BF1B4"/>
</svg>
