<svg width="448" height="140" viewBox="0 0 448 140" fill="none" xmlns="http://www.w3.org/2000/svg">
<path d="M278.54 46C290.392 46 300 55.6079 300 67.4599L300 118.54C300 130.392 290.392 140 278.54 140L21.4598 140C9.60787 140 -6.41547e-06 130.392 -5.51449e-06 118.54L-1.63137e-06 67.4599C-7.30391e-07 55.6079 9.60791 46 21.4598 46L278.54 46Z" fill="#FDC194"/>
<path d="M211 27C211 12.0883 223.088 0 238 0H421C435.912 0 448 12.0883 448 27V74C448 88.9117 435.912 101 421 101H238C223.088 101 211 88.9117 211 74V27Z" fill="#9BF1B4"/>
</svg>
