<svg width="450" height="79" viewBox="0 0 450 79" fill="none" xmlns="http://www.w3.org/2000/svg">
<path d="M299.54 36C311.392 36 321 45.6481 321 57.5C321 69.352 311.392 79 299.54 79L21.4598 79C9.60791 79 -3.3053e-05 69.3519 -3.2152e-05 57.5C-3.1251e-05 45.648 9.60788 36 21.4598 36L299.54 36Z" fill="#FDC194"/>
<path d="M285 11.5C285 5.14873 290.149 0 296.5 0H309.5C315.851 0 321 5.14873 321 11.5C321 17.8513 315.851 23 309.5 23H296.5C290.149 23 285 17.8513 285 11.5Z" fill="#9BF1B4"/>
<path d="M336 11.5C336 5.14873 341.149 0 347.5 0H438.5C444.851 0 450 5.14873 450 11.5C450 17.8513 444.851 23 438.5 23H347.5C341.149 23 336 17.8513 336 11.5Z" fill="#9BF1B4"/>
</svg>
