<svg width="448" height="231" viewBox="0 0 448 231" fill="none" xmlns="http://www.w3.org/2000/svg">
<path d="M278.54 79C290.392 79 300 88.6079 300 100.46L300 209.54C300 221.392 290.392 231 278.54 231L21.4598 231C9.60787 231 -1.08246e-05 221.392 -9.92364e-06 209.54L-1.63137e-06 100.46C-7.30391e-07 88.6079 9.60791 79 21.4598 79L278.54 79Z" fill="#FDC194"/>
<path d="M211 27C211 12.0883 223.088 0 238 0H421C435.912 0 448 12.0883 448 27V107C448 121.912 435.912 134 421 134H238C223.088 134 211 121.912 211 107V27Z" fill="#9BF1B4"/>
</svg>
