<svg width="448" height="318" viewBox="0 0 448 318" fill="none" xmlns="http://www.w3.org/2000/svg">
<path d="M278.54 79C290.392 79 300 88.6079 300 100.46L300 296.54C300 308.392 290.392 318 278.54 318L21.4599 318C9.60794 318 1.83244e-05 308.392 1.92254e-05 296.54L3.41314e-05 100.46C3.50324e-05 88.6079 9.60794 79 21.4599 79L278.54 79Z" fill="#FDC194"/>
<path d="M211 27C211 12.0883 223.088 0 238 0H421C435.912 0 448 12.0883 448 27V182C448 196.912 435.912 209 421 209H238C223.088 209 211 196.912 211 182V27Z" fill="#9BF1B4"/>
</svg>
