<svg width="28" height="29" viewBox="0 0 28 29" fill="none" xmlns="http://www.w3.org/2000/svg">
<path d="M8.05016e-06 14.4546C0.00819177 6.454 6.28627 -0.00726053 14.0433 6.12331e-06C21.7699 0.00727278 28.0082 6.5085 28 14.5442C27.9918 22.5678 21.6985 29.0194 13.8983 29C6.22431 28.9818 -0.00817567 22.46 8.05016e-06 14.4546ZM14.0059 16.987C14.899 17.9341 15.6859 18.7964 16.5019 19.6284C17.0175 20.1541 17.6593 20.28 18.3339 20.0184C18.9897 19.7641 19.3568 19.2373 19.4328 18.5154C19.5006 17.8651 19.2294 17.3503 18.791 16.9071C18.017 16.1259 17.2501 15.3363 16.4212 14.4897C17.3062 13.5911 18.1421 12.782 18.9325 11.9282C19.6363 11.1676 19.6129 10.0776 18.9325 9.38125C18.252 8.68366 17.2104 8.68002 16.4703 9.40063C15.9466 9.91051 15.452 10.4507 14.9411 10.9751C14.6313 11.2936 14.3157 11.6061 13.9521 11.9718C13.0986 11.0659 12.3107 10.2048 11.4946 9.37278C10.9779 8.84716 10.336 8.72241 9.66147 8.98522C9.00443 9.24077 8.63734 9.77002 8.56368 10.4894C8.50055 11.1119 8.74372 11.6206 9.16928 12.053C9.95491 12.8511 10.7324 13.6577 11.5542 14.5042C10.7113 15.3702 9.92802 16.1768 9.14356 16.981C8.71917 17.4158 8.49354 17.9293 8.56953 18.5542C8.65721 19.2784 9.03834 19.7919 9.69654 20.0342C10.3746 20.2837 11.0094 20.1347 11.5238 19.6066C12.3352 18.7734 13.1243 17.9196 14.0035 16.9894L14.0059 16.987Z" fill="#ED1C24"/>
</svg>
