<svg width="51" height="51" viewBox="0 0 51 51" fill="none" xmlns="http://www.w3.org/2000/svg">
<circle cx="25.5" cy="25.5" r="25.5" fill="#EACD97"/>
<path d="M25.0482 26.3834C20.0163 26.3834 15.9209 22.2881 15.9209 17.2562C15.9209 12.2243 20.0163 8.12891 25.0482 8.12891C30.0801 8.12891 34.1754 12.2243 34.1754 17.2562C34.1754 22.2881 30.0801 26.3834 25.0482 26.3834ZM25.0482 10.5099C21.3338 10.5099 18.3019 13.5418 18.3019 17.2562C18.3019 20.9706 21.3338 24.0024 25.0482 24.0024C28.7626 24.0024 31.7944 20.9706 31.7944 17.2562C31.7944 13.5418 28.7626 10.5099 25.0482 10.5099Z" fill="white"/>
<path d="M38.6838 42.2571C38.033 42.2571 37.4933 41.7174 37.4933 41.0666C37.4933 35.5903 31.9058 31.1457 25.0485 31.1457C18.1911 31.1457 12.6037 35.5903 12.6037 41.0666C12.6037 41.7174 12.064 42.2571 11.4132 42.2571C10.7624 42.2571 10.2227 41.7174 10.2227 41.0666C10.2227 34.2886 16.8736 28.7646 25.0485 28.7646C33.2233 28.7646 39.8743 34.2886 39.8743 41.0666C39.8743 41.7174 39.3346 42.2571 38.6838 42.2571Z" fill="white"/>
</svg>
